<?xml version="1.0" encoding="utf-8"?>
<!-- Generator: Adobe Illustrator 23.0.4, SVG Export Plug-In . SVG Version: 6.00 Build 0)  -->
<svg version="1.1" id="Ebene_1" xmlns="http://www.w3.org/2000/svg" xmlns:xlink="http://www.w3.org/1999/xlink" x="0px" y="0px"
	 viewBox="0 0 10000 4454" style="enable-background:new 0 0 10000 4454;" xml:space="preserve">
<style type="text/css">
	.st0{fill:#F58220;}
	.st1{fill:#414042;}
	.st2{fill:#FFFFFF;}
</style>
<g>
	<g>
		<path class="st0" d="M5855.7,1247.2l-711.3-410.7c-89.3-51.6-199.4-51.6-288.7,0l-711.3,410.7c-89.3,51.6-144.3,146.9-144.3,250
			v416.7l920.8-585.6c4.2-3.2,8.5-6.4,12.7-9.5c0.1-0.1,0.2-0.2,0.3-0.2c0.9-0.7,1.9-1.4,2.8-2.1c0.1-0.1,0.2-0.1,0.3-0.2
			c5-3.6,10.1-7.2,15.2-10.6c0.1,0,0.1-0.1,0.2-0.1c1-0.7,1.9-1.3,2.9-2c0.1-0.1,0.2-0.1,0.3-0.2c5.1-3.4,10.3-6.8,15.5-10.1
			c0,0,0,0,0,0c1-0.6,2-1.2,3-1.9c0.1-0.1,0.2-0.1,0.3-0.2c1-0.6,2-1.2,3-1.8c0,0,0.1-0.1,0.1-0.1c5.2-3.2,10.5-6.3,15.7-9.2
			c0.1,0,0.2-0.1,0.2-0.1c1-0.6,2-1.1,3-1.7c0.1,0,0.2-0.1,0.2-0.1c5.3-2.9,10.6-5.8,15.9-8.5c0,0,0.1,0,0.1-0.1
			c1-0.5,2.1-1.1,3.1-1.6c0.1,0,0.2-0.1,0.3-0.1c6.4-3.2,12.9-6.3,19.3-9.3c0.1,0,0.2-0.1,0.3-0.1c1-0.5,2.1-0.9,3.1-1.4
			c0.1,0,0.1,0,0.2-0.1c5.4-2.4,10.9-4.7,16.3-7c0.1,0,0.1-0.1,0.2-0.1c1-0.4,2.1-0.8,3.1-1.3c0.1,0,0.2-0.1,0.3-0.1
			c5.5-2.2,11-4.3,16.6-6.2c0,0,0,0,0.1,0c1.1-0.4,2.1-0.8,3.2-1.1c0.1,0,0.2-0.1,0.3-0.1c1.1-0.4,2.1-0.7,3.2-1.1c0,0,0,0,0.1,0
			c5.6-1.9,11.1-3.6,16.7-5.3c0.1,0,0.2-0.1,0.3-0.1c1.1-0.3,2.1-0.6,3.2-0.9c0.1,0,0.1,0,0.2-0.1c5.6-1.6,11.2-3.1,16.8-4.5
			c0.1,0,0.1,0,0.2,0c1.1-0.3,2.2-0.5,3.2-0.8c0.1,0,0.2,0,0.3-0.1c6.8-1.6,13.6-3,20.4-4.3c0.1,0,0.2,0,0.3-0.1
			c1.1-0.2,2.2-0.4,3.3-0.6c0.1,0,0.1,0,0.2,0c5.7-1,11.4-1.9,17.1-2.7c0.1,0,0.2,0,0.3,0c1.1-0.1,2.2-0.3,3.3-0.4
			c0.1,0,0.2,0,0.3,0c5.7-0.7,11.5-1.3,17.2-1.8c0.1,0,0.1,0,0.2,0c1.1-0.1,2.2-0.2,3.3-0.3c0.1,0,0.3,0,0.4,0
			c1.1-0.1,2.2-0.2,3.3-0.2c0,0,0.1,0,0.1,0c5.8-0.4,11.6-0.7,17.4-0.8c0.1,0,0.3,0,0.4,0c1.1,0,2.2-0.1,3.3-0.1c0.1,0,0.2,0,0.3,0
			c5.8-0.1,11.6-0.1,17.4,0.1c0.1,0,0.2,0,0.3,0c1.1,0,2.2,0.1,3.3,0.1c0.1,0,0.3,0,0.4,0c1.1,0,2.2,0.1,3.3,0.1c0,0,0,0,0,0
			c4.7,0.2,9.4,0.5,14.2,0.8c0.1,0,0.1,0,0.2,0c1.1,0.1,2.2,0.2,3.3,0.3c0.2,0,0.3,0,0.5,0c1.1,0.1,2.2,0.2,3.3,0.3
			c0.1,0,0.2,0,0.3,0c5.8,0.6,11.7,1.2,17.5,2c0.2,0,0.3,0,0.5,0.1c1.1,0.1,2.2,0.3,3.2,0.5c0.2,0,0.3,0,0.5,0.1
			c5.8,0.9,11.7,1.8,17.5,3c0.1,0,0.3,0.1,0.4,0.1c1.1,0.2,2.2,0.4,3.2,0.6c0.2,0,0.4,0.1,0.5,0.1c1.1,0.2,2.2,0.4,3.3,0.7
			c0.1,0,0.2,0,0.3,0.1c4.7,1,9.4,2.1,14.2,3.2c0.1,0,0.2,0,0.3,0.1c1.1,0.3,2.2,0.5,3.2,0.8c0.2,0,0.4,0.1,0.6,0.1
			c1.1,0.3,2.1,0.5,3.2,0.8c0.2,0,0.3,0.1,0.5,0.1c116.8,30.8,237.1,113.2,354,262.3c0.1,0.2,0.3,0.3,0.4,0.5c0.8,1,1.6,2.1,2.4,3.1
			c1.1,1.3,2.1,2.7,3.2,4.1c0.4,0.5,0.8,1,1.1,1.5c1.2,1.6,2.5,3.2,3.7,4.8c0,0,0,0,0,0c192.2,252.4,329.2,654.1,249.6,982.5
			c35.8-48.8,56-108.4,56-170.9v-821.4C6000,1394.1,5945,1298.8,5855.7,1247.2z"/>
		<path class="st1" d="M5115.7,2993.7c-118.7-18.7-231.4-64.3-323-138.5c-3-2.4-5.9-4.8-8.8-7.3c-1.6-1.3-3.1-2.7-4.7-4
			c0,0-0.1-0.1-0.1-0.1c-0.3-0.3-0.7-0.6-1-0.9c-1.5-1.3-3.1-2.7-4.6-4c-0.1-0.1-0.1-0.1-0.2-0.2c-1.5-1.3-2.9-2.6-4.4-3.9
			c-0.3-0.3-0.6-0.5-0.9-0.8c-0.1-0.1-0.2-0.1-0.2-0.2c-1.5-1.4-3-2.7-4.5-4.1c-0.1-0.1-0.2-0.2-0.4-0.3c-1.4-1.3-2.8-2.6-4.1-3.8
			c-0.4-0.3-0.7-0.7-1.1-1c-1.5-1.4-2.9-2.7-4.4-4.1c-0.2-0.2-0.3-0.3-0.5-0.5c-1.3-1.3-2.6-2.5-3.9-3.8c0,0,0,0,0,0
			c-0.2-0.2-0.4-0.4-0.6-0.6c-0.1-0.1-0.2-0.2-0.3-0.3c-1.4-1.4-2.9-2.8-4.3-4.2c-0.2-0.2-0.4-0.4-0.6-0.6c-1.3-1.3-2.5-2.5-3.8-3.8
			c-0.3-0.3-0.7-0.7-1-1c-1.4-1.4-2.8-2.8-4.2-4.2c-0.2-0.2-0.4-0.4-0.5-0.6c0,0-0.1-0.1-0.1-0.1c-1.2-1.3-2.4-2.5-3.6-3.8
			c-0.2-0.2-0.3-0.3-0.5-0.5c-0.2-0.2-0.3-0.3-0.5-0.5c-1.4-1.4-2.7-2.9-4.1-4.3c-0.2-0.3-0.5-0.5-0.7-0.8c-1.2-1.3-2.3-2.5-3.5-3.8
			c-0.3-0.3-0.6-0.7-0.9-1c-1.3-1.5-2.6-2.9-3.9-4.4c-0.1-0.2-0.3-0.3-0.4-0.5c-0.1-0.1-0.2-0.3-0.3-0.4c-1.1-1.3-2.3-2.5-3.4-3.8
			c-0.1-0.1-0.2-0.2-0.3-0.3c-0.2-0.2-0.4-0.4-0.5-0.6c-1.3-1.5-2.6-3-3.8-4.4c-0.3-0.3-0.5-0.6-0.8-0.9c-1.1-1.3-2.2-2.6-3.3-3.9
			c-0.3-0.3-0.5-0.6-0.8-0.9c-1.3-1.5-2.5-3-3.7-4.5c-0.1-0.1-0.1-0.1-0.2-0.2c0,0-0.1-0.1-0.1-0.1c-0.2-0.2-0.3-0.4-0.5-0.6
			c-1.1-1.3-2.1-2.6-3.2-3.9c0,0-0.1-0.1-0.1-0.1c-0.2-0.2-0.4-0.5-0.6-0.7c-1.2-1.5-2.4-3-3.7-4.6c-0.3-0.3-0.5-0.7-0.8-1
			c-1.1-1.3-2.1-2.7-3.1-4c-0.2-0.3-0.4-0.6-0.6-0.8c-1.2-1.5-2.4-3.1-3.6-4.6c-0.1-0.1-0.1-0.1-0.2-0.2c-0.2-0.3-0.4-0.6-0.6-0.8
			c-1-1.4-2.1-2.7-3.1-4.1c-0.2-0.3-0.4-0.5-0.6-0.8c-1.2-1.6-2.3-3.1-3.5-4.7c-0.3-0.3-0.5-0.7-0.8-1c0,0,0,0,0-0.1
			c-1-1.4-2-2.8-3.1-4.2c-0.2-0.2-0.3-0.4-0.5-0.6c0,0,0,0,0-0.1c-1.1-1.6-2.3-3.2-3.4-4.8c0,0,0-0.1-0.1-0.1
			c-0.2-0.3-0.5-0.7-0.7-1c-1-1.4-2-2.9-3-4.4c-0.1-0.2-0.3-0.4-0.4-0.6c-1.1-1.6-2.2-3.2-3.3-4.8c-0.2-0.3-0.4-0.6-0.6-0.9
			c0-0.1-0.1-0.1-0.1-0.2c-1-1.5-2-3-3-4.5c-0.1-0.1-0.1-0.2-0.2-0.3c0-0.1-0.1-0.1-0.1-0.2c-1.1-1.6-2.1-3.3-3.2-4.9
			c-0.3-0.4-0.5-0.8-0.8-1.2c-1-1.6-2-3.1-3-4.7c-0.1-0.1-0.1-0.2-0.2-0.3c-1-1.7-2.1-3.3-3.1-5c-0.2-0.3-0.3-0.5-0.5-0.8
			c-0.1-0.1-0.2-0.3-0.2-0.4c-1-1.6-2-3.3-3-5c0,0,0,0,0-0.1c-1-1.7-2-3.4-3-5c-0.2-0.4-0.5-0.8-0.7-1.2c-1-1.7-2-3.4-3-5.1
			c0,0,0-0.1-0.1-0.1c-1-1.7-1.9-3.3-2.9-5c-0.1-0.1-0.2-0.3-0.2-0.4c-0.1-0.1-0.1-0.2-0.2-0.3c-0.1-0.2-0.2-0.4-0.3-0.6
			c-1-1.7-1.9-3.4-2.9-5.1c-0.1-0.1-0.1-0.2-0.2-0.3c-0.9-1.6-1.8-3.2-2.7-4.9c-0.2-0.4-0.4-0.8-0.7-1.2c-0.9-1.7-1.9-3.4-2.8-5.1
			c-0.1-0.2-0.2-0.3-0.2-0.5c0,0,0,0,0,0c-0.8-1.6-1.7-3.2-2.5-4.8c-0.1-0.2-0.2-0.3-0.3-0.5c-0.1-0.2-0.3-0.5-0.4-0.7
			c-0.9-1.7-1.8-3.4-2.7-5.2c-0.1-0.2-0.2-0.4-0.3-0.6c-0.8-1.6-1.6-3.1-2.4-4.7c-0.2-0.4-0.4-0.8-0.6-1.2c-0.9-1.7-1.7-3.5-2.6-5.2
			c-0.1-0.1-0.1-0.2-0.2-0.3c-0.1-0.1-0.1-0.3-0.2-0.4c-0.8-1.6-1.5-3.1-2.3-4.7c0-0.1-0.1-0.2-0.1-0.3c-0.1-0.3-0.3-0.6-0.4-0.9
			c-0.8-1.7-1.7-3.5-2.5-5.3c-0.1-0.3-0.3-0.6-0.4-0.8c-0.7-1.6-1.4-3.1-2.1-4.7c-0.2-0.4-0.4-0.8-0.5-1.2c-0.8-1.8-1.6-3.5-2.4-5.3
			c0-0.1-0.1-0.1-0.1-0.2c-0.1-0.2-0.2-0.4-0.2-0.6c0-0.1-0.1-0.1-0.1-0.2c-0.7-1.6-1.4-3.1-2.1-4.7c0,0,0-0.1,0-0.1
			c-0.1-0.3-0.3-0.7-0.4-1c-0.8-1.8-1.5-3.6-2.3-5.3c-0.1-0.3-0.3-0.7-0.4-1c-0.7-1.6-1.3-3.1-2-4.7c-0.1-0.3-0.3-0.7-0.4-1
			c0,0,0-0.1,0-0.1c-0.7-1.8-1.5-3.6-2.2-5.4c0,0,0,0,0-0.1c-0.1-0.3-0.3-0.7-0.4-1c-0.6-1.6-1.3-3.2-1.9-4.7
			c-0.1-0.3-0.3-0.7-0.4-1c-0.7-1.8-1.4-3.6-2.1-5.4c-0.1-0.3-0.3-0.7-0.4-1c0,0,0-0.1,0-0.1c-0.6-1.6-1.2-3.2-1.8-4.8
			c0-0.1-0.1-0.2-0.1-0.3c-0.1-0.1-0.1-0.3-0.2-0.4c0-0.1-0.1-0.2-0.1-0.2c-0.7-1.8-1.4-3.6-2-5.5c-0.1-0.4-0.3-0.8-0.4-1.2
			c-0.6-1.6-1.2-3.2-1.8-4.9c-0.1-0.3-0.2-0.6-0.3-0.9c-0.7-1.8-1.3-3.7-1.9-5.5c-0.1-0.3-0.2-0.6-0.3-0.9c0-0.1-0.1-0.2-0.1-0.3
			c-0.6-1.6-1.1-3.3-1.7-5c0-0.1-0.1-0.3-0.1-0.4c0-0.1-0.1-0.3-0.1-0.4c-0.6-1.9-1.2-3.7-1.9-5.6c-0.1-0.4-0.3-0.8-0.4-1.3
			c-0.6-1.7-1.1-3.4-1.6-5.1c-0.1-0.2-0.1-0.5-0.2-0.7c-0.6-1.9-1.2-3.7-1.8-5.6c-0.1-0.2-0.2-0.5-0.2-0.7c-0.1-0.2-0.1-0.4-0.2-0.6
			c-0.5-1.7-1.1-3.5-1.6-5.2c-0.1-0.2-0.1-0.4-0.2-0.5c-0.6-1.9-1.1-3.8-1.7-5.7c-0.1-0.4-0.3-0.9-0.4-1.3c-0.5-1.8-1.1-3.6-1.6-5.4
			c0-0.1-0.1-0.2-0.1-0.3c-0.5-1.9-1.1-3.8-1.6-5.7c-0.1-0.2-0.1-0.4-0.2-0.6c0-0.2-0.1-0.3-0.1-0.5c0-0.1-0.1-0.2-0.1-0.3
			c-0.5-1.9-1-3.7-1.5-5.6c0,0,0-0.1,0-0.1c-0.5-1.9-1-3.8-1.5-5.8c-0.1-0.5-0.2-0.9-0.4-1.4c-1-3.9-2-7.7-2.9-11.6
			c0-0.1-0.1-0.3-0.1-0.4c-0.1-0.3-0.2-0.6-0.2-1c-0.5-1.9-0.9-3.9-1.4-5.8c0-0.1,0-0.1,0-0.2c-0.4-1.9-0.9-3.8-1.3-5.6
			c-0.1-0.5-0.2-0.9-0.3-1.4c-0.4-1.9-0.9-3.9-1.3-5.8c0-0.1,0-0.1,0-0.2c0-0.1,0-0.2-0.1-0.3c-0.4-1.8-0.8-3.6-1.2-5.5
			c0-0.1,0-0.1,0-0.2c-0.1-0.4-0.2-0.8-0.2-1.1c-0.4-1.9-0.8-3.9-1.2-5.8c0-0.2-0.1-0.4-0.1-0.6c-0.4-1.8-0.7-3.6-1.1-5.4
			c-0.1-0.4-0.2-0.8-0.2-1.2c0,0,0-0.1,0-0.1c-0.4-1.9-0.8-3.9-1.1-5.8c0,0,0,0,0,0c0-0.2-0.1-0.5-0.1-0.7c-0.3-1.8-0.7-3.5-1-5.3
			c0,0,0,0,0,0c-0.1-0.4-0.2-0.9-0.2-1.3c-0.4-2-0.7-3.9-1-5.9c-0.1-0.3-0.1-0.6-0.2-0.9c-0.3-1.7-0.6-3.5-0.9-5.2
			c-0.1-0.3-0.1-0.7-0.2-1c0-0.1,0-0.2,0-0.3c-0.3-2-0.6-3.9-1-5.9c-0.1-0.3-0.1-0.7-0.2-1c-0.3-1.7-0.5-3.5-0.8-5.2
			c-0.1-0.4-0.1-0.8-0.2-1.3c-0.3-2-0.6-3.9-0.9-5.9c0-0.3-0.1-0.6-0.1-0.9c0-0.1,0-0.1,0-0.2c-0.2-1.7-0.5-3.4-0.7-5.2
			c0-0.2-0.1-0.5-0.1-0.7c0-0.1,0-0.2,0-0.4c0,0,0-0.1,0-0.1c-0.3-2-0.5-3.9-0.8-5.9c-0.1-0.4-0.1-0.8-0.2-1.2
			c-0.2-1.7-0.4-3.4-0.7-5.2c0-0.4-0.1-0.8-0.1-1.2c-0.2-2-0.5-3.9-0.7-5.9c0-0.3-0.1-0.5-0.1-0.8c0-0.2,0-0.3-0.1-0.5
			c-0.2-1.7-0.4-3.5-0.6-5.2c0-0.2,0-0.3-0.1-0.5c0-0.2,0-0.4-0.1-0.6c-0.2-2-0.4-4-0.6-5.9c0-0.4-0.1-0.9-0.1-1.3
			c-0.2-1.7-0.4-3.5-0.5-5.2c0-0.3-0.1-0.7-0.1-1c-0.2-2-0.4-4-0.6-6c0-0.2,0-0.4-0.1-0.6c0-0.2,0-0.5-0.1-0.7
			c-0.2-1.8-0.3-3.5-0.5-5.3c0,0,0-0.1,0-0.1c0-0.3,0-0.5-0.1-0.8c-0.2-2-0.3-4-0.5-6c0-0.5-0.1-0.9-0.1-1.4
			c-0.1-1.8-0.3-3.6-0.4-5.4c0-0.3,0-0.5-0.1-0.8c-0.1-2-0.3-4-0.4-6c0-0.1,0-0.3,0-0.4c0-0.3,0-0.7-0.1-1c-0.1-1.8-0.2-3.6-0.3-5.5
			c0-0.2,0-0.5,0-0.7c-0.1-2-0.2-4-0.3-6c0-0.5,0-1-0.1-1.4c-0.1-1.9-0.2-3.8-0.3-5.6c0-0.2,0-0.3,0-0.5c-0.1-2-0.2-4-0.2-6.1
			c0-0.1,0-0.2,0-0.3c0-0.4,0-0.8,0-1.2c-0.1-1.9-0.1-3.9-0.2-5.8c0-0.1,0-0.2,0-0.3c-0.1-2-0.1-4.1-0.2-6.1c0-0.4,0-0.9,0-1.3
			c0-0.1,0-0.1,0-0.2c0-2-0.1-4-0.1-6c0,0,0,0,0,0c0,0,0,0,0,0c0-2-0.1-4.1-0.1-6.1c0,0,0-0.1,0-0.1c0-0.5,0-0.9,0-1.4
			c0-2,0-4.1-0.1-6.1c0-0.1,0-0.1,0-0.2c0-2,0-3.9,0-5.9c0-0.4,0-0.8,0-1.1c0-0.1,0-0.2,0-0.4c0-2,0-4,0-6.1c0-0.2,0-0.3,0-0.5
			c0-1.9,0-3.8,0.1-5.7c0-0.5,0-1,0-1.5c0-2,0.1-4,0.1-6.1c0-0.2,0-0.4,0-0.7c0-1.8,0.1-3.7,0.1-5.5c0-0.1,0-0.1,0-0.2
			c0-0.2,0-0.5,0-0.7c0-0.2,0-0.4,0-0.5c0.1-2,0.1-4,0.2-6c0-0.3,0-0.6,0-0.9c0.1-1.8,0.1-3.6,0.2-5.4c0-0.5,0-1,0.1-1.5
			c0.1-2,0.2-4,0.2-6c0-0.2,0-0.5,0-0.7c0-0.1,0-0.2,0-0.2c0.1-1.8,0.2-3.5,0.2-5.3c0-0.2,0-0.5,0-0.7c0-0.2,0-0.5,0-0.7
			c0.1-2,0.2-4,0.3-6c0-0.4,0-0.7,0.1-1.1c0.1-1.7,0.2-3.5,0.3-5.2c0-0.5,0.1-1,0.1-1.4c0.1-2,0.2-4,0.4-6c0-0.2,0-0.4,0-0.6
			c0-0.2,0-0.4,0-0.6c0.1-1.7,0.2-3.4,0.4-5.2c0-0.2,0-0.3,0-0.5c0-0.3,0-0.6,0.1-0.9c0.1-2,0.3-4,0.4-6c0-0.4,0.1-0.9,0.1-1.3
			c0.1-1.7,0.3-3.4,0.4-5.1c0-0.5,0.1-0.9,0.1-1.4c0.2-2,0.3-4,0.5-6c0-0.2,0-0.3,0-0.5c0,0,0,0,0,0c0-0.3,0.1-0.6,0.1-0.9
			c0.2-1.7,0.3-3.4,0.5-5.1c0-0.1,0-0.2,0-0.3c0-0.4,0.1-0.7,0.1-1.1c0.2-2,0.4-4,0.6-6c0-0.5,0.1-1,0.1-1.5
			c0.2-1.7,0.3-3.4,0.5-5.1c0-0.4,0.1-0.8,0.1-1.3c0,0,0,0,0,0c0.2-2,0.4-4,0.7-6c0-0.1,0-0.2,0-0.3c0-0.4,0.1-0.8,0.1-1.2
			c0.2-1.7,0.4-3.4,0.6-5.1c0,0,0,0,0,0c0-0.4,0.1-0.8,0.1-1.2c0.2-2,0.5-4,0.7-5.9c0.1-0.5,0.1-0.9,0.2-1.4c0-0.1,0-0.1,0-0.2
			c0.2-1.7,0.4-3.4,0.7-5.1c0,0,0-0.1,0-0.1c0-0.3,0.1-0.5,0.1-0.8c0-0.1,0-0.1,0-0.2c0.3-2,0.5-4,0.8-5.9c0-0.1,0-0.1,0-0.2
			c0.1-0.5,0.1-1,0.2-1.4c0.2-1.7,0.5-3.5,0.7-5.2c0-0.3,0.1-0.7,0.1-1c0.3-2,0.6-4,0.9-5.9c0.1-0.4,0.1-0.8,0.2-1.2
			c0-0.1,0-0.3,0.1-0.4c0.3-1.8,0.5-3.5,0.8-5.3c0-0.2,0.1-0.4,0.1-0.6c0-0.1,0-0.2,0-0.3c0.3-2,0.6-3.9,0.9-5.9c0,0,0,0,0,0
			c0.1-0.5,0.2-1.1,0.3-1.6c0.3-1.8,0.6-3.6,0.9-5.4c0-0.2,0.1-0.5,0.1-0.7c0.3-2,0.7-3.9,1-5.9c0.1-0.4,0.1-0.7,0.2-1.1
			c0-0.2,0.1-0.4,0.1-0.6c0.3-1.8,0.6-3.7,1-5.5c0,0,0-0.1,0-0.1c0-0.2,0.1-0.3,0.1-0.5c0.3-2,0.7-3.9,1-5.9
			c0.1-0.6,0.2-1.1,0.3-1.7c0.3-1.9,0.7-3.8,1-5.7c0-0.2,0.1-0.5,0.1-0.7c0.3-1.8,0.7-3.7,1-5.5c0.1-0.3,0.1-0.6,0.2-0.9
			c0,0,0,0,0-0.1c0.1-0.3,0.1-0.6,0.2-0.8c0.4-2,0.8-3.9,1.1-5.9c0.1-0.3,0.1-0.5,0.2-0.8c0.3-1.8,0.7-3.5,1.1-5.3
			c0.1-0.6,0.2-1.2,0.4-1.8c0.4-1.9,0.8-3.9,1.2-5.8c0-0.2,0.1-0.4,0.1-0.6c0-0.1,0.1-0.3,0.1-0.4c0.4-1.7,0.7-3.4,1.1-5.1
			c0.1-0.2,0.1-0.5,0.2-0.7c0.1-0.3,0.1-0.7,0.2-1c0.4-1.9,0.8-3.8,1.3-5.8c0.1-0.4,0.2-0.8,0.3-1.2c0.4-1.6,0.7-3.3,1.1-4.9
			c0.1-0.6,0.3-1.2,0.4-1.8c0,0,0,0,0,0c0.4-1.9,0.9-3.8,1.3-5.7c0-0.2,0.1-0.3,0.1-0.5c0.1-0.3,0.1-0.6,0.2-0.8
			c0.4-1.6,0.7-3.2,1.1-4.8c0-0.2,0.1-0.4,0.1-0.6c0.1-0.4,0.2-0.8,0.3-1.2c0.5-1.9,0.9-3.8,1.4-5.7c0.1-0.5,0.2-0.9,0.3-1.4
			c0.4-1.6,0.8-3.1,1.1-4.7c0.1-0.5,0.3-1.1,0.4-1.6c0-0.1,0-0.1,0-0.2c0.5-1.9,0.9-3.8,1.4-5.6c0-0.1,0.1-0.2,0.1-0.3
			c0.1-0.2,0.1-0.5,0.2-0.7c0-0.2,0.1-0.3,0.1-0.5c0.4-1.5,0.8-3,1.2-4.6c0-0.1,0.1-0.3,0.1-0.4c0.1-0.4,0.2-0.9,0.3-1.3
			c0.5-1.9,1-3.7,1.5-5.6c0.1-0.4,0.2-0.9,0.4-1.3c0-0.1,0-0.2,0.1-0.3c0.4-1.5,0.8-3,1.2-4.5c0,0,0,0,0-0.1
			c0.1-0.4,0.2-0.9,0.4-1.3c0-0.1,0.1-0.2,0.1-0.3c0.5-1.9,1-3.7,1.5-5.6c0-0.1,0-0.1,0.1-0.2c0.1-0.5,0.3-1,0.4-1.5
			c0.4-1.5,0.8-3,1.2-4.4c0-0.1,0-0.2,0.1-0.2c0.1-0.5,0.3-1,0.4-1.5c0.5-1.8,1-3.7,1.6-5.5c0.1-0.4,0.2-0.8,0.4-1.2
			c0-0.2,0.1-0.3,0.1-0.5c0.4-1.5,0.9-2.9,1.3-4.4c0.1-0.3,0.2-0.7,0.3-1c0-0.1,0-0.1,0.1-0.2c0-0.2,0.1-0.3,0.1-0.5
			c0.5-1.8,1.1-3.7,1.6-5.5c0,0,0-0.1,0-0.1c0.2-0.6,0.3-1.1,0.5-1.7c0.4-1.5,0.9-2.9,1.3-4.4c0,0,0-0.1,0-0.1
			c0.2-0.5,0.3-1,0.5-1.5c0.6-1.8,1.1-3.6,1.7-5.4c0.1-0.4,0.2-0.7,0.3-1.1c0.1-0.2,0.2-0.5,0.2-0.7c0.5-1.4,0.9-2.9,1.4-4.3
			c0.1-0.3,0.2-0.6,0.3-0.9c0.1-0.2,0.1-0.4,0.2-0.6c0.6-1.8,1.1-3.6,1.7-5.4c0.2-0.6,0.4-1.3,0.6-1.9c0.5-1.4,0.9-2.9,1.4-4.3
			c0.2-0.5,0.3-1,0.5-1.5c0.6-1.8,1.2-3.6,1.8-5.4c0,0,0,0,0-0.1c0.1-0.3,0.2-0.6,0.3-0.9c0.1-0.3,0.2-0.6,0.3-1
			c0.5-1.5,1-2.9,1.5-4.4c0.1-0.2,0.1-0.4,0.2-0.7c0.1-0.3,0.2-0.5,0.3-0.8c0.6-1.8,1.2-3.6,1.8-5.3c0.2-0.6,0.4-1.3,0.7-1.9
			c0,0,0,0,0-0.1c0.5-1.5,1-2.9,1.5-4.4c0.2-0.5,0.3-1,0.5-1.5c0.6-1.7,1.2-3.5,1.8-5.2c0.1-0.3,0.2-0.6,0.3-0.9
			c0.1-0.2,0.1-0.4,0.2-0.6c0.1-0.2,0.1-0.4,0.2-0.6c0.5-1.5,1.1-3,1.6-4.4c0-0.1,0.1-0.2,0.1-0.3c0.2-0.4,0.3-0.9,0.5-1.3
			c0.6-1.6,1.2-3.2,1.8-4.8c0.2-0.6,0.4-1.2,0.7-1.8c0-0.1,0.1-0.1,0.1-0.2c0.6-1.5,1.1-3,1.7-4.5c0.1-0.4,0.3-0.8,0.4-1.2
			c0.1-0.2,0.2-0.4,0.2-0.6c0.6-1.5,1.1-3,1.7-4.5c0.1-0.2,0.2-0.5,0.3-0.7c0.2-0.4,0.3-0.9,0.5-1.3c0.6-1.5,1.2-3.1,1.8-4.6
			c0.2-0.6,0.5-1.2,0.7-1.9c0.6-1.4,1.1-2.9,1.7-4.3c0.2-0.6,0.4-1.1,0.7-1.7c0-0.1,0.1-0.2,0.1-0.4c0.6-1.6,1.3-3.2,1.9-4.8
			c0-0.1,0.1-0.2,0.1-0.4c0-0.1,0.1-0.2,0.1-0.3c0.1-0.4,0.3-0.7,0.5-1.1c0.5-1.4,1.1-2.7,1.6-4.1c0.1-0.2,0.2-0.4,0.2-0.6
			c0.2-0.5,0.4-1,0.6-1.5c0.7-1.7,1.4-3.4,2.1-5c0.2-0.4,0.4-0.9,0.5-1.3c0-0.1,0.1-0.2,0.1-0.3c0.5-1.3,1.1-2.6,1.6-3.9
			c0,0,0,0,0,0c0.2-0.5,0.4-1,0.6-1.5c0.1-0.2,0.1-0.3,0.2-0.5c0.7-1.7,1.4-3.3,2.1-5c0-0.1,0.1-0.2,0.1-0.2c0.1-0.3,0.3-0.7,0.4-1
			c0.1-0.1,0.1-0.3,0.2-0.4c0.5-1.3,1.1-2.5,1.6-3.8c0.1-0.2,0.1-0.3,0.2-0.5c0.2-0.5,0.5-1.1,0.7-1.6c0.7-1.6,1.4-3.3,2.1-4.9
			c0.2-0.4,0.3-0.8,0.5-1.2c0.1-0.2,0.2-0.4,0.3-0.6c0.5-1.2,1.1-2.4,1.6-3.7c0.1-0.2,0.1-0.3,0.2-0.5c0.1-0.3,0.3-0.6,0.4-0.9
			c0.1-0.2,0.2-0.4,0.3-0.6c0.7-1.6,1.5-3.3,2.2-4.9c0,0,0-0.1,0.1-0.1c0.2-0.5,0.5-1,0.7-1.5c0-0.1,0.1-0.2,0.1-0.2
			c0.5-1.2,1.1-2.4,1.6-3.6c0.1-0.1,0.1-0.3,0.2-0.4c0.3-0.6,0.5-1.1,0.8-1.7c0.7-1.6,1.5-3.2,2.2-4.8c0.2-0.4,0.3-0.7,0.5-1.1
			c0.1-0.3,0.3-0.6,0.4-0.9c0.5-1.2,1.1-2.3,1.6-3.5c0.2-0.4,0.4-0.8,0.6-1.3c0.1-0.1,0.1-0.3,0.2-0.4c0.1-0.1,0.1-0.2,0.2-0.3
			c0.7-1.6,1.5-3.2,2.3-4.8c0,0,0,0,0,0c0.3-0.6,0.6-1.2,0.8-1.7c0-0.1,0.1-0.2,0.1-0.2c0.5-1.1,1.1-2.3,1.6-3.4
			c0.1-0.1,0.1-0.2,0.1-0.3c0.3-0.6,0.6-1.1,0.8-1.7c0.8-1.6,1.5-3.1,2.3-4.7c0.2-0.3,0.3-0.7,0.5-1c0.2-0.4,0.4-0.7,0.5-1.1
			c0.5-1.1,1.1-2.2,1.7-3.3c0.2-0.4,0.4-0.7,0.5-1.1c0.2-0.3,0.3-0.6,0.5-0.9c0.8-1.5,1.5-3.1,2.3-4.6c0.3-0.6,0.6-1.2,0.9-1.8
			c0.1-0.1,0.1-0.2,0.2-0.3c0.6-1.1,1.1-2.2,1.7-3.3c0-0.1,0.1-0.2,0.1-0.3c0.3-0.6,0.6-1.1,0.9-1.7c0,0,0,0,0,0
			c0.8-1.5,1.6-3.1,2.4-4.6c0.1-0.2,0.2-0.3,0.2-0.5c0.1-0.1,0.1-0.3,0.2-0.4c0.2-0.4,0.4-0.8,0.7-1.3c0.6-1.1,1.1-2.2,1.7-3.2
			c0.2-0.3,0.3-0.6,0.5-0.9c0.2-0.3,0.4-0.7,0.5-1c0.8-1.5,1.6-3,2.4-4.5c0.3-0.6,0.6-1.1,0.9-1.7c0.1-0.1,0.2-0.3,0.2-0.4
			c0.6-1.1,1.1-2.1,1.7-3.2c0.1-0.1,0.1-0.2,0.2-0.4c0.3-0.5,0.5-1,0.8-1.4c0,0,0-0.1,0.1-0.1c0.8-1.5,1.6-3,2.4-4.5
			c0.1-0.2,0.3-0.5,0.4-0.8c0.2-0.3,0.3-0.6,0.5-0.9c0.1-0.2,0.2-0.3,0.3-0.5c0.6-1.1,1.2-2.1,1.7-3.2c0.1-0.3,0.3-0.5,0.4-0.8
			c0.3-0.5,0.5-1,0.8-1.4c0.8-1.4,1.5-2.7,2.3-4.1c0.3-0.5,0.6-1.1,0.9-1.6c0.1-0.2,0.2-0.4,0.3-0.5c0.6-1,1.2-2.1,1.8-3.1
			c0.1-0.2,0.3-0.5,0.4-0.7c0.2-0.3,0.3-0.6,0.5-0.9c0.2-0.3,0.3-0.6,0.5-0.9c0.7-1.2,1.4-2.5,2.1-3.7c0.1-0.2,0.2-0.4,0.4-0.6
			c0.3-0.5,0.5-0.9,0.8-1.4c0,0,0.1-0.1,0.1-0.1c0.6-1,1.2-2.1,1.8-3.1c0.1-0.2,0.2-0.4,0.4-0.6c0.3-0.6,0.7-1.2,1-1.7
			c0.1-0.1,0.1-0.2,0.2-0.3c0.7-1.1,1.3-2.3,2-3.4c0.3-0.5,0.6-1,0.9-1.5c0.1-0.2,0.3-0.4,0.4-0.7c0.6-1,1.2-2.1,1.9-3.1
			c0.3-0.5,0.6-0.9,0.8-1.4c0.1-0.1,0.1-0.2,0.2-0.3c0.2-0.4,0.4-0.7,0.7-1.1c0.6-1.1,1.3-2.1,1.9-3.2c0.1-0.2,0.2-0.4,0.3-0.5
			c0.3-0.5,0.6-1.1,1-1.6c0,0,0,0,0-0.1c0.6-1,1.3-2.1,1.9-3.1c0.1-0.1,0.2-0.3,0.3-0.4c0.3-0.6,0.7-1.1,1-1.7
			c0.1-0.2,0.3-0.5,0.4-0.7c0.6-1,1.2-2,1.9-3c0-0.1,0.1-0.1,0.1-0.2c0.2-0.4,0.5-0.8,0.7-1.2c0.2-0.3,0.3-0.5,0.5-0.8
			c0.7-1.1,1.3-2.1,2-3.2c0.2-0.4,0.5-0.7,0.7-1.1c0.2-0.4,0.5-0.8,0.7-1.1c0.1-0.2,0.3-0.4,0.4-0.6c0.6-1,1.2-1.9,1.8-2.9
			c0.1-0.2,0.2-0.3,0.3-0.5c0.4-0.5,0.7-1.1,1.1-1.6c0,0,0,0,0-0.1c0.7-1.1,1.4-2.2,2.1-3.2c0.1-0.1,0.1-0.2,0.2-0.3
			c0.3-0.5,0.7-1,1-1.6c0.2-0.3,0.4-0.6,0.6-1c0.6-0.9,1.2-1.8,1.8-2.7c0.2-0.3,0.4-0.6,0.5-0.8c0.1-0.2,0.2-0.3,0.3-0.5
			c0.2-0.3,0.4-0.6,0.6-0.9c0.7-1.1,1.5-2.2,2.2-3.3c0.2-0.2,0.3-0.5,0.5-0.7c0.3-0.5,0.6-1,1-1.4c0.1-0.2,0.2-0.3,0.3-0.5
			c0.6-0.9,1.2-1.8,1.8-2.6c0.1-0.1,0.2-0.3,0.3-0.4c0.4-0.5,0.7-1.1,1.1-1.6c0,0,0.1-0.1,0.1-0.1c0.8-1.2,1.6-2.3,2.4-3.5
			c0.3-0.4,0.6-0.9,0.9-1.3c0.3-0.4,0.5-0.8,0.8-1.1c0.6-0.8,1.2-1.7,1.7-2.5c0.3-0.4,0.5-0.8,0.8-1.2c0.2-0.3,0.4-0.5,0.5-0.8
			c0.1-0.1,0.1-0.1,0.2-0.2c0.9-1.3,1.8-2.5,2.7-3.8c0,0,0,0,0,0c0.4-0.5,0.7-1,1.1-1.5c0.1-0.2,0.3-0.4,0.4-0.5
			c0.6-0.8,1.2-1.6,1.7-2.5c0.1-0.1,0.2-0.3,0.3-0.4c0.4-0.5,0.7-1,1.1-1.5c0-0.1,0.1-0.1,0.1-0.2c0.9-1.3,1.8-2.5,2.7-3.8
			c0.2-0.3,0.4-0.5,0.6-0.8c0.3-0.4,0.6-0.9,0.9-1.3c0.6-0.8,1.2-1.6,1.7-2.4c0.3-0.3,0.5-0.7,0.8-1c0.3-0.4,0.5-0.7,0.8-1.1
			c0.9-1.2,1.8-2.5,2.7-3.7c0.4-0.5,0.7-1,1.1-1.5c0.1-0.2,0.3-0.4,0.4-0.6c0.6-0.8,1.1-1.5,1.7-2.3c0.1-0.1,0.2-0.3,0.3-0.4
			c0.3-0.5,0.7-0.9,1-1.4c0.1-0.1,0.1-0.2,0.2-0.3c0.9-1.2,1.8-2.4,2.8-3.7c0.2-0.2,0.3-0.5,0.5-0.7c0-0.1,0.1-0.1,0.1-0.2
			c0.3-0.4,0.6-0.8,0.9-1.2c0.6-0.7,1.1-1.5,1.7-2.2c0.2-0.3,0.5-0.6,0.7-0.9c0.3-0.4,0.6-0.8,0.9-1.2c0.9-1.2,1.9-2.4,2.8-3.6
			c0.4-0.5,0.7-0.9,1.1-1.4c0.2-0.2,0.4-0.5,0.5-0.7c0.6-0.7,1.2-1.5,1.7-2.2c0.2-0.2,0.3-0.4,0.5-0.6c0.3-0.4,0.6-0.7,0.9-1.1
			c0.1-0.1,0.2-0.3,0.3-0.4c0.9-1.2,1.9-2.4,2.8-3.5c0.2-0.2,0.3-0.4,0.5-0.6c0.3-0.3,0.5-0.6,0.8-1c0.1-0.2,0.3-0.4,0.4-0.5
			c0.6-0.7,1.2-1.4,1.7-2.1c0.2-0.3,0.4-0.6,0.7-0.8c0.4-0.5,0.8-0.9,1.1-1.4c0.9-1.1,1.8-2.2,2.7-3.3c0.4-0.4,0.7-0.9,1.1-1.3
			c0.2-0.3,0.4-0.5,0.6-0.8c0.6-0.7,1.2-1.4,1.7-2.1c0.3-0.4,0.6-0.7,0.9-1.1c0.1-0.2,0.3-0.3,0.4-0.5c0.3-0.4,0.6-0.7,0.9-1.1
			c0.8-0.9,1.5-1.8,2.3-2.8c0.1-0.2,0.3-0.3,0.4-0.5c0.4-0.4,0.7-0.8,1.1-1.3c0.1-0.1,0.2-0.2,0.3-0.3c0.6-0.7,1.2-1.4,1.7-2
			c0.2-0.3,0.4-0.5,0.6-0.8c0.4-0.5,0.8-1,1.2-1.4c0.2-0.2,0.4-0.4,0.6-0.7c0.7-0.8,1.4-1.6,2.1-2.5c0,0,0,0,0,0
			c0.3-0.4,0.7-0.8,1-1.2c0.2-0.3,0.5-0.6,0.7-0.8c0.6-0.7,1.2-1.3,1.8-2c0.4-0.5,0.8-0.9,1.2-1.4c0.2-0.2,0.4-0.4,0.6-0.6
			c0.3-0.3,0.6-0.6,0.8-0.9c0.7-0.7,1.3-1.5,2-2.2c0.1-0.1,0.2-0.3,0.4-0.4c0.4-0.4,0.8-0.9,1.2-1.3c0.1-0.1,0.2-0.2,0.3-0.3
			c0.6-0.7,1.2-1.3,1.8-2c0.2-0.2,0.4-0.5,0.6-0.7c0.4-0.5,0.8-0.9,1.2-1.4c0.3-0.3,0.6-0.6,0.9-1c0.6-0.7,1.3-1.4,1.9-2.1
			c0.1-0.1,0.2-0.2,0.3-0.3c0.2-0.3,0.5-0.5,0.7-0.8c0.3-0.3,0.6-0.6,0.8-0.9c0.6-0.6,1.2-1.3,1.8-1.9c0.4-0.4,0.8-0.8,1.2-1.3
			c0.3-0.4,0.7-0.7,1-1.1c0.2-0.2,0.5-0.5,0.7-0.7c0.6-0.7,1.2-1.3,1.8-2c0.1-0.1,0.2-0.2,0.3-0.4c0.4-0.5,0.9-0.9,1.3-1.3
			c0.1-0.1,0.2-0.2,0.3-0.3c0.6-0.6,1.2-1.3,1.8-1.9c0.2-0.2,0.4-0.5,0.7-0.7c0.4-0.4,0.8-0.8,1.2-1.2c0.4-0.4,0.7-0.7,1.1-1.1
			c0.6-0.6,1.2-1.2,1.8-1.9c0.3-0.3,0.6-0.7,1-1c0,0,0.1-0.1,0.1-0.1c0.3-0.3,0.6-0.6,0.9-0.9c0.6-0.6,1.2-1.2,1.8-1.9
			c0.4-0.4,0.7-0.7,1.1-1.1c0.4-0.4,0.8-0.8,1.2-1.2c0.2-0.2,0.5-0.5,0.7-0.7c0.6-0.6,1.2-1.2,1.8-1.8c0.1-0.1,0.2-0.2,0.3-0.3
			c0.4-0.4,0.9-0.9,1.3-1.3c0.1-0.1,0.2-0.2,0.3-0.3c0.6-0.6,1.2-1.2,1.9-1.8c0.3-0.3,0.5-0.5,0.8-0.8c0.3-0.3,0.7-0.6,1-1
			c0.4-0.4,0.8-0.8,1.3-1.2c0.6-0.6,1.2-1.1,1.7-1.7c0.3-0.3,0.6-0.6,0.9-0.9c0.3-0.3,0.6-0.5,0.8-0.8c0.1-0.1,0.1-0.1,0.2-0.2
			c0.6-0.6,1.3-1.2,1.9-1.8c0.3-0.3,0.7-0.6,1-0.9c0.4-0.4,0.9-0.8,1.3-1.2c0.2-0.2,0.5-0.5,0.7-0.7c0.6-0.5,1.2-1.1,1.7-1.6
			c0.1-0.1,0.2-0.2,0.3-0.3c0.4-0.4,0.8-0.8,1.3-1.2c0.1-0.1,0.3-0.3,0.4-0.4c0.7-0.6,1.3-1.2,2-1.9c0.4-0.3,0.7-0.7,1.1-1
			c0.2-0.2,0.3-0.3,0.5-0.5c0.5-0.4,0.9-0.9,1.4-1.3c0.6-0.5,1.1-1.1,1.7-1.6c0.3-0.3,0.6-0.5,0.9-0.8c0.4-0.3,0.8-0.7,1.2-1
			c0,0,0,0,0,0c0.7-0.6,1.4-1.2,2.1-1.9c0.3-0.2,0.6-0.5,0.8-0.7c0.4-0.4,0.9-0.8,1.3-1.2c0.3-0.2,0.5-0.5,0.8-0.7
			c0.6-0.5,1.1-1,1.7-1.5c0.1-0.1,0.3-0.3,0.4-0.4c0.4-0.3,0.8-0.7,1.1-1c0.2-0.1,0.3-0.3,0.5-0.4c0.8-0.7,1.5-1.3,2.3-2
			c0.4-0.4,0.9-0.8,1.3-1.1c0.2-0.2,0.4-0.3,0.6-0.5c0.3-0.3,0.7-0.6,1-0.9c0.6-0.5,1.1-1,1.7-1.5c0.3-0.2,0.5-0.5,0.8-0.7
			c0.4-0.4,0.8-0.7,1.3-1.1c0.9-0.7,1.7-1.5,2.6-2.2c0.1-0.1,0.2-0.2,0.3-0.3c0.4-0.4,0.9-0.8,1.3-1.1c0.3-0.2,0.6-0.5,0.9-0.7
			c0.6-0.5,1.1-0.9,1.7-1.4c0.2-0.2,0.5-0.4,0.7-0.6c0.3-0.2,0.6-0.5,0.8-0.7c0.2-0.2,0.4-0.3,0.6-0.5c1-0.8,2.1-1.7,3.1-2.5
			c0.1-0.1,0.3-0.2,0.4-0.4c0.4-0.3,0.7-0.6,1.1-0.8c0.2-0.2,0.4-0.3,0.6-0.5c0.6-0.5,1.1-0.9,1.7-1.4c0.3-0.2,0.5-0.4,0.8-0.6
			c0.4-0.4,0.9-0.7,1.3-1.1c1-0.8,2.1-1.6,3.1-2.5c0.4-0.3,0.8-0.6,1.2-0.9c0.3-0.3,0.7-0.5,1-0.8c0.6-0.4,1.1-0.9,1.7-1.3
			c0.5-0.4,1-0.8,1.5-1.1v0L4000,1913.9l0,0l0,404.7c0,103.1,55,198.4,144.3,250l711.3,410.7c45,26,95.3,38.9,145.5,38.7
			C5040.2,3017.8,5079.2,3009.7,5115.7,2993.7L5115.7,2993.7z"/>
		<path class="st2" d="M5689.6,1500.6c-1-1.4-2.1-2.7-3.2-4.1c-0.8-1-1.6-2.1-2.4-3.1c-0.1-0.2-0.3-0.3-0.4-0.5
			c-110-140.2-225.4-222.2-339.7-258.3c-4.8-1.4-9.5-2.8-14.3-4c-0.2,0-0.3-0.1-0.5-0.1c-1.1-0.3-2.1-0.6-3.2-0.8
			c-0.2-0.1-0.4-0.1-0.6-0.1c-1.1-0.3-2.2-0.5-3.2-0.8c-0.1,0-0.2,0-0.3-0.1c-4.7-1.2-9.4-2.2-14.2-3.2c-0.1,0-0.2,0-0.3-0.1
			c-1.1-0.2-2.2-0.4-3.3-0.7c-0.2,0-0.4-0.1-0.5-0.1c-1.1-0.2-2.2-0.4-3.2-0.6c-0.1,0-0.3-0.1-0.4-0.1c-5.9-1.1-11.7-2.1-17.5-3
			c-0.2,0-0.3,0-0.5-0.1c-1.1-0.2-2.2-0.3-3.2-0.5c-0.2,0-0.3,0-0.5-0.1c-5.9-0.8-11.7-1.5-17.5-2c-0.1,0-0.2,0-0.3,0
			c-1.1-0.1-2.2-0.2-3.3-0.3c-0.2,0-0.3,0-0.5,0c-1.1-0.1-2.2-0.2-3.3-0.3c-0.1,0-0.1,0-0.2,0c-4.7-0.4-9.4-0.6-14.2-0.8
			c0,0,0,0,0,0c-1.1,0-2.2-0.1-3.3-0.1c-0.1,0-0.3,0-0.4,0c-1.1,0-2.2-0.1-3.3-0.1c-0.1,0-0.2,0-0.3,0c-5.8-0.1-11.6-0.2-17.4-0.1
			c-0.1,0-0.2,0-0.3,0c-1.1,0-2.2,0-3.3,0.1c-0.1,0-0.3,0-0.4,0c-5.8,0.2-11.6,0.4-17.4,0.8c0,0-0.1,0-0.1,0
			c-1.1,0.1-2.2,0.2-3.3,0.2c-0.1,0-0.3,0-0.4,0c-1.1,0.1-2.2,0.2-3.3,0.3c-0.1,0-0.1,0-0.2,0c-5.8,0.5-11.5,1.1-17.2,1.8
			c-0.1,0-0.2,0-0.3,0c-1.1,0.1-2.2,0.3-3.3,0.4c-0.1,0-0.2,0-0.3,0c-5.7,0.8-11.4,1.7-17.1,2.7c-0.1,0-0.1,0-0.2,0
			c-1.1,0.2-2.2,0.4-3.3,0.6c-0.1,0-0.2,0-0.3,0.1c-6.8,1.3-13.6,2.7-20.4,4.3c-0.1,0-0.2,0-0.3,0.1c-1.1,0.3-2.2,0.5-3.2,0.8
			c-0.1,0-0.1,0-0.2,0c-5.6,1.4-11.2,2.9-16.8,4.5c-0.1,0-0.1,0-0.2,0.1c-1.1,0.3-2.1,0.6-3.2,0.9c-0.1,0-0.2,0.1-0.3,0.1
			c-5.6,1.7-11.2,3.4-16.7,5.3c0,0,0,0-0.1,0c-1.1,0.4-2.1,0.7-3.2,1.1c-0.1,0-0.2,0.1-0.3,0.1c-1.1,0.4-2.1,0.7-3.2,1.1
			c0,0,0,0-0.1,0c-5.5,2-11.1,4-16.6,6.2c-0.1,0-0.2,0.1-0.3,0.1c-1,0.4-2.1,0.8-3.1,1.3c-0.1,0-0.1,0.1-0.2,0.1
			c-5.5,2.2-10.9,4.5-16.3,7c-0.1,0-0.1,0-0.2,0.1c-1,0.5-2.1,0.9-3.1,1.4c-0.1,0-0.2,0.1-0.3,0.1c-6.5,3-12.9,6.1-19.3,9.3
			c-0.1,0-0.2,0.1-0.3,0.1c-1,0.5-2.1,1-3.1,1.6c0,0-0.1,0-0.1,0.1c-5.3,2.8-10.7,5.6-15.9,8.5c-0.1,0-0.2,0.1-0.2,0.1
			c-1,0.6-2,1.1-3,1.7c-0.1,0-0.2,0.1-0.2,0.1c-5.3,3-10.5,6.1-15.7,9.2c0,0-0.1,0.1-0.1,0.1c-1,0.6-2,1.2-3,1.8
			c-0.1,0.1-0.2,0.1-0.3,0.2c-1,0.6-2,1.2-3,1.9c0,0,0,0,0,0c-5.2,3.3-10.4,6.6-15.5,10.1c-0.1,0.1-0.2,0.1-0.3,0.2
			c-1,0.7-1.9,1.3-2.9,2c-0.1,0-0.1,0.1-0.2,0.1c-5.1,3.5-10.2,7-15.2,10.6c-0.1,0.1-0.2,0.1-0.3,0.2c-0.9,0.7-1.9,1.4-2.8,2.1
			c-0.1,0.1-0.2,0.2-0.3,0.2c-4.8,3.5-9.5,7-14.2,10.7c-0.6,0.4-1.1,0.9-1.7,1.3c-0.7,0.5-1.4,1.1-2,1.6c0,0-0.1,0.1-0.1,0.1
			c-1,0.8-2.1,1.6-3.1,2.5c0,0-0.1,0-0.1,0.1c-0.7,0.5-1.4,1.1-2.1,1.6c-0.6,0.5-1.1,0.9-1.7,1.4c-0.7,0.6-1.4,1.1-2.1,1.7
			c-1,0.8-2.1,1.7-3.1,2.5c-0.7,0.6-1.4,1.2-2.1,1.7c-0.6,0.5-1.1,0.9-1.7,1.4c-0.6,0.5-1.3,1-1.9,1.6c-0.1,0.1-0.2,0.2-0.3,0.3
			c-0.1,0.1-0.2,0.2-0.3,0.3c-0.9,0.7-1.8,1.5-2.6,2.2c0,0,0,0-0.1,0.1c-0.7,0.6-1.4,1.2-2,1.7c-0.6,0.5-1.1,1-1.7,1.5
			c-1,0.8-1.9,1.6-2.9,2.5c-0.8,0.7-1.5,1.3-2.3,2c-0.7,0.6-1.4,1.2-2.1,1.8c-0.6,0.5-1.1,1-1.7,1.5c-0.6,0.5-1.2,1-1.7,1.5
			c-0.1,0.1-0.2,0.2-0.3,0.3c-0.3,0.3-0.6,0.6-1,0.9c-0.7,0.6-1.4,1.2-2.1,1.9c-0.7,0.6-1.4,1.2-2,1.9c-0.6,0.5-1.1,1.1-1.7,1.6
			c-1,0.9-2,1.8-3,2.8c-0.7,0.6-1.3,1.2-2,1.9c-0.7,0.6-1.3,1.3-2,1.9c-0.6,0.5-1.2,1.1-1.7,1.6c-0.5,0.5-1.1,1-1.6,1.5
			c-0.1,0.1-0.1,0.1-0.2,0.2c-0.4,0.4-0.8,0.8-1.2,1.2c-0.6,0.6-1.3,1.2-1.9,1.8c-0.7,0.6-1.3,1.3-2,1.9c-0.6,0.6-1.2,1.1-1.7,1.7
			c-1,1-2,2-3,3c-0.6,0.6-1.2,1.2-1.9,1.8c-0.7,0.6-1.3,1.3-2,1.9c-0.6,0.6-1.2,1.2-1.8,1.8c-1,1-2,2-3,3c-0.6,0.6-1.2,1.2-1.8,1.9
			c-0.6,0.7-1.3,1.3-1.9,2c-0.6,0.6-1.2,1.2-1.8,1.9c-0.5,0.5-1,1-1.4,1.5c0,0,0,0-0.1,0.1c-0.5,0.5-0.9,1-1.4,1.5
			c-0.6,0.6-1.2,1.3-1.8,1.9c-0.6,0.7-1.3,1.3-1.9,2c-0.6,0.7-1.2,1.3-1.8,2c-0.9,1-1.9,2-2.8,3c-0.6,0.6-1.2,1.3-1.8,1.9
			c-0.6,0.7-1.2,1.3-1.9,2c-0.6,0.7-1.3,1.4-1.9,2.1c-0.4,0.4-0.7,0.8-1.1,1.2c-0.1,0.1-0.2,0.2-0.3,0.3c-0.4,0.5-0.9,1-1.3,1.4
			c-0.6,0.7-1.2,1.3-1.8,2c-0.6,0.7-1.2,1.4-1.8,2c-0.7,0.7-1.3,1.5-2,2.2c-0.9,1-1.7,2-2.6,3c-0.6,0.7-1.2,1.3-1.8,2
			c-0.6,0.7-1.2,1.4-1.8,2.1c-0.7,0.8-1.4,1.6-2.1,2.5c-0.2,0.3-0.5,0.5-0.7,0.8c-0.1,0.2-0.3,0.3-0.4,0.5c-0.4,0.5-0.9,1-1.3,1.5
			c-0.6,0.7-1.2,1.4-1.7,2c-0.6,0.7-1.2,1.4-1.8,2.1c-0.8,0.9-1.5,1.8-2.3,2.8c-0.7,0.9-1.5,1.8-2.2,2.6c-0.6,0.7-1.2,1.4-1.7,2.1
			c-0.5,0.7-1.1,1.3-1.6,2c0,0-0.1,0.1-0.1,0.1c-0.9,1.1-1.8,2.2-2.7,3.3c-0.2,0.2-0.3,0.4-0.5,0.6c-0.4,0.6-0.9,1.1-1.3,1.7
			c-0.6,0.7-1.2,1.4-1.7,2.1c-0.6,0.7-1.1,1.4-1.7,2.1c-0.9,1.2-1.9,2.4-2.8,3.5c-0.5,0.7-1.1,1.4-1.6,2.1c-0.6,0.7-1.2,1.5-1.7,2.2
			c-0.5,0.6-1,1.3-1.5,1.9c-0.1,0.1-0.1,0.1-0.2,0.2c-0.9,1.2-1.9,2.4-2.8,3.6c-0.1,0.1-0.1,0.2-0.2,0.3c-0.5,0.6-0.9,1.2-1.4,1.8
			c-0.6,0.7-1.1,1.5-1.7,2.2c-0.5,0.7-1.1,1.4-1.6,2.1c-0.9,1.2-1.8,2.4-2.8,3.7c-0.5,0.7-1.1,1.4-1.6,2.1c-0.6,0.8-1.1,1.5-1.7,2.3
			c-0.5,0.6-0.9,1.2-1.4,1.8c-0.1,0.1-0.1,0.2-0.2,0.2c-0.9,1.2-1.8,2.5-2.7,3.7c0,0,0,0.1-0.1,0.1c-0.5,0.7-1,1.3-1.5,2
			c-0.6,0.8-1.2,1.6-1.7,2.4c-0.5,0.7-1,1.4-1.5,2c0,0,0,0,0,0c-0.9,1.3-1.8,2.5-2.7,3.8c-0.5,0.7-1,1.4-1.5,2.1
			c-0.6,0.8-1.2,1.6-1.7,2.5c-0.5,0.6-0.9,1.3-1.4,1.9c0,0-0.1,0.1-0.1,0.1c0,0,0,0,0,0c-0.9,1.3-1.8,2.5-2.7,3.8
			c-0.5,0.7-1,1.4-1.5,2.2c-0.6,0.8-1.2,1.7-1.7,2.5c-0.4,0.6-0.8,1.2-1.2,1.8c-0.2,0.2-0.3,0.5-0.5,0.7c-0.8,1.2-1.6,2.3-2.4,3.5
			c-0.5,0.7-1,1.4-1.5,2.2c-0.6,0.9-1.2,1.8-1.8,2.6c-0.6,0.9-1.2,1.8-1.8,2.7c-0.7,1.1-1.5,2.2-2.2,3.3c-0.5,0.7-1,1.5-1.4,2.2
			c-0.6,0.9-1.2,1.8-1.8,2.7c-0.3,0.5-0.6,1-0.9,1.4c-0.2,0.3-0.4,0.6-0.6,0.9c-0.1,0.1-0.2,0.3-0.2,0.4c-0.7,1.1-1.4,2.1-2.1,3.2
			c-0.5,0.7-0.9,1.5-1.4,2.2c-0.6,1-1.2,1.9-1.8,2.9c-0.6,0.9-1.2,1.9-1.8,2.8c-0.7,1.1-1.3,2.1-2,3.2c-0.5,0.7-0.9,1.5-1.4,2.2
			c-0.6,1-1.2,2-1.9,3c-0.2,0.3-0.4,0.7-0.6,1c-0.2,0.4-0.4,0.7-0.7,1.1c-0.1,0.2-0.3,0.5-0.4,0.7c-0.6,1-1.3,2.1-1.9,3.1
			c-0.4,0.7-0.9,1.5-1.3,2.2c-0.6,1.1-1.3,2.1-1.9,3.2c-0.6,0.9-1.1,1.9-1.7,2.8c-0.6,1-1.2,2.1-1.9,3.1c-0.4,0.7-0.9,1.4-1.3,2.2
			c0,0,0,0,0,0c-0.7,1.1-1.3,2.3-2,3.4c-0.1,0.2-0.2,0.3-0.3,0.5c-0.2,0.4-0.5,0.8-0.7,1.2c-0.2,0.3-0.4,0.7-0.6,1
			c-0.6,1-1.2,2.1-1.8,3.1c-0.4,0.7-0.8,1.5-1.3,2.2c-0.7,1.2-1.4,2.5-2.1,3.7c-0.5,0.8-1,1.7-1.4,2.5c-0.6,1-1.2,2.1-1.8,3.1
			c-0.4,0.7-0.7,1.3-1.1,2c0,0.1-0.1,0.1-0.1,0.2c-0.8,1.4-1.5,2.7-2.3,4.1c-0.2,0.3-0.4,0.6-0.5,1c-0.2,0.4-0.5,0.8-0.7,1.3
			c-0.6,1.1-1.2,2.1-1.7,3.2c-0.4,0.7-0.8,1.4-1.2,2.2c-0.8,1.5-1.6,3-2.4,4.5c-0.3,0.6-0.7,1.3-1,1.9c-0.6,1.1-1.1,2.1-1.7,3.2
			c-0.3,0.6-0.7,1.2-1,1.8c-0.1,0.1-0.1,0.2-0.2,0.3c-0.8,1.5-1.6,3-2.4,4.5c-0.1,0.1-0.1,0.3-0.2,0.4c-0.3,0.5-0.5,1-0.8,1.6
			c-0.6,1.1-1.1,2.2-1.7,3.2c-0.4,0.7-0.7,1.4-1.1,2.1c-0.8,1.5-1.6,3.1-2.4,4.6c-0.3,0.7-0.7,1.3-1,2c-0.6,1.1-1.1,2.2-1.7,3.3
			c-0.3,0.6-0.6,1.2-0.9,1.9c0,0.1-0.1,0.2-0.1,0.2c-0.8,1.5-1.6,3.1-2.3,4.6c0,0.1-0.1,0.1-0.1,0.2c-0.3,0.6-0.6,1.2-0.9,1.8
			c-0.6,1.1-1.1,2.2-1.7,3.3c-0.3,0.6-0.6,1.3-0.9,1.9c0,0,0,0.1-0.1,0.1c-0.8,1.6-1.5,3.1-2.3,4.7c-0.1,0.2-0.2,0.4-0.3,0.6
			c-0.2,0.5-0.5,0.9-0.7,1.4c-0.5,1.1-1.1,2.3-1.6,3.4c-0.3,0.7-0.6,1.3-1,2c-0.8,1.6-1.5,3.2-2.3,4.8c-0.3,0.7-0.6,1.4-1,2
			c-0.5,1.2-1.1,2.3-1.6,3.5c-0.2,0.5-0.5,1-0.7,1.5c-0.1,0.1-0.1,0.3-0.2,0.4c-0.7,1.6-1.5,3.2-2.2,4.8c-0.1,0.2-0.2,0.5-0.3,0.7
			c-0.2,0.5-0.4,0.9-0.6,1.4c-0.5,1.2-1.1,2.4-1.6,3.6c-0.3,0.6-0.6,1.3-0.9,1.9c-0.7,1.6-1.5,3.2-2.2,4.9c-0.3,0.7-0.6,1.4-0.9,2.1
			c-0.5,1.2-1.1,2.4-1.6,3.7c-0.2,0.4-0.3,0.7-0.5,1.1c-0.1,0.2-0.2,0.5-0.3,0.7c-0.7,1.6-1.4,3.3-2.1,4.9c-0.1,0.2-0.2,0.4-0.2,0.5
			c-0.2,0.5-0.4,1-0.6,1.5c-0.5,1.3-1.1,2.5-1.6,3.8c-0.2,0.6-0.5,1.1-0.7,1.7c-0.7,1.7-1.4,3.3-2.1,5c-0.3,0.7-0.6,1.4-0.9,2.1
			c-0.5,1.3-1.1,2.6-1.6,3.9c-0.1,0.2-0.2,0.4-0.2,0.6c-0.1,0.3-0.3,0.7-0.4,1c-0.7,1.7-1.4,3.4-2.1,5c0,0.1-0.1,0.2-0.1,0.3
			c-0.2,0.6-0.5,1.1-0.7,1.7c-0.6,1.4-1.1,2.7-1.6,4.1c-0.2,0.6-0.5,1.2-0.7,1.8c-0.6,1.6-1.3,3.2-1.9,4.8c-0.2,0.6-0.5,1.2-0.7,1.8
			c0,0.1-0.1,0.2-0.1,0.3c-0.6,1.4-1.1,2.9-1.7,4.3c-0.2,0.6-0.5,1.2-0.7,1.9c-0.6,1.5-1.2,3.1-1.8,4.6c0,0,0,0,0,0.1
			c-0.3,0.7-0.5,1.3-0.8,2c-0.6,1.5-1.1,3-1.7,4.5c-0.1,0.3-0.2,0.5-0.3,0.8c-0.1,0.3-0.3,0.7-0.4,1c-0.6,1.5-1.1,3-1.7,4.5
			c-0.2,0.5-0.3,0.9-0.5,1.4c-0.1,0.2-0.2,0.4-0.2,0.6c-0.6,1.6-1.2,3.2-1.8,4.8c-0.1,0.4-0.3,0.8-0.4,1.2c-0.1,0.2-0.1,0.3-0.2,0.5
			c-0.5,1.5-1.1,3-1.6,4.4c-0.2,0.7-0.5,1.3-0.7,2c-0.6,1.7-1.2,3.5-1.8,5.2c-0.2,0.5-0.3,1-0.5,1.5c-0.5,1.5-1,2.9-1.5,4.4
			c-0.1,0.3-0.2,0.6-0.3,0.9c-0.1,0.4-0.2,0.7-0.4,1.1c-0.6,1.8-1.2,3.6-1.8,5.3c-0.1,0.2-0.1,0.3-0.2,0.5c-0.1,0.3-0.2,0.6-0.3,1
			c-0.5,1.5-1,2.9-1.5,4.4c-0.2,0.6-0.4,1.3-0.6,1.9c-0.6,1.8-1.2,3.6-1.8,5.4c-0.2,0.5-0.3,1-0.5,1.5c-0.5,1.4-0.9,2.9-1.4,4.3
			c-0.2,0.6-0.4,1.3-0.6,1.9c-0.6,1.8-1.2,3.6-1.7,5.4c0,0.1,0,0.1-0.1,0.2c-0.1,0.5-0.3,0.9-0.4,1.4c-0.5,1.4-0.9,2.9-1.4,4.3
			c-0.2,0.5-0.3,1-0.5,1.5c0,0.1-0.1,0.2-0.1,0.3c-0.6,1.8-1.1,3.6-1.7,5.4c-0.1,0.5-0.3,0.9-0.4,1.4c0,0.1,0,0.1-0.1,0.2
			c-0.4,1.5-0.9,2.9-1.3,4.4c-0.1,0.2-0.1,0.4-0.2,0.6c-0.1,0.4-0.2,0.8-0.4,1.2c-0.5,1.8-1.1,3.7-1.6,5.5c-0.2,0.6-0.3,1.1-0.5,1.7
			c-0.4,1.5-0.9,2.9-1.3,4.4c-0.1,0.4-0.2,0.7-0.3,1.1c-0.1,0.2-0.1,0.4-0.2,0.7c-0.5,1.8-1.1,3.7-1.6,5.5c-0.1,0.4-0.2,0.7-0.3,1.1
			c-0.1,0.2-0.1,0.4-0.2,0.6c-0.4,1.5-0.8,3-1.2,4.4c0,0,0,0,0,0c-0.2,0.6-0.3,1.1-0.5,1.7c-0.5,1.9-1,3.7-1.5,5.6
			c-0.2,0.6-0.3,1.2-0.5,1.7c-0.4,1.5-0.8,3-1.2,4.5c-0.1,0.2-0.1,0.4-0.2,0.6c-0.1,0.3-0.2,0.7-0.3,1c-0.5,1.9-1,3.7-1.5,5.6
			c-0.1,0.3-0.1,0.5-0.2,0.8c-0.1,0.3-0.2,0.6-0.2,0.9c-0.4,1.5-0.8,3-1.2,4.6c-0.1,0.5-0.3,1-0.4,1.5c-0.5,1.9-0.9,3.8-1.4,5.6
			c-0.1,0.4-0.2,0.8-0.3,1.2c0,0.2-0.1,0.4-0.1,0.5c-0.4,1.6-0.8,3.1-1.1,4.7c-0.1,0.5-0.2,0.9-0.3,1.4c-0.5,1.9-0.9,3.8-1.4,5.7
			c0,0.2-0.1,0.3-0.1,0.5c-0.1,0.4-0.2,0.9-0.3,1.3c-0.4,1.6-0.7,3.2-1.1,4.8c-0.1,0.4-0.2,0.8-0.3,1.2c0,0,0,0.1,0,0.1
			c-0.4,1.9-0.9,3.8-1.3,5.7c0,0,0,0.1,0,0.1c-0.1,0.5-0.2,1.1-0.4,1.6c-0.4,1.6-0.7,3.3-1.1,4.9c-0.1,0.4-0.2,0.8-0.3,1.2
			c-0.4,1.9-0.8,3.8-1.3,5.8c0,0,0,0.1,0,0.1c-0.1,0.5-0.2,1.1-0.4,1.6c-0.4,1.7-0.7,3.4-1.1,5.1c0,0.2-0.1,0.4-0.1,0.5
			c0,0.1-0.1,0.3-0.1,0.4c-0.4,1.9-0.8,3.9-1.2,5.8c-0.1,0.6-0.2,1.2-0.4,1.8c-0.4,1.8-0.7,3.5-1.1,5.3c-0.1,0.3-0.1,0.5-0.2,0.8
			c-0.4,1.9-0.8,3.9-1.1,5.9c-0.1,0.6-0.2,1.2-0.3,1.7c-0.4,1.8-0.7,3.7-1,5.5c0,0.2-0.1,0.5-0.1,0.7c-0.4,1.9-0.7,3.8-1,5.7
			c-0.1,0.6-0.2,1.1-0.3,1.7c-0.4,2-0.7,3.9-1,5.9c0,0.2-0.1,0.3-0.1,0.5c0,0,0,0.1,0,0.1c-0.3,1.8-0.6,3.7-1,5.5
			c-0.1,0.5-0.2,1-0.3,1.6c0,0,0,0.1,0,0.1c-0.3,2-0.7,3.9-1,5.9c0,0.2-0.1,0.5-0.1,0.7c-0.3,1.8-0.6,3.6-0.9,5.4
			c-0.1,0.5-0.2,1-0.2,1.4c0,0.1,0,0.2,0,0.2c-0.3,2-0.6,3.9-0.9,5.9c0,0,0,0.1,0,0.1c0,0.3-0.1,0.5-0.1,0.8
			c-0.3,1.8-0.5,3.5-0.8,5.3c-0.1,0.4-0.1,0.7-0.2,1.1c0,0.2-0.1,0.4-0.1,0.6c-0.3,2-0.6,4-0.9,5.9c0,0.3-0.1,0.7-0.1,1
			c-0.2,1.7-0.5,3.5-0.7,5.2c0,0.2-0.1,0.5-0.1,0.7c0,0.3-0.1,0.6-0.1,0.9c-0.3,2-0.5,4-0.8,5.9c0,0.4-0.1,0.7-0.1,1.1
			c-0.2,1.7-0.4,3.4-0.7,5.1c0,0.2,0,0.4-0.1,0.6c0,0.3-0.1,0.7-0.1,1c-0.2,2-0.5,4-0.7,5.9c0,0.4-0.1,0.8-0.1,1.2c0,0,0,0,0,0
			c-0.2,1.7-0.4,3.4-0.6,5.1c0,0,0,0.1,0,0.1c-0.1,0.5-0.1,0.9-0.2,1.4c-0.2,2-0.4,4-0.7,6c0,0,0,0.1,0,0.1c0,0.4-0.1,0.8-0.1,1.2
			c-0.2,1.7-0.4,3.4-0.5,5.1c0,0.5-0.1,1-0.1,1.5c-0.2,2-0.4,4-0.6,6c0,0.3-0.1,0.5-0.1,0.8c0,0.2,0,0.3,0,0.5
			c-0.2,1.7-0.3,3.4-0.5,5.1c0,0.5-0.1,0.9-0.1,1.4c-0.2,2-0.4,4-0.5,6c0,0.5-0.1,0.9-0.1,1.4c-0.1,1.7-0.3,3.4-0.4,5.1
			c0,0.4-0.1,0.9-0.1,1.3c-0.2,2-0.3,4-0.4,6c0,0.1,0,0.3,0,0.4c0,0.3,0,0.7-0.1,1c-0.1,1.7-0.2,3.4-0.4,5.2c0,0.3,0,0.7-0.1,1
			c0,0.1,0,0.2,0,0.2c-0.1,2-0.3,4-0.4,6c0,0.5-0.1,1-0.1,1.4c-0.1,1.7-0.2,3.5-0.3,5.2c0,0.4,0,0.7-0.1,1.1c-0.1,2-0.2,4-0.3,6
			c0,0,0,0,0,0.1c0,0.5,0,0.9-0.1,1.4c-0.1,1.8-0.2,3.5-0.2,5.3c0,0.1,0,0.3,0,0.4c0,0.2,0,0.4,0,0.6c-0.1,2-0.2,4-0.2,6
			c0,0.5,0,1-0.1,1.5c-0.1,1.8-0.1,3.6-0.2,5.4c0,0.3,0,0.6,0,0.9c-0.1,2-0.1,4-0.2,6c0,0.5,0,1,0,1.5c0,1.8-0.1,3.7-0.1,5.5
			c0,0.2,0,0.4,0,0.7c0,2-0.1,4-0.1,6.1c0,0.5,0,1,0,1.5c0,1.9,0,3.8-0.1,5.7c0,0.2,0,0.3,0,0.5c0,2,0,4,0,6.1c0,0.4,0,0.7,0,1.1
			c0,0.1,0,0.3,0,0.4c0,2,0,4,0,5.9c0,0.1,0,0.1,0,0.2c0,2,0,4.1,0.1,6.1c0,0.4,0,0.7,0,1.1c0,0.1,0,0.3,0,0.4c0,2,0.1,4.1,0.1,6.1
			c0,0,0,0,0,0c0,0,0,0,0,0c0,2,0.1,4,0.1,6c0,0.2,0,0.4,0,0.6c0,0.3,0,0.6,0,0.9c0.1,2,0.1,4.1,0.2,6.1c0,0.1,0,0.2,0,0.3
			c0.1,1.9,0.1,3.9,0.2,5.8c0,0.2,0,0.3,0,0.5c0,0.3,0,0.6,0,0.9c0.1,2,0.2,4,0.2,6.1c0,0.2,0,0.3,0,0.5c0.1,1.9,0.2,3.8,0.3,5.6
			c0,0.5,0,1,0.1,1.4c0.1,2,0.2,4,0.3,6c0,0.2,0,0.5,0,0.7c0.1,1.8,0.2,3.7,0.3,5.5c0,0,0,0,0,0c0,0.5,0.1,0.9,0.1,1.4
			c0.1,2,0.3,4,0.4,6c0,0.3,0,0.5,0.1,0.8c0.1,1.8,0.3,3.6,0.4,5.4c0,0.5,0.1,0.9,0.1,1.4c0.2,2,0.3,4,0.5,6c0,0.2,0,0.5,0.1,0.7
			c0,0.1,0,0.2,0,0.2c0.1,1.8,0.3,3.5,0.5,5.3c0,0.4,0.1,0.9,0.1,1.3c0,0,0,0,0,0c0.2,2,0.4,4,0.6,6c0,0.3,0.1,0.7,0.1,1
			c0.2,1.7,0.3,3.5,0.5,5.2c0,0.4,0.1,0.9,0.1,1.3c0.2,2,0.4,4,0.6,5.9c0,0.1,0,0.2,0,0.3c0,0.3,0.1,0.5,0.1,0.8
			c0.2,1.7,0.4,3.5,0.6,5.2c0,0.3,0.1,0.6,0.1,0.8c0,0.1,0,0.3,0,0.4c0.2,2,0.5,4,0.7,5.9c0,0.4,0.1,0.8,0.1,1.2
			c0.2,1.7,0.4,3.4,0.7,5.2c0.1,0.4,0.1,0.8,0.2,1.2c0.3,2,0.5,3.9,0.8,5.9c0.1,0.4,0.1,0.8,0.2,1.2c0.2,1.7,0.5,3.4,0.7,5.2
			c0,0.1,0,0.2,0,0.3c0,0.3,0.1,0.5,0.1,0.8c0.3,2,0.6,3.9,0.9,5.9c0.1,0.4,0.1,0.8,0.2,1.3c0.3,1.7,0.5,3.5,0.8,5.2
			c0.1,0.3,0.1,0.7,0.2,1c0.3,2,0.6,3.9,1,5.9c0.1,0.4,0.1,0.8,0.2,1.2c0,0,0,0.1,0,0.1c0.3,1.7,0.6,3.5,0.9,5.2
			c0.1,0.3,0.1,0.6,0.2,0.9c0.3,2,0.7,3.9,1,5.9c0.1,0.4,0.2,0.8,0.2,1.3c0,0,0,0,0,0.1c0.3,1.8,0.6,3.5,1,5.3
			c0,0.2,0.1,0.4,0.1,0.6c0,0,0,0.1,0,0.1c0.4,1.9,0.7,3.9,1.1,5.8c0,0.2,0.1,0.4,0.1,0.6c0,0.2,0.1,0.5,0.1,0.7
			c0.4,1.8,0.7,3.6,1.1,5.4c0,0.2,0.1,0.4,0.1,0.6c0.4,1.9,0.8,3.9,1.2,5.8c0.1,0.3,0.1,0.5,0.2,0.8c0,0.2,0.1,0.4,0.1,0.6
			c0.4,1.8,0.8,3.7,1.2,5.5c0,0.1,0.1,0.2,0.1,0.4c0,0,0,0.1,0,0.1c0.4,1.9,0.9,3.9,1.3,5.8c0.1,0.5,0.2,0.9,0.3,1.4
			c0.4,1.9,0.9,3.8,1.3,5.6c0,0.1,0,0.1,0,0.2c0.5,1.9,0.9,3.9,1.4,5.8c0,0.1,0.1,0.2,0.1,0.3c0.1,0.3,0.2,0.7,0.3,1
			c0.9,3.9,1.9,7.7,2.9,11.6c0.1,0.5,0.2,0.9,0.4,1.4c0.5,1.9,1,3.8,1.5,5.8c0,0,0,0.1,0,0.1c0.5,1.9,1,3.7,1.5,5.6
			c0.1,0.4,0.2,0.9,0.4,1.3c0.5,1.9,1.1,3.8,1.6,5.7c0,0.1,0.1,0.2,0.1,0.3c0.5,1.8,1,3.6,1.6,5.4c0.1,0.4,0.3,0.9,0.4,1.3
			c0.6,1.9,1.1,3.8,1.7,5.7c0.1,0.2,0.1,0.4,0.2,0.5c0.5,1.7,1.1,3.5,1.6,5.2c0.1,0.4,0.2,0.8,0.4,1.2c0,0,0,0.1,0,0.1
			c0.6,1.9,1.2,3.7,1.8,5.6c0.1,0.2,0.1,0.5,0.2,0.7c0.5,1.7,1.1,3.4,1.6,5.1c0.1,0.4,0.3,0.8,0.4,1.3c0.6,1.9,1.2,3.7,1.9,5.6
			c0,0.1,0,0.1,0.1,0.2c0.1,0.2,0.1,0.4,0.2,0.6c0.6,1.7,1.1,3.3,1.7,5c0.1,0.2,0.2,0.5,0.3,0.7c0.1,0.2,0.1,0.3,0.2,0.5
			c0.6,1.8,1.3,3.7,1.9,5.5c0.1,0.3,0.2,0.6,0.3,0.9c0.6,1.6,1.2,3.2,1.8,4.9c0.1,0.4,0.3,0.8,0.4,1.2c0.7,1.8,1.3,3.7,2,5.5
			c0.1,0.3,0.2,0.6,0.4,1c0.6,1.6,1.2,3.2,1.8,4.8c0,0.1,0.1,0.2,0.1,0.3c0.1,0.3,0.2,0.6,0.3,0.9c0.7,1.8,1.4,3.6,2.1,5.4
			c0.1,0.3,0.3,0.7,0.4,1c0.6,1.6,1.3,3.2,1.9,4.7c0.1,0.2,0.2,0.4,0.3,0.7c0.1,0.1,0.1,0.3,0.2,0.4c0.7,1.8,1.5,3.6,2.2,5.4
			c0.1,0.2,0.2,0.4,0.3,0.6c0.1,0.2,0.1,0.3,0.2,0.5c0.6,1.6,1.3,3.1,2,4.7c0.1,0.3,0.3,0.7,0.4,1c0.8,1.8,1.5,3.6,2.3,5.3
			c0.1,0.3,0.3,0.6,0.4,0.9c0,0.1,0.1,0.2,0.1,0.2c0.7,1.6,1.4,3.1,2.1,4.7c0.1,0.3,0.3,0.6,0.4,0.9c0.8,1.8,1.6,3.5,2.4,5.3
			c0.2,0.4,0.4,0.8,0.5,1.2c0.7,1.6,1.4,3.1,2.1,4.7c0.1,0.3,0.3,0.6,0.4,0.8c0.8,1.8,1.6,3.5,2.5,5.3c0.1,0.2,0.2,0.3,0.2,0.5
			c0.1,0.2,0.2,0.5,0.3,0.7c0.7,1.6,1.5,3.1,2.3,4.7c0.1,0.2,0.2,0.4,0.3,0.6c0,0.1,0.1,0.1,0.1,0.2c0.9,1.7,1.7,3.5,2.6,5.2
			c0.2,0.4,0.4,0.8,0.6,1.2c0.8,1.6,1.6,3.1,2.4,4.7c0.1,0.2,0.2,0.4,0.3,0.6c0.9,1.7,1.8,3.5,2.7,5.2c0,0,0.1,0.1,0.1,0.1
			c0.2,0.4,0.4,0.7,0.6,1.1c0.8,1.6,1.7,3.2,2.5,4.8c0,0,0,0,0,0c0.1,0.2,0.2,0.3,0.2,0.5c0.9,1.7,1.8,3.4,2.8,5.1
			c0.2,0.4,0.4,0.8,0.7,1.2c0.9,1.6,1.8,3.3,2.7,4.9c0.1,0.1,0.1,0.2,0.2,0.3c0.9,1.7,1.9,3.4,2.9,5.1c0.2,0.4,0.5,0.8,0.7,1.2
			c1,1.7,1.9,3.3,2.9,5c0,0,0,0.1,0.1,0.1c1,1.7,2,3.4,3,5.1c0.2,0.4,0.5,0.8,0.7,1.2c1,1.7,2,3.4,3,5c0,0,0,0,0,0.1
			c1,1.7,2,3.3,3,5c0.2,0.3,0.4,0.6,0.6,1c0,0.1,0.1,0.2,0.1,0.2c1,1.7,2.1,3.3,3.1,5c0.1,0.1,0.1,0.2,0.2,0.3c1,1.6,2,3.1,3,4.7
			c0.3,0.4,0.5,0.8,0.8,1.2c1.1,1.6,2.1,3.3,3.2,4.9c0,0,0,0.1,0.1,0.1c0.1,0.1,0.2,0.2,0.2,0.4c1,1.5,2,3,3,4.5
			c0.1,0.2,0.3,0.4,0.4,0.6c0.1,0.2,0.3,0.4,0.4,0.6c1.1,1.6,2.2,3.2,3.3,4.8c0.1,0.2,0.3,0.4,0.4,0.6c1,1.5,2,2.9,3,4.4
			c0.2,0.2,0.3,0.4,0.5,0.7c0.1,0.2,0.2,0.3,0.3,0.5c1.1,1.6,2.2,3.2,3.4,4.8c0.1,0.1,0.2,0.3,0.3,0.4c0.1,0.1,0.1,0.2,0.2,0.2
			c1,1.4,2,2.8,3.1,4.2c0,0.1,0.1,0.1,0.1,0.2c0.2,0.3,0.5,0.6,0.7,0.9c1.1,1.6,2.3,3.1,3.5,4.7c0.2,0.3,0.4,0.5,0.6,0.8
			c1,1.4,2.1,2.7,3.1,4.1c0,0,0.1,0.1,0.1,0.1c0.2,0.3,0.5,0.6,0.7,0.9c1.2,1.5,2.4,3.1,3.6,4.6c0.2,0.3,0.4,0.6,0.6,0.8
			c1,1.3,2.1,2.7,3.1,4c0.3,0.3,0.5,0.7,0.8,1c1.2,1.5,2.4,3,3.7,4.6c0.2,0.2,0.3,0.4,0.5,0.6c0.1,0.1,0.1,0.2,0.2,0.3
			c1.1,1.3,2.1,2.6,3.2,3.9c0.3,0.3,0.5,0.6,0.8,1c1.2,1.5,2.5,3,3.7,4.5c0.3,0.3,0.5,0.6,0.8,0.9c1.1,1.3,2.2,2.6,3.3,3.9
			c0.3,0.3,0.5,0.6,0.8,0.9c1.3,1.5,2.6,3,3.8,4.4c0.1,0.1,0.2,0.2,0.3,0.3c0.2,0.2,0.4,0.4,0.6,0.6c1.1,1.3,2.3,2.6,3.4,3.8
			c0.2,0.2,0.4,0.4,0.6,0.6c0.1,0.1,0.1,0.1,0.2,0.2c1.3,1.5,2.6,2.9,3.9,4.4c0.3,0.3,0.6,0.7,0.9,1c1.2,1.3,2.3,2.5,3.5,3.8
			c0.2,0.3,0.5,0.5,0.7,0.8c1.3,1.4,2.7,2.9,4.1,4.3c0,0,0,0,0,0c0.3,0.3,0.6,0.6,0.9,1c1.2,1.3,2.4,2.5,3.6,3.8
			c0.1,0.1,0.1,0.1,0.2,0.2c0.2,0.2,0.3,0.3,0.5,0.5c1.4,1.4,2.8,2.8,4.2,4.2c0.3,0.3,0.7,0.7,1,1c1.3,1.3,2.5,2.5,3.8,3.8
			c0.2,0.2,0.4,0.4,0.6,0.6c1.4,1.4,2.8,2.8,4.3,4.2c0.3,0.3,0.7,0.7,1,1c1.3,1.3,2.6,2.5,3.9,3.8c0.2,0.2,0.3,0.3,0.5,0.5
			c1.5,1.4,2.9,2.8,4.4,4.1c0.4,0.3,0.7,0.7,1.1,1c1.4,1.3,2.8,2.6,4.1,3.8c0.1,0.1,0.2,0.2,0.4,0.3c1.5,1.4,3,2.7,4.5,4.1
			c0.3,0.2,0.5,0.5,0.8,0.7c0.1,0.1,0.2,0.2,0.3,0.3c1.5,1.3,2.9,2.6,4.4,3.9c0.1,0.1,0.1,0.1,0.2,0.2c1.5,1.3,3.1,2.7,4.6,4
			c0.3,0.2,0.5,0.4,0.8,0.7c0.1,0.1,0.2,0.2,0.4,0.3c1.6,1.3,3.1,2.7,4.7,4c2.9,2.5,5.8,4.9,8.8,7.3
			c91.6,74.2,204.3,119.9,323,138.5l0,0l0,0c0,0,19.3-9.1,28.6-14.5l711.3-410.7c35.2-20.3,65.1-47.4,88.3-79.1
			c79.6-328.4-57.4-730.1-249.6-982.5c0,0,0,0,0,0c-1.2-1.6-2.5-3.2-3.7-4.8C5690.3,1501.6,5689.9,1501.1,5689.6,1500.6z"/>
	</g>
	<g>
		<path class="st0" d="M1236.5,3236.1c8.8,0,13.2,4.4,13.2,13.2v58.8c0,9.2-4.4,13.8-13.2,13.8h-267c-15.6,0-28.5,1.3-38.7,3.9
			c-10.2,2.6-18.3,7-24.3,13.2c-6,6.2-10.3,14.5-12.9,24.9c-2.6,10.4-3.9,23.6-3.9,39.6v85.2c0,16,1.3,29.3,3.9,39.9
			c2.6,10.6,6.9,19,12.9,25.2c6,6.2,14.1,10.6,24.3,13.2c10.2,2.6,23.1,3.9,38.7,3.9h267c8.8,0,13.2,4.4,13.2,13.2v58.8
			c0,8.8-4.4,13.2-13.2,13.2H965.9c-30.4,0-56.2-2.8-77.4-8.4c-21.2-5.6-38.5-14.7-51.9-27.3c-13.4-12.6-23.2-29-29.4-49.2
			c-6.2-20.2-9.3-44.7-9.3-73.5v-103.2c0-28.8,3.1-53.2,9.3-73.2c6.2-20,16-36.3,29.4-48.9c13.4-12.6,30.7-21.8,51.9-27.6
			c21.2-5.8,47-8.7,77.4-8.7H1236.5z"/>
		<path class="st0" d="M1654.1,3236.1c46,0,79,10.4,99,31.2c20,20.8,30,51.6,30,92.4v34.2c0,34.4-7,61.6-21,81.6
			c-14,20-36.8,32.8-68.4,38.4l102.6,127.2c2,2,2.6,5,1.8,9c-0.8,4-4,6-9.6,6h-77.4c-5.2,0-8.8-0.6-10.8-1.8c-2-1.2-4-3.2-6-6
			l-94.8-124.8h-193.8v119.4c0,8.8-4.4,13.2-13.2,13.2h-64.8c-9.2,0-13.8-4.4-13.8-13.2v-388.8c0-12,6-18,18-18H1654.1z
			 M1405.7,3450.3h229.8c20.4,0,34.8-4.4,43.2-13.2c8.4-8.8,12.6-22.2,12.6-40.2v-25.2c0-18-4.2-31.4-12.6-40.2
			c-8.4-8.8-22.8-13.2-43.2-13.2h-222c-5.2,0-7.8,2.4-7.8,7.2V3450.3z"/>
		<path class="st0" d="M1878.5,3236.1c6.4,0,11.2,2.4,14.4,7.2l160.2,216.6l161.4-216.6c3.2-4.8,8-7.2,14.4-7.2h78.6
			c3.2,0,5.4,1.3,6.6,3.9c1.2,2.6,0.8,5.3-1.2,8.1l-215.4,279.6v115.2c0,8.8-4.4,13.2-13.2,13.2h-64.8c-9.2,0-13.8-4.4-13.8-13.2
			v-115.2l-213-279.6c-2-2.8-2.5-5.5-1.5-8.1c1-2.6,3.3-3.9,6.9-3.9H1878.5z"/>
		<path class="st0" d="M2701.1,3236.1c46,0,79,10.4,99,31.2c20,20.8,30,51.6,30,92.4v44.4c0,40.8-10,71.6-30,92.4
			c-20,20.8-53,31.2-99,31.2h-248.4v115.2c0,8.8-4.4,13.2-13.2,13.2h-64.8c-9.2,0-13.8-4.4-13.8-13.2v-388.8c0-12,6-18,18-18H2701.1
			z M2452.7,3448.5h229.8c20.4,0,34.8-4.4,43.2-13.2c8.4-8.8,12.6-22.2,12.6-40.2v-22.8c0-18-4.2-31.4-12.6-40.2
			c-8.4-8.8-22.8-13.2-43.2-13.2h-222c-5.2,0-7.8,2.4-7.8,7.2V3448.5z"/>
		<path class="st0" d="M3346.1,3236.1c9.2,0,13.8,4.4,13.8,13.2v58.8c0,9.2-4.6,13.8-13.8,13.8h-188.4v321c0,8.8-4.4,13.2-13.2,13.2
			h-65.4c-8.8,0-13.2-4.4-13.2-13.2v-321h-188.4c-9.2,0-13.8-4.6-13.8-13.8v-58.8c0-8.8,4.6-13.2,13.8-13.2H3346.1z"/>
		<path class="st0" d="M3749.9,3236.1c30.4,0,56.3,2.9,77.7,8.7c21.4,5.8,38.8,15,52.2,27.6c13.4,12.6,23.1,28.9,29.1,48.9
			c6,20,9,44.4,9,73.2v103.2c0,28.8-3,53.3-9,73.5c-6,20.2-15.7,36.6-29.1,49.2c-13.4,12.6-30.8,21.7-52.2,27.3
			c-21.4,5.6-47.3,8.4-77.7,8.4h-185.4c-30.4,0-56.2-2.8-77.4-8.4c-21.2-5.6-38.5-14.7-51.9-27.3c-13.4-12.6-23.2-29-29.4-49.2
			c-6.2-20.2-9.3-44.7-9.3-73.5v-103.2c0-28.8,3.1-53.2,9.3-73.2c6.2-20,16-36.3,29.4-48.9c13.4-12.6,30.7-21.8,51.9-27.6
			c21.2-5.8,47-8.7,77.4-8.7H3749.9z M3488.3,3491.1c0,15.6,1.3,28.7,3.9,39.3c2.6,10.6,6.9,19,12.9,25.2c6,6.2,14.1,10.6,24.3,13.2
			c10.2,2.6,23.1,3.9,38.7,3.9h178.2c15.6,0,28.5-1.3,38.7-3.9c10.2-2.6,18.3-7,24.3-13.2c6-6.2,10.3-14.6,12.9-25.2
			c2.6-10.6,3.9-23.7,3.9-39.3v-90c0-15.6-1.3-28.7-3.9-39.3c-2.6-10.6-6.9-19-12.9-25.2c-6-6.2-14.1-10.6-24.3-13.2
			c-10.2-2.6-23.1-3.9-38.7-3.9h-178.2c-15.6,0-28.5,1.3-38.7,3.9c-10.2,2.6-18.3,7-24.3,13.2c-6,6.2-10.3,14.6-12.9,25.2
			c-2.6,10.6-3.9,23.7-3.9,39.3V3491.1z"/>
		<path class="st1" d="M4355.9,3236.1c41.2,0,70.5,8.2,87.9,24.6c17.4,16.4,26.1,41.2,26.1,74.4v28.8c0,33.6-12.8,59-38.4,76.2
			c27.6,16,41.4,41.8,41.4,77.4v34.8c0,16-1.8,30.4-5.4,43.2c-3.6,12.8-9.5,23.7-17.7,32.7c-8.2,9-19.1,15.9-32.7,20.7
			c-13.6,4.8-30.4,7.2-50.4,7.2h-356.4c-12,0-18-6-18-18v-384c0-12,6-18,18-18H4355.9z M4084.1,3410.7h246c20,0,33.6-3,40.8-9
			c7.2-6,10.8-14.8,10.8-26.4v-20.4c0-12.4-3.5-21.5-10.5-27.3c-7-5.8-18.3-8.7-33.9-8.7h-245.4c-5.2,0-7.8,2.6-7.8,7.8V3410.7z
			 M4084.1,3476.1v89.4c0,5.2,2.6,7.8,7.8,7.8h246c16,0,27.4-2.9,34.2-8.7c6.8-5.8,10.2-15.1,10.2-27.9v-22.8
			c0-12.4-3.7-21.8-11.1-28.2c-7.4-6.4-21.1-9.6-41.1-9.6H4084.1z"/>
		<path class="st1" d="M4883.9,3236.1c46,0,79,10.4,99,31.2c20,20.8,30,51.6,30,92.4v34.2c0,34.4-7,61.6-21,81.6
			c-14,20-36.8,32.8-68.4,38.4l102.6,127.2c2,2,2.6,5,1.8,9c-0.8,4-4,6-9.6,6h-77.4c-5.2,0-8.8-0.6-10.8-1.8c-2-1.2-4-3.2-6-6
			l-94.8-124.8h-193.8v119.4c0,8.8-4.4,13.2-13.2,13.2h-64.8c-9.2,0-13.8-4.4-13.8-13.2v-388.8c0-12,6-18,18-18H4883.9z
			 M4635.5,3450.3h229.8c20.4,0,34.8-4.4,43.2-13.2c8.4-8.8,12.6-22.2,12.6-40.2v-25.2c0-18-4.2-31.4-12.6-40.2
			c-8.4-8.8-22.8-13.2-43.2-13.2h-222c-5.2,0-7.8,2.4-7.8,7.2V3450.3z"/>
		<path class="st1" d="M5503.1,3236.1c9.2,0,13.8,4.4,13.8,13.2v57c0,8.8-4.6,13.2-13.8,13.2h-262.2c-15.6,0-28.5,1.3-38.7,3.9
			c-10.2,2.6-18.4,7-24.6,13.2c-6.2,6.2-10.5,14.6-12.9,25.2c-2.4,10.6-3.6,23.7-3.6,39.3v6h339c8.8,0,13.2,4.4,13.2,13.2v47.4
			c0,8.8-4.4,13.2-13.2,13.2h-339v10.2c0,15.6,1.2,28.7,3.6,39.3c2.4,10.6,6.7,19,12.9,25.2c6.2,6.2,14.4,10.6,24.6,13.2
			c10.2,2.6,23.1,3.9,38.7,3.9h262.2c9.2,0,13.8,4.4,13.8,13.2v57c0,8.8-4.6,13.2-13.8,13.2h-264c-30.4,0-56.2-2.8-77.4-8.4
			c-21.2-5.6-38.5-14.7-51.9-27.3c-13.4-12.6-23.2-29-29.4-49.2c-6.2-20.2-9.3-44.7-9.3-73.5v-103.2c0-28.8,3.1-53.2,9.3-73.2
			c6.2-20,16-36.3,29.4-48.9c13.4-12.6,30.7-21.8,51.9-27.6c21.2-5.8,47-8.7,77.4-8.7H5503.1z"/>
		<path class="st1" d="M6013.1,3236.1c9.2,0,13.8,4.4,13.8,13.2v57c0,8.8-4.6,13.2-13.8,13.2h-262.2c-15.6,0-28.5,1.3-38.7,3.9
			c-10.2,2.6-18.4,7-24.6,13.2c-6.2,6.2-10.5,14.6-12.9,25.2c-2.4,10.6-3.6,23.7-3.6,39.3v6h339c8.8,0,13.2,4.4,13.2,13.2v47.4
			c0,8.8-4.4,13.2-13.2,13.2h-339v10.2c0,15.6,1.2,28.7,3.6,39.3c2.4,10.6,6.7,19,12.9,25.2c6.2,6.2,14.4,10.6,24.6,13.2
			c10.2,2.6,23.1,3.9,38.7,3.9h262.2c9.2,0,13.8,4.4,13.8,13.2v57c0,8.8-4.6,13.2-13.8,13.2h-264c-30.4,0-56.2-2.8-77.4-8.4
			c-21.2-5.6-38.5-14.7-51.9-27.3c-13.4-12.6-23.2-29-29.4-49.2c-6.2-20.2-9.3-44.7-9.3-73.5v-103.2c0-28.8,3.1-53.2,9.3-73.2
			c6.2-20,16-36.3,29.4-48.9c13.4-12.6,30.7-21.8,51.9-27.6c21.2-5.8,47-8.7,77.4-8.7H6013.1z"/>
		<path class="st1" d="M6394.7,3236.1c32.4,0,60.2,3.3,83.4,9.9c23.2,6.6,42.2,16.8,57,30.6c14.8,13.8,25.7,31.4,32.7,52.8
			c7,21.4,10.5,46.7,10.5,75.9v81.6c0,29.2-3.5,54.5-10.5,75.9c-7,21.4-17.9,39-32.7,52.8c-14.8,13.8-33.8,24-57,30.6
			c-23.2,6.6-51,9.9-83.4,9.9h-280.8c-12,0-18-6-18-18v-384c0-12,6-18,18-18H6394.7z M6187.7,3564.9c0,5.2,2.6,7.8,7.8,7.8h196.8
			c17.6,0,32.4-1.6,44.4-4.8c12-3.2,21.7-8.4,29.1-15.6c7.4-7.2,12.7-16.8,15.9-28.8c3.2-12,4.8-26.8,4.8-44.4v-66
			c0-17.6-1.6-32.4-4.8-44.4c-3.2-12-8.5-21.6-15.9-28.8c-7.4-7.2-17.1-12.4-29.1-15.6c-12-3.2-26.8-4.8-44.4-4.8h-196.8
			c-5.2,0-7.8,2.8-7.8,8.4V3564.9z"/>
		<path class="st1" d="M6895.7,3236.1c15.2,0,28,3.1,38.4,9.3c10.4,6.2,20.6,18.3,30.6,36.3l198.6,360.6c2,4,2.5,7.3,1.5,9.9
			c-1,2.6-3.9,3.9-8.7,3.9h-76.2c-6.8,0-11.4-2.6-13.8-7.8l-42.6-77.4h-282l-41.4,77.4c-2.8,5.2-7.4,7.8-13.8,7.8h-78
			c-5.2,0-8.3-1.3-9.3-3.9c-1-2.6-0.5-5.9,1.5-9.9l196.8-360.6c10-18,19.8-30.1,29.4-36.3c9.6-6.2,20.8-9.3,33.6-9.3H6895.7z
			 M6779.3,3501.3h206.4l-95.4-175.8c-1.6-2.8-3.8-4.2-6.6-4.2h-3.6c-2.8,0-5,1.4-6.6,4.2L6779.3,3501.3z"/>
		<path class="st1" d="M7577.9,3236.1c41.2,0,70.5,8.2,87.9,24.6c17.4,16.4,26.1,41.2,26.1,74.4v28.8c0,33.6-12.8,59-38.4,76.2
			c27.6,16,41.4,41.8,41.4,77.4v34.8c0,16-1.8,30.4-5.4,43.2c-3.6,12.8-9.5,23.7-17.7,32.7c-8.2,9-19.1,15.9-32.7,20.7
			c-13.6,4.8-30.4,7.2-50.4,7.2h-356.4c-12,0-18-6-18-18v-384c0-12,6-18,18-18H7577.9z M7306.1,3410.7h246c20,0,33.6-3,40.8-9
			s10.8-14.8,10.8-26.4v-20.4c0-12.4-3.5-21.5-10.5-27.3c-7-5.8-18.3-8.7-33.9-8.7h-245.4c-5.2,0-7.8,2.6-7.8,7.8V3410.7z
			 M7306.1,3476.1v89.4c0,5.2,2.6,7.8,7.8,7.8h246c16,0,27.4-2.9,34.2-8.7c6.8-5.8,10.2-15.1,10.2-27.9v-22.8
			c0-12.4-3.7-21.8-11.1-28.2c-7.4-6.4-21.1-9.6-41.1-9.6H7306.1z"/>
		<path class="st1" d="M7843.1,3236.1c8.8,0,13.2,4.4,13.2,13.2v239.4c0,16,1.3,29.3,3.9,39.9c2.6,10.6,6.9,19,12.9,25.2
			c6,6.2,14.1,10.6,24.3,13.2c10.2,2.6,23.1,3.9,38.7,3.9h243c8.8,0,13.2,4.4,13.2,13.2v58.8c0,8.8-4.4,13.2-13.2,13.2h-246.6
			c-30.4,0-56.2-2.8-77.4-8.4c-21.2-5.6-38.5-14.7-51.9-27.3c-13.4-12.6-23.2-29-29.4-49.2c-6.2-20.2-9.3-44.7-9.3-73.5v-248.4
			c0-8.8,4.6-13.2,13.8-13.2H7843.1z"/>
		<path class="st1" d="M8673.5,3236.1c9.2,0,13.8,4.4,13.8,13.2v57c0,8.8-4.6,13.2-13.8,13.2h-262.2c-15.6,0-28.5,1.3-38.7,3.9
			c-10.2,2.6-18.4,7-24.6,13.2c-6.2,6.2-10.5,14.6-12.9,25.2c-2.4,10.6-3.6,23.7-3.6,39.3v6h339c8.8,0,13.2,4.4,13.2,13.2v47.4
			c0,8.8-4.4,13.2-13.2,13.2h-339v10.2c0,15.6,1.2,28.7,3.6,39.3c2.4,10.6,6.7,19,12.9,25.2c6.2,6.2,14.4,10.6,24.6,13.2
			c10.2,2.6,23.1,3.9,38.7,3.9h262.2c9.2,0,13.8,4.4,13.8,13.2v57c0,8.8-4.6,13.2-13.8,13.2h-264c-30.4,0-56.2-2.8-77.4-8.4
			c-21.2-5.6-38.5-14.7-51.9-27.3c-13.4-12.6-23.2-29-29.4-49.2c-6.2-20.2-9.3-44.7-9.3-73.5v-103.2c0-28.8,3.1-53.2,9.3-73.2
			c6.2-20,16-36.3,29.4-48.9c13.4-12.6,30.7-21.8,51.9-27.6c21.2-5.8,47-8.7,77.4-8.7H8673.5z"/>
		<path class="st1" d="M9173.3,3236.1c8.8,0,13.2,4.4,13.2,13.2v57c0,8.8-4.4,13.2-13.2,13.2h-300.6c-11.6,0-19.8,3-24.6,9
			c-4.8,6-7.2,14.2-7.2,24.6v20.4c0,22.4,10.4,33.6,31.2,33.6h225c34.8,0,61,8.9,78.6,26.7c17.6,17.8,26.4,43.3,26.4,76.5v48
			c0,29.2-8.6,52.8-25.8,70.8c-17.2,18-44,27-80.4,27h-332.4c-9.2,0-13.8-4.4-13.8-13.2v-57c0-8.8,4.6-13.2,13.8-13.2h315
			c11.6,0,19.8-3,24.6-9c4.8-6,7.2-14.2,7.2-24.6v-24.6c0-22.4-10.4-33.6-31.2-33.6h-225c-34.8,0-61-8.9-78.6-26.7
			c-17.6-17.8-26.4-43.3-26.4-76.5v-43.8c0-29.2,8.6-52.8,25.8-70.8c17.2-18,44-27,80.4-27H9173.3z"/>
	</g>
</g>
</svg>
