<?xml version="1.0" encoding="utf-8"?>
<!-- Generator: Adobe Illustrator 23.0.4, SVG Export Plug-In . SVG Version: 6.00 Build 0)  -->
<svg version="1.1" id="Ebene_1" xmlns="http://www.w3.org/2000/svg" xmlns:xlink="http://www.w3.org/1999/xlink" x="0px" y="0px"
	 viewBox="0 0 24 24" style="enable-background:new 0 0 24 24;" xml:space="preserve">
<style type="text/css">
	.st0{fill:#FFFFFF;}
</style>
<title>Discord icon</title>
<g>
	<path class="st0" d="M9.7,10.1L9.7,10.1c-0.7,0-1.3,0.6-1.3,1.3c0,0.7,0.6,1.3,1.3,1.3c0.7,0,1.3-0.6,1.3-1.3
		C11,10.7,10.4,10.1,9.7,10.1z"/>
	<path class="st0" d="M14.3,10.1L14.3,10.1c-0.7,0-1.3,0.6-1.3,1.3c0,0.7,0.6,1.3,1.3,1.3c0.7,0,1.3-0.6,1.3-1.3
		C15.5,10.7,15,10.1,14.3,10.1z"/>
	<path class="st0" d="M20.2,0L20.2,0L3.7,0C2.3,0,1.2,1.1,1.2,2.5v16.2c0,1.4,1.1,2.5,2.5,2.5h14L17.1,19l1.6,1.4l1.5,1.3l2.7,2.3
		V2.5C22.8,1.1,21.6,0,20.2,0z M14.1,5.7L14.1,5.7L14.1,5.7L14.1,5.7z M15.4,15.7c0,0-0.5-0.5-0.8-1c1.6-0.5,2.2-1.4,2.2-1.4
		c-0.5,0.3-1,0.5-1.4,0.7c-0.6,0.3-1.2,0.4-1.8,0.5c-1.2,0.2-2.3,0.1-3.2,0c-0.7-0.1-1.3-0.3-1.8-0.5c-0.3-0.1-0.6-0.3-0.9-0.4
		c0,0,0,0-0.1,0v0c0,0,0,0-0.1,0H7.5c-0.2-0.1-0.3-0.2-0.3-0.2s0.6,0.9,2.1,1.4c-0.4,0.5-0.8,1-0.8,1C5.8,15.7,4.8,14,4.8,14
		c0-3.9,1.8-7,1.8-7c1.8-1.3,3.5-1.3,3.5-1.3l0.1,0.1C8,6.4,7,7.4,7,7.4S7.3,7.2,7.7,7c1.3-0.5,2.3-0.7,2.8-0.7h0.2
		c0.7-0.1,1.6-0.1,2.5,0c1.2,0.1,2.4,0.5,3.7,1.1c0,0-1-0.9-3.1-1.5l0.2-0.2c0.3,0,1.8,0.1,3.4,1.3c0,0,1.8,3.1,1.8,7
		C19.2,13.9,18.2,15.6,15.4,15.7z"/>
</g>
</svg>
