<?xml version="1.0" encoding="utf-8"?>
<!-- Generator: Adobe Illustrator 23.0.6, SVG Export Plug-In . SVG Version: 6.00 Build 0)  -->
<svg version="1.1" id="Ebene_1" xmlns="http://www.w3.org/2000/svg" xmlns:xlink="http://www.w3.org/1999/xlink" x="0px" y="0px"
	 viewBox="0 0 500 500" style="enable-background:new 0 0 500 500;" xml:space="preserve">
<style type="text/css">
	.st0{fill:#DC0032;}
	.st1{fill:#820028;}
	.st2{fill:#830028;}
	.st3{fill:#020202;}
	.st4{fill:#010101;}
	.st5{fill:#232323;}
	.st6{fill:#545454;}
	.st7{fill:#464646;}
	.st8{fill:#101010;}
	.st9{fill:#090909;}
	.st10{fill:#030303;}
	.st11{fill:#616161;}
	.st12{fill:#0E0E0E;}
	.st13{fill:#FFFFFF;}
	.st14{fill:#141414;}
</style>
<g>
	<path class="st0" d="M221,66.3c0.8,0.3-0.3,1.1,0.4,1.5c1.3,3.2,2.7,6.4,2.8,9.9c0,2.5,1.3,4.3,3.1,5.8c1.1,0.9,2.2,1.9,2.9,3.2
		c0.3,0.7,0.7,1.4,0.1,2c-0.5,0.6-1.2,0.8-2,0.7c-1.7-0.3-3.3-0.8-4.8-1.7c-2.1-1.3-4.3-2.2-6.9-2.2c-2.3-0.1-4-1.5-4.7-3.5
		c-1.4-4-5-6.2-7.3-9.4c-2.1-2.8-8.9-3.9-11.6-2.1c-2.7,1.8-5.3,1.5-8.1,0.4c-4.9-1.9-9.9-3.2-15.3-2.9c-5,0.3-10.1,0-15.1,0.4
		c-0.4,0-0.7,0-1.1,0.1c-0.3,0.1-0.6,0.2-0.6,0.5c0,0.3,0.2,0.6,0.4,0.7c0.4,0.3,0.9,0.4,1.3,0.6c3.3,1.2,6.4,2.6,9.4,4.4
		c2,1.1,3.2,2.8,3.9,4.9c1,3.4,2.9,6.4,3.3,10c0.1,0.8,0.5,1.5,1,2.1c2.5,3.4,4.1,7.3,5.7,11.2c2.3,5.4,6.6,7.9,12.1,8.7
		c2.7,0.4,5.4,1,8.1,1.3c2.1,0.2,3.8,1.1,5.3,2.6c2.9,3,6.4,3.2,10.1,2.3c1.8-0.5,3.4-1.4,5-2.2c3.2-1.6,6.5-2.6,10-3.4
		c3.1-0.6,5.6,0.2,7.5,2.9c1.1,1.6,2.2,3.2,4.1,4c1.8,0.8,3.7,0.8,5.5,1c1,0.1,2.4-0.3,2.7,1.2c0.2,1.4-0.7,2.5-2,2.9
		c-3.9,1.5-7.9,2.9-12.1,3.5c-0.6,0.1-1.2,0.2-1.8,0.3c-2.7,0.5-2.8,0.5-2.4,3.1c0.2,1.3-0.2,2.4-1.3,3.2c-1.6,1.3-3.4,1.5-5.3,1.4
		c-4.1-0.2-8-1.2-11.5-3.1c-3.3-1.7-6.2-0.6-9,0.8c-1.7,0.8-1.9,2.7-0.6,3.9c1.7,1.7,2.8,3.8,4,5.9c0.8,1.3,1,2.7,0.5,4.2
		c-0.7,2.1-1.1,4.3-1.6,6.6c-0.6,3-0.1,5.9,0.6,8.8c0.7,2.9,1.1,5.7-0.2,8.6c-0.7,1.5-0.9,3.2-1,4.8c-0.1,1.7,0.7,2.4,2.4,2
		c2.1-0.5,4.2-0.9,6.2-1.4c0.3-0.1,0.8-0.2,1,0.1c0.2,0.4-0.1,0.7-0.2,1c-0.1,0.2-0.2,0.3-0.3,0.4c-3.8,3.8-6.6,8.5-10.4,12.2
		c-5.5,5.3-7.7,12.1-9.7,19c-0.4,1.4-0.5,2.9-0.6,4.3c0,0.6-0.2,1.5,0.6,1.7c0.7,0.2,1-0.5,1.4-1c0.8-1.1,1.6-2.1,2.5-3.1
		c1.6-1.8,2.8-2,5-1.2c2.9,1.2,5.9,0.7,8.8,0.6c1.2-0.1,2.1-1,3-1.7c4-3.3,8.6-4.9,13.7-5.5c3.3-0.3,6.4-0.1,9.6,0.8
		c2,0.5,2.5,1.3,2.1,3.3c-0.4,2-1.5,3.7-2.4,5.5c-1.2,2.3-1.2,2.3,0.5,4.3c1.6,1.9,1.8,5.7,0.4,8.1c-1.5,2.4-3.8,4-5.8,5.7
		c-1.3,1.1-2.6,2-3.8,3.1c-0.4,0.3-0.8,0.7-0.6,1.2c0.2,0.4,0.7,0.5,1.1,0.5c2.4-0.1,4,1.2,5.2,3.1c0.9,1.4,2.2,2.2,3.7,2.9
		c1.1,0.5,2.1,0.9,3.2,1.3c4,1.5,6.3,4.4,6.9,8.6c0.1,0.7,0.2,1.3,0.2,2c0.3,3.6,1.2,4.6,4.8,5.4c2,0.4,3.9,0.7,5.9,1
		c2.7,0.4,3.6,1.6,2.8,4.2c-1.4,4.1-3.3,8.1-6.5,11.1c-5.7,5.3-9.4,11.9-12.5,18.8c-0.3,0.6-1.1,1.7,0.5,1.7c-0.5,0.4-1.3-0.1-2,0.4
		c2.1-3.3,4-6.6,5.1-10.3c-1-0.8-1.4,0.3-1.9,0.7c-2.4,1.9-4.5,4.2-7.2,5.7c-1.6,0.9-2.9,1-4.4-0.4c-0.6-0.6-1.3-1.4-2.4-1.5
		c-0.4,0.2-0.8,0.9-1.2,0.1c-0.4,1.6-1.3,2.8-2.9,3.3c-1.9,1.1-3.5,2.4-4.8,4.2c-5.5,7.9-9.6,16.4-12.8,25.5
		c-3.3,9.1-4.5,18.4-5.2,27.8c-0.5,6.7,0.2,13.2,1.3,19.8c1.1,6.6,3.7,12.6,6.9,18.3c3.8,6.8,8.3,13.1,14.2,18.2
		c7.9,6.8,17.2,10.8,27.4,13c5.1,1.1,10.2,1.7,15.4,1.5c12.6-0.6,24.9,1.2,37.1,3.9c5.6,1.3,10.9,3.3,15.6,6.8
		c0.3,0.2,0.9,0.2,0.6,0.9c0.5,1.4,1.5,2.5,1.5,4c1.5-0.9,0.4-2,0.4-2.7c0.9,2.7,1.1,5.7-0.1,8.6c-1.2,2.8-2.1,5.6-1.9,8.7
		c0.2,0.6,1.1-0.1,1.3,0.7c1.2-0.3,1.3-1.5,1.7-2c-0.9,4.1-4,7.1-6.3,10.7c-1.5,2.4-2.7,4.9-3.8,7.4c-0.5,1.2-0.5-0.2-0.8-0.1
		c-0.3,0.8-0.8,1.5,0.3,2.3c0.8,0.6-0.7,1.1-0.4,1.9c1.3-1.3,3.3-1.3,4.4-2.9c-1,2-2.5,3.7-2.8,6c0.6,0.2,0.8-0.3,1-0.6
		c1.1-2,2.6-3.8,3.7-5.8c-1.7,3.8-4.3,7.2-5.5,11.2c-0.3,0.8-0.7,1.6-0.6,2.5c0,0.4,0.1,0.7,0.6,0.9c0.4,0.1,0.7-0.1,0.9-0.4
		c0.4-0.5,0.6-1.1,0.7-1.6c0.7-3.6,3-6.3,5.4-8.9c2.4-2.6,5-4.9,6.8-8c-0.1,0.6-1.1,1-0.5,1.8c0.9,0.3,0.7,1.1,0.8,1.8
		c1.2-0.8,1-2,0.9-3.1c0.3,0.7,0,1.4-0.1,2.2c0,0.4-0.1,0.9,0.3,1.1c0.5,0.2,0.7-0.3,1-0.7c1.8-3,2.9-6.1,3-9.6
		c0-1.3,0.2-2.5,0.1-3.8c0-0.1,0-0.3,0-0.4c1.8-2.2-0.4-4-0.6-6c-0.1-0.4-0.3-0.9-0.7-0.9c-0.6,0-0.5,0.6-0.6,0.9
		c-0.1,0.3-0.1,0.6-0.2,0.8c1-3.8-0.1-7.3-1.8-10.7c-4.2-8.1-10.3-14.3-18.5-18.2c-6.9-3.2-14.1-5.1-21.8-5.6
		c-11.1-0.8-22.2-1.6-33.1-4.1c-10.7-2.5-19.2-8.2-25.2-17.6c-1.2-1.9-2.1-3.9-3.5-5.8c-2-2.7-3.7-5.6-4.7-8.8
		c-2.4-7.3-4.1-14.7-4-22.5c0.1-4.2,1.3-8.1,2.1-12.2c2-10.4,7.6-18.7,14.6-26.2c3.4-3.7,6.8-7.2,10.6-10.5c2.4-2.1,4.7-4.2,7.7-5.4
		c0.8-0.1,1,0.5,1.3,1c2,3.6,4.9,6.2,8.3,8.3c2,1.2,3.7,2.8,5.4,4.3c2.2,2,1.9,4.8,1.5,7.4c-0.4,2.6-1,5.2-2.5,7.6
		c-2.9,4.6-1.5,9.1,0.4,13.6c0.3,0.8,0.7,1.5,1.2,2.3c0.6,1.3,1.3,2.5,1.9,3.8c0.9,1.8,1.9,3.7,2.7,5.5c1.3,2.9,2.2,5.9,0.5,9.1
		c-0.1,0.3-0.2,0.6-0.2,0.9c0,0.4,0,0.8,0.3,1c0.4,0.2,0.7-0.1,0.9-0.3c0.4-0.4,0.7-0.8,1.1-1.2c1.2-1,1.9-0.8,2.3,0.7
		c0.3,0.9,0.2,1.8,0,2.7c0.2,0.7-0.9,1.1-0.7,1.8c1.2,0.8,1.4,2.1,1.6,3.3c0.1,1.1-0.5,2-1.6,2.4c-1.3,0.5-2.6,0.8-3.7-0.4
		c-0.6-0.7-1-1.5-1.1-2.4c-1.1-0.1-2.3-0.6-2.6,1.1c0.5,0,0.9-0.1,0.8,0.7c-0.2,1.6-0.6,3.2,0.3,4.7l0.1,0.1l0.2-0.1
		c1.4,0.8,2.6,1.7,4.2,2.2c1.8,0.5,3.3,0.4,4.8-0.7c0.8-0.6,1.6-1.2,2.7-1.8c-0.8,0.9-1.6,1.4-2.4,2c-1.8,1.5-3.8,1.8-5.9,0.7
		c-0.5-0.2-1-0.6-1.5-0.1c-0.5,0.5-0.2,1.1,0.1,1.7c0.2,0.4,0.4,0.8,0.5,1.2c1.8,4,6.4,4.7,9.3,1.4c1.3-1.5,2.5-3.2,4.1-4.4
		c0.7-0.5,0.9-1.4,1.1-2.3c0.6-3.2,0.8-6.3,0.1-9.6c-1-4.9-2.3-9.7-4.2-14.3c-1.2-2.7-1.8-5.7-2.7-8.5c-0.6-2-0.6-3.9,0.3-5.9
		c0.4,0.3,0.2,0.8,0.5,1c1.8-3.4,3.6-6.8,5.5-10.2c-1.3-0.1-1.7,1-2.3,1.7c-0.4,0.5-0.8,1-1.3,1.8c0.4-1.5,1.2-2.5,2.1-3.4
		c3.1-3.3,6.6-6.2,9.5-9.8c4.8-6,6.4-12.3,3.5-19.7c-2-5.1-4.9-9.6-9.2-13.1c-0.6-0.5-1.2-1-1.7-1.7c-1.8-2.6-4.2-4.3-7-5.6
		c-0.3-1.4,0.8-1.3,1.6-1.3c3.3,0.4,6.6,1,9.6,2.6c4.2,2.2,7.9,5,11.4,8.3c3.1,2.9,5.8,6,8.4,9.3c3.3,0,6.2-1.2,9-2.6
		c10.9-5.3,17.5-14,20.6-25.6c1-3.7,1.3-7.5,1.5-11.3c0.2-5.1,0.7-10.2,2.8-15c0.3-0.7,0.5-1.3,0.9-1.8c-0.4,0.8-1.3,1.6-0.6,2.7
		c1.1-0.3,0.7-1.9,1.8-2.1c1.1-1.3,2.1-2.6,1.5-4.5c-2.1-0.8-3.9,0.4-5.8,0.9c-1.4,0.4-2.8,1.2-4.6,0.6c3.7-2.6,7.4-5,11.4-6.8
		c0.2-0.4,0-0.7-0.2-1c-1.3-1.3-3.1-1.7-4.8-2.1c-4.7-1.2-8.3-3.9-11.2-7.7c-0.8-1.1-1.2-2.4-2-3.5c-1.4-0.4-1.7,1-2.6,1.5
		c-3.4,3.9-6.6,8.1-9,12.7c-0.7,1.2-0.4,2.2,0.2,3.4c4.1,7.9,5.2,16.4,4.8,25.1c-0.1,1.8-0.7,3.4-1.4,5.1c-0.4,0.9-1,1.2-1.8,1
		c-0.9,0-0.7-0.6-0.6-1.1c0.5-3.1-0.1-6-0.9-9c-1-3.7-3.3-6.6-5.7-9.4c-1.7-2.1-3.5-4.2-5.1-6.4c-1.7-2.3-2.9-4.9-3.7-7.7
		c-1.8-5.8-3.1-11.7-3.7-17.8c-0.2-1.7-0.8-3.3-1.1-5c-0.1-0.4-0.2-0.7,0.2-1c0.1-1.9-0.3-3.7-0.5-5.5c-0.9,0.4-1-0.1-0.8-0.8
		c0.7-2.8,1.7-5.4,3.3-7.9c4.1-6.3,9.2-11.8,15-16.6c4.1-3.4,8-6.8,11.9-10.5c0.4-0.4,0.8-0.9,1.4-1.1c1-1,1.9-2,2.9-3
		c1.5-2.7,3.7-4.8,5.7-7c3.5-3.8,6.5-8,9.6-12.1c3.7-5.1,4.3-10.6,2.5-16.6c-0.3-1-0.8-1.9-0.7-3c-0.4-1.8-1.5-3.3-2.5-4.8
		c-0.7,1.1,0.2,1.9,0.3,2.9c-0.4-1-0.7-2.1-1.1-3.1c-0.6-1.5-1.6-2.7-2.8-3.7c-7.3-6.5-15.2-12.3-22.6-18.7c-2.3-2-4.8-3.9-7-6.1
		c-3.5-3.5-6.7-7.2-10.3-10.6c-5-4.9-8.6-10.9-13.2-16c-0.3-0.4-0.6-0.7-0.9-1.2c-2.9-5-6.7-9.2-10.4-13.6c-0.8-0.9-1.6-1.8-2.6-2.5
		c-5.7-4.3-11.3-8.7-17.7-11.8c-1.6-0.8-3-1.9-4.3-3c-1.4-1.2-2.9-2.4-4.6-3.3c-2.1-1.1-3.8-2.6-5.1-4.6c-0.9-1.4-2.1-2.5-3.3-3.6
		c-0.4-0.4-0.8-1-1.4-0.6c-0.6,0.4-0.2,1,0.1,1.5c1.3,2.3,2.5,4.8,4.6,6.5c2.1,1.7,4,3.5,5.6,4.9c-1.3-1-2.9-2.7-4.8-3.9
		c-0.6-0.3-1-0.9-1.8-0.6c-1.4,0.7-2.1,1.9-2.5,3.3c1,0.3,1.5-0.6,2.2-0.9c-3.1,3-6.5,5.5-10.9,6.2c-2.6,0.4-5,1.5-7.5,2.4
		c-2.4,0.9-2.6,2.2-0.9,4.2c1.7,2,4,3.3,5.9,5.1c2.3,2.1,4.7,4,7.4,5.6c1.6,0.9,2.7,2.4,3.4,4.2c1,2.9,2.8,4.7,6,5.2
		c3.8,0.6,6.9,2.7,9.9,4.9c2.2,1.6,4.4,3.1,6.7,4.4c1,0.5,1.9,1.2,2.6,2c2,2.2,4.3,3.9,7.5,4.4c-1.8,1.3-3.5,3.1-6,2.6
		c-2.4-0.4-4.7-1.3-6.5-3.1c-2-1.9-4.1-3.6-6.8-4.5c-1.2-0.4-2.3-1.2-3.1-2.1c-2.2-0.4-4.4-0.7-6.6-1.1c-2.9,0.1-5.4-0.7-7.4-2.7
		c-1.6-1.6-3.3-3.1-5.2-4.3c-1.5-1-2.4-2.4-3.3-3.8c-0.7-1.2-1.3-2.5-1.9-3.7c-0.9-1.8-1.8-2.1-3.7-1.2c-0.4,0.2-0.7,0.4-1.1,0.7
		C224.4,62.6,222.9,64.7,221,66.3z"/>
	<path d="M229,290.7c0.1,0.6,0.1,1.1,0.2,1.7c0.8-0.4,0.6-1.2,1-1.7c0.6-0.4,0.7-1.1,0.9-1.7c1.2-5.9,3.1-11.6,5.7-17.1
		c2.2-4.7,3.1-9.9,2.6-15.1c-0.7-6.7-4.4-11.5-10.7-14c-2.5-1-5.2-0.5-7.8,0.6c-9.3,4.1-16.3,10.9-22.4,18.3
		c1.3-3.4,3.4-6.8,5.3-10.2c0.8-1.3,1.4-2.7,1.9-4.1c0.6-1.9,1.5-3.6,2.6-5.2c2.9-4.1,5.4-8.4,7.4-13c1-2.3,2.3-4.4,3.6-6.6
		c0.8-1.2,1.4-2.5,0.5-3.9c-0.9-1.4-2.4-1.4-3.9-1.3c-0.9,0.1-1.7,0.4-2.4,0.7c-3.1,1.5-6.4,2.4-9.6,3.6c-7.8,3-15.3,6.4-20.6,13.1
		c-0.7,0.9-1.6,1.5-2.7,1.8c-5.5,1.6-11.2,2.9-16.9,4c-0.4,0.1-1,0.4-1.4-0.1c-0.3-0.5,0.1-0.9,0.4-1.3c2.1-3.5,4.8-6.6,6.7-10.2
		c1.6-2.9,3-5.9,3.8-9c0.3-1.1,0.6-2.2,1.1-3.3c2.1-4.6,2.6-9.5,2.5-14.4c0-0.9-0.3-1.8-0.5-2.7c-1.6-6.1,0.1-11.6,3.5-16.6
		c1-1.4,2.6-2.1,4.1-3c3-1.8,4.5-5.7,3.4-9c-0.8-2.4-2.2-2.9-4.3-1.5c-1.6,1-2.7,2.4-3.7,3.9c-1.1,1.7-2.4,3.1-4.3,3.7
		c-1,0.3-1.6,0.1-1.3-1.1c0.1-0.7,0.3-1.4,0.2-2.2c-0.1-1.6-0.8-2.3-2.4-2.5c-2-0.2-2.8-1.2-2.6-3.3c0.2-1.4,0.4-2.9,0.9-4.3
		c0.5-1.4,0.4-2.7-0.1-4.1c-0.8-2.3-2.3-2.9-4.4-1.6c-2.3,1.4-4.9,1.9-7.5,2.7c-3,0.9-5.7,0.3-8.2-1.1c-2.7-1.6-5.6-2.6-8.4-4
		c-1.9-1-3.1-2.4-3.9-4.4c-2.4-6.5-8.7-10.1-15.6-9.1c-4.2,0.6-8.4,1-12.7,0.5c-0.4,0-0.9,0.1-1.1-0.3c-0.2-0.5,0.3-0.8,0.5-1.1
		c0.9-1.1,1.9-2.3,3.3-2.9c3.9-1.9,7.7-3.9,11.7-5.6c3.8-1.6,7.8-1.8,11.7-2.7c5.8-1.4,11.9-2,17.2-5.2c3.7-2.2,7.8-3.3,11.8-4.9
		c2.8-1.2,5.2-2.8,7-5.3c2-2.8,5.2-4.2,8.1-5.8c0.7-0.4,1.3,0,1.8,0.4c2.6,2,5.6,2.9,8.7,3.4c2.8,0.4,5.5,1,8.3,1.3
		c2.1,0.2,3.6,1.4,5,2.7c3.9,3.6,8.3,3.6,12.7,1.6c4.2-1.8,8.2-3.9,12.8-4.8c3.1-0.6,5.4,0,6.9,2.9c2,3.8,5.6,4.6,9.4,4.9
		c0.6,0.1,1.6-0.3,1.8,0.4c0.2,0.8-0.8,1.1-1.5,1.4c-5.1,2.1-10.4,3.3-15.9,3.8c-1.3,0.1-2.6,0.2-3.8,0.7c-1.4,0.5-2,1.6-1.6,2.7
		c0.4,1.1,1.5,1.4,2.9,0.7c0.7-0.3,1.4-0.8,1.9,0.1c0.6,0.9,0,1.6-0.7,2.2c-1.3,1-2.7,1.2-4.3,1.1c-4-0.3-7.9-1.2-11.4-3.1
		c-3.6-1.9-6.8-0.6-9.9,0.9c-2.6,1.2-2.8,4-0.8,6.1c0.6,0.7,1.3,1.3,1.8,2c2.2,2.8,3,5.7,1.7,9.3c-1.7,4.5-1.5,9.1-0.2,13.8
		c0.7,2.4,0.7,4.9-0.4,7.3c-0.8,1.9-1.2,3.9-1.1,6.1c0.1,2,0.9,2.7,3,2.4c1.8-0.2,3.6-0.8,5.6-1.2c-4,4.5-7.5,9.3-11.7,13.4
		c-1.8,1.7-2.8,4-3.8,6.2c-2.6,5.3-4.9,10.6-4.7,16.7c0,0.5,0,1,0.1,1.5c0.1,0.8,0.5,1.4,1.3,1.6c0.9,0.2,1.4-0.3,1.8-1
		c0.9-1.5,1.9-3,3.1-4.3c1.5-1.6,2.1-1.8,4.1-1c1.3,0.5,2.6,0.5,3.9,0.7c4.2,0.7,7.4-0.6,10.9-3.1c5.7-4.2,12.5-5.2,19.5-3.4
		c1.7,0.4,2.1,1,1.5,2.7c-0.5,1.7-1.4,3.2-2.3,4.7c-1.5,2.5-1.4,3.1,0.7,5.2c1.9,1.9,2,5.1,0,7.5c-1,1.3-2.2,2.4-3.5,3.4
		c-2.7,2.1-5.2,4.4-7.9,6.5c-0.4,0.3-1,0.7-0.8,1.3c0.2,0.7,0.9,0.5,1.4,0.5c1.1,0.2,2.3,0.2,3.5,0.1c1.6-0.1,2.8,0.6,3.6,1.9
		c1.3,2.2,3.3,3.5,5.7,4.4c0.2,0.1,0.3,0.1,0.5,0.2c5.4,1.6,7.9,5.2,7.9,10.8c0,3.2,1.3,4.7,4.4,5.7c2.1,0.7,4.3,0.9,6.5,1.1
		c2.9,0.3,3.5,1.1,2.5,3.8c-1.6,4.1-3.6,7.9-7,10.9c-2.6,2.3-4.7,5.1-6.4,8.1c-0.2,0.4-0.4,0.9-0.3,1.4c-2,3.4-3.3,7.3-5.9,10.4
		c-0.2,0.3-0.5,0.6-0.2,1c0.2,0.2,0.5,0.3,0.6,0.1c0.9-1,2.4-0.9,3.4-1.8c-0.6-0.3-1,0.4-1.8,0.2c1.4-3,2.8-6,4.3-8.9
		c2.2-4.1,5.2-7.4,8.4-10.7c3.4-3.5,5.8-7.7,7.1-12.5c0.6-2.1-0.4-3.4-2.5-3.8c-2.4-0.5-4.9-0.7-7.3-1.3c-3-0.8-3.6-1.6-3.8-4.8
		c-0.1-2.1-0.3-4.1-1.4-6c-1.5-2.7-3.7-4.3-6.5-5.2c-3-1-5.7-2.4-7.4-5.3c-1.2-2-3.4-1.8-5.8-1.8c2.7-2.2,5-4,7.3-5.9
		c2.9-2.3,5.2-5,4.6-9.1c-0.2-1.6-0.7-3.1-2.1-4c-0.9-0.6-0.9-1.1-0.4-2c0.9-1.6,1.7-3.2,2.5-4.9c0.5-1,0.7-2,0.7-3.2
		c0.1-1.5-0.6-2.2-2-2.6c-7.4-1.9-14.4-1.2-21.1,2.5c-1.4,0.8-2.6,1.8-3.8,2.8c-1,0.9-2.1,1.3-3.5,1.2c-2.8-0.1-5.7,0.2-8.4-1.2
		c-1.6-0.8-2.8,0.4-3.9,1.3c-1.5,1.3-2.6,3-4,5c-0.4-2.8,0.1-5.3,0.8-7.5c1.4-5.2,3.4-10.2,6.6-14.5c1.8-2.4,4.2-4.5,6.2-6.8
		c2.4-2.8,4.4-5.8,7.1-8.3c0.3-0.2,0.5-0.6,0.6-0.9c0.2-0.5,0.7-1,0.2-1.5c-0.4-0.5-0.9-0.1-1.3,0c-2.4,0.5-4.7,1.1-7.1,1.7
		c-1.1,0.3-1.5-0.1-1.4-1.1c0-1.8,0.2-3.7,1-5.3c1.1-2.2,1.4-4.6,0.6-6.7c-2-6-1.2-11.8,0.6-17.6c0.4-1.4,0.2-2.7-0.5-3.8
		c-1.4-2.2-2.4-4.6-4.5-6.4c-1-0.8-0.5-2.5,0.9-3.1c2.9-1.2,5.8-2.3,9-0.4c3.5,2,7.5,2.8,11.5,3c1.2,0.1,2.4-0.1,3.6-0.5
		c3.2-1.1,3.9-2.9,2.7-6.9c5.4-0.5,10.6-1.9,15.7-3.8c1.5-0.5,2.8-1.2,3.2-2.9c0.4-1.7-0.1-2.4-1.8-2.5c-1.3-0.1-2.7-0.2-4-0.3
		c-2.6-0.1-4.5-1.4-5.9-3.5c-0.1-0.1-0.2-0.2-0.2-0.3c-2.3-4-5.8-4.7-10-3.6c-3.5,1-7,2.1-10.2,3.9c-2.3,1.3-4.7,2.1-7.5,1.9
		c-1.6-0.1-3.3-0.4-4.3-1.6c-2.7-3.1-6.3-3.8-10.1-4.3c-2.6-0.3-5.1-0.9-7.7-1.4c-3.6-0.8-6.3-2.7-8-6.1c-1.1-2.1-2.2-4.2-3-6.4
		c-0.4-1-0.7-2-1.3-2.8c-2.2-2.9-3.4-6.2-4.2-9.7c-0.7-2.6-1.9-5.2-3-7.8c-0.6-1.4-1.7-2.4-3.1-3.2c-3.4-1.9-6.9-3.6-10.6-4.8
		c-0.3-0.1-0.8,0-0.8-0.7c3.5-0.2,7-0.4,10.4-0.5c4.5,0,9-0.5,13.4,0.4c2.9,0.6,5.7,1.6,8.5,2.6c2.6,1,4.9,1.2,7.3-0.4
		c3.6-2.5,11-0.6,12.9,3.2c0.5,1,1.3,1.7,2.2,2.4c1.3,0.9,2.2,2.1,2.9,3.7c0.8,2,1.7,4.7,3.9,5c4.8,0.5,8.7,3.2,13.2,4.4
		c1.2,0.3,2.4,0.2,3.2-0.7c0.9-1.1,0-2.1-0.5-3c-0.6-1.2-1.6-2-2.6-2.8c-2.1-1.7-3.2-3.7-3.2-6.6c0-3.1-1.6-5.9-2.6-8.8
		c-0.1-0.3-0.4-0.3-0.6-0.1c-0.1,1.4,0.5,2.6,0.9,3.9c0.6,2.1,1,4.2,1,6.4c0,2.6,1.7,4.4,3.6,6.1c1,0.9,2.2,1.7,2.7,3.1
		c0.4,1,0.2,1.5-0.9,1.1c-1.1-0.4-2.3-0.7-3.4-1.1c-2.8-1-5.5-2.5-8.6-2.7c-1.8-0.9-3-2.3-3.9-4.1c-2.6-4.2-5.7-8.1-10-10.5
		c-3.8-2.1-8.2-2.7-12.1,0.3c-1.2,0.9-2.5,0.5-3.8,0.1c-3.1-1-6.1-2.2-9.3-2.9c-4.3-0.9-8.7-0.5-13.1-0.5c-4.6,0-9.1,0.4-13.6,0.8
		c-0.7,0.1-1.7,0-1.8,0.9c-0.2,0.9,0.7,1.1,1.4,1.3c4.4,1.7,8.9,3.1,13,5.5c1.8,1,3,2.4,3.6,4.3c1,3.5,2.9,6.6,3.3,10.3
		c0.2,1.8,1.7,3.2,2.5,4.8c2,3.9,3.9,7.8,5.9,11.7c0.5,1-0.3,0.8-0.6,1c-2.3,0.9-4.4,2-6.4,3.5c-1,0.7-1.8,1.6-2.5,2.6
		c-1.1,1.8-2.6,3.2-4.6,4c-5.8,2.6-11.7,5.1-17.6,7.6c-4.5,2-9.5,2.7-14.4,3.4c-3.9,0.6-7.6,1.3-11.2,3c-3.5,1.6-7,3.3-10.5,4.9
		c-2.4,1.1-4,3.2-5.5,5.2c-0.9,1.1-0.5,2.1,0.8,2.6c0.7,0.3,1.4,0.4,2.1,0.4c4.4,0,8.9-0.1,13.3-0.7c5.4-0.8,12.5,2,14.1,8.5
		c0.9,3.8,4.4,5,7.5,6.2c2.8,1.1,5.3,2.8,8.2,3.8c1.3,0.5,2.4,0.7,3.8,0.5c3.8-0.5,7.3-1.5,10.6-3.5c1.1-0.7,1.6-0.3,2,0.8
		c0.3,0.9,0.3,1.8,0,2.7c-0.6,2-1.2,4.1-1.3,6.2c-0.1,2,1.3,4,3.3,4.3c1.6,0.2,1.7,1.2,1.4,2.3c-0.2,1-0.7,1.9-1,2.9
		c-0.2,0.7-0.4,1.5,0.4,2c0.8,0.5,1-0.3,1.5-0.7c0.4-0.3,0.7-0.5,1.3-0.6c3.3-0.4,5.7-2.2,7.3-5c0.8-1.4,1.9-2.5,3.2-3.4
		c0.6-0.5,0.9-0.3,1.2,0.3c0.9,1.9-0.1,5.8-2,6.7c-5.7,2.6-8,7.5-9.3,13.3c-0.6,2.9-0.7,5.7,0.2,8.6c1.2,4,0.9,8.1-0.4,11.9
		c-2,6.2-3.7,12.6-7.3,18.1c-1.8,2.7-3.7,5.3-5.5,7.9c-0.4,0.6-0.9,1.3-1.1,2c-0.7,2,0.5,3.3,2.5,2.9c6.2-1.2,12.4-2.6,18.5-4.4
		c1.8-0.5,3-1.7,4.2-3.1c2.8-3.3,6.1-5.9,10-8c6.3-3.4,13.3-5,19.8-8c0.6-0.3,1.3-0.5,1.9-0.3c1.2,0.2,1.7,1.3,1.1,2.3
		c-4.3,6.4-7.1,13.7-11.7,19.9c-1.2,1.7-2,3.6-2.7,5.5c-1,2.9-2.7,5.5-4.2,8.2c-1.7,3.2-3.3,6.4-4.2,10c-0.1,0.3-0.3,0.6-0.2,0.9
		c0.1,0.8-0.6,2,0.6,2.4c1.1,0.4,1.5-0.7,2-1.4c5.1-7.8,11.6-14.1,19.3-19.3c1.6-1.1,3.4-2.2,5.2-2.9c5.4-1.9,8.8-0.5,12.7,4.8
		c3.9,5.3,2.9,11,1.8,16.8c-0.8,4.3-3,8.2-4.6,12.2C230.2,282.2,229.4,286.4,229,290.7z"/>
	<path class="st0" d="M385.6,229.1c1.8-2.3,2.7-4.9,3.2-7.7c1.2-6.6,4.6-11.8,10.2-15.5c0.5-0.3,1-0.4,1.5-0.5
		c0.6-0.3,0.7-0.9,1-1.8c-4.6,1.4-8.1,4-11.3,7.2c-0.8,1.8-2.8,2.8-3.5,4.7c-0.8,2-2,3.7-3,5.6c-0.8,1.5-2,2.4-3.6,2.6
		c-0.4-0.1-0.8,0.9-1.1-0.1c0-0.8,0.3-1.5,0.2-2.3c-0.2-1.4-0.7-1.6-1.8-0.8c-0.4,0.3-0.7,0.9-1.4,0.6c-0.6,0-0.8,0.9-1.5,0.7
		c-1.7-0.3-1.9-0.8-1.4-2.5c-0.6,0-0.6-0.7-1.1-0.8c-0.4,0.3-0.5,0.9-1.1,1c-1.9,0.3-1.1,1.2-0.5,1.9c-1.8-0.2-2.3-2.4-4.1-3
		c-1.7-0.5-3.4-1.3-5-2.1c-0.6-0.2-1.1-0.5-1.6-0.8c-3.2-1.6-6.8-2.2-10.3-2.9c-2.6,1.2-4.7,1.3-6.6-1.3c-0.3-0.5-0.7-1-1.4-1
		c-1.1-0.3-1.8-1.2-2.6-1.9c-0.4-0.3-0.9-0.7-1.3-0.3c-0.5,0.4,0,0.9,0.3,1.2c3.4,3.1,4.8,7.2,6,11.4c1,3.7,3.3,6.7,6.3,9.1
		c3.4,2.6,7.1,4.6,10.6,7c1.5,1,2.7,2.2,2.7,4.2c0.1,0.9,0.3,1.7,0.8,2.4c1.8,3,1.6,6.4,1.3,9.7c-0.1,1.7-0.4,3.4-0.8,5
		c0,0.4,0.1,0.8,0.3,1.1c1.1,1.9,2.5,3.6,3.9,5.3c0.9,1.2,1.4,1.1,2.2-0.1c0.5-0.8,1-1.6,1.7-2.4c0.6-0.7,1.8-1.4,0.3-2.4
		c-0.3-0.2,0-0.6,0.2-0.8c0.3-0.4,0.8-0.5,1.3-0.4c1.7,0.3,2.4-0.2,2.6-1.9c0.2-1.7,0.1-3.4-0.1-5.1c-0.6-5.3-0.2-10.4,2.3-15.2
		C381,233.6,383.5,231.5,385.6,229.1z"/>
	<path d="M227.2,388.2c2.4,4.4,5.1,8.7,8.6,12.3c6.2,6.4,13.9,10.1,22.6,11.7c8,1.5,16,2.5,24.1,3c9.1,0.6,18.1,1.6,26.6,5.4
		c8,3.6,14.4,9,18.8,16.5c2,3.5,3.6,7,3.4,11.1c-0.1,0.9-0.2,1.8-0.3,2.9c0.8-0.9,0.8-2,1.2-3c0.5,2.1,1.3,3.9,2.2,6.2
		c-0.8-0.6-1.4-1.3-1.4,0.1c0,3,0.2,6.1-0.6,9c-0.6,2.2-1.7,4.1-2.8,6.1c0.2-1.4,0.4-2.9-0.3-4.2c-0.3,1.3-0.2,2.8-0.8,4
		c-0.4,1.3-0.8,2.5-1.4,3.7c-0.3,0.5-0.7,1.2,0,1.6c0.7,0.5,1.1-0.3,1.4-0.8c3.2-4.5,6-9.3,5.5-15.1c0-0.3-0.1-0.6,0.2-0.9
		c0.9,1,1.2,2.3,1.9,3.4c0.4,0.7,0.7,2,1.8,1.6c0.9-0.3,0.4-1.5,0.2-2.3c-0.6-3-1.8-5.7-2.9-8.6c-0.6-1.5-1.1-2.9-1.5-4.4
		c-3.8-15-13.2-24.7-27.7-29.9c-7.1-2.5-14.5-3.4-21.9-3.9c-9.6-0.7-19.3-1.4-28.6-3.8c-11.5-3-20.2-9.8-25.9-20.4
		c-2.6-4.9-4.1-10.2-5.1-15.6c-0.9-5.1-0.9-10.2-0.7-15.4c0.4-10.7,3.7-20.3,10.6-28.6c2-2.3,4.6-3.9,7-5.7c2.4-1.9,4.7-4.1,7.2-5.9
		c2.2-1.7,4.8-2.7,7.3-3.9c1.3,0.1,2.5-0.5,3.6-1.2c2.1-1.3,3.9-0.7,5.6,0.8c1,0.9,2.1,1.9,3.1,2.8c1.2,1.2,1.7,2.6,1.4,4.3
		c-0.4,2.1-1.1,4.2-1.5,6c-0.8-3.6-2.8-6.8-6.1-9.1c-1.1-0.7-1.4-0.6-2.1,0.3c2.3,2.4,4.7,4.7,6,7.9c0.9,2.1,1.6,4.1,0.4,6.4
		c-1.9,3.7-0.6,7.2,0.7,10.7c0.1,0.3,0.2,0.5,0.3,0.8c0,1.3,0.5,2.3,1.4,3.1c0.8,0.7,1.3,0.5,1.5-0.6c-1.6-2.7-2.5-5.8-3.3-8.8
		c-0.7-2.6,0.8-4.9,1.9-7c1.8-3.5,2.6-7.1,2.6-11c0-2-1-3.4-2.3-4.7c-2.1-2.1-4.7-3.6-7.1-5.3c-2.6-1.9-4.8-4.1-6.2-7
		c-0.3-0.6-0.4-1.7-1.6-1c-0.7,1.1,0,2,0.4,2.9c1.1,2,2.6,3.7,4.4,5.1c1.3,1,1.3,1.2-0.2,1.8c-6.1,2.7-12.1,5.8-17.4,9.9
		c-9.3,7.3-15.4,16.5-18.1,28.1c-1.9,8.1-2.3,16.2-1,24.4C222.8,379,224.6,383.8,227.2,388.2z"/>
	<path class="st1" d="M365.5,259.4c-0.1-0.3-0.3-0.5-0.4-0.8c-0.4-1-0.2-2-0.1-3c0.4-2.6,0.2-5.2,0.2-7.8c0-0.9-0.4-1.7-1.2-2.1
		c-2.7-1.3-2.6-4-3.1-6.4c0,0,0.3,0.2,0.5,0.2c0.3,0.1,0.5,0.1,0.8-0.1c0.4-1-0.2-1.6-0.8-2c-4.9-2.9-9.5-6.4-14.4-9.4
		c-1.6-0.9-3.3-1.6-5.1-1.9c-1.7-0.3-3.2-1-4.8-1.7c-0.4-0.2-0.8-0.4-1.2,0.1c-0.3,0.4,0,0.8,0.3,1.1c2.3,3,5.1,5.5,8.8,6.6
		c1.9,0.6,3.8,1.2,5.7,2c0.4,0.2,1.2,0.2,0.9,1c0.1,0.2,0.2,0.4,0.3,0.6c0,0.1,0.2,0.1,0.3,0.3c-3.7,1.1-6.7,3.5-10,5.4
		c-0.3,0.2-0.6,0.4-0.5,0.9c0.2,0.4,0.6,0.4,0.9,0.4c0.9,0,1.7-0.3,2.4-0.7c1.2-0.5,2.4-0.9,3.6-1.2c0.7-0.2,1.5-0.5,2.1,0.4
		c0.2,1.7-1.2,2.9-1.5,4.4c-0.4,1.4,0.3,1.8,1.5,1.5c1.9-0.4,2.5,0.5,2.9,2.3c0.4,1.9,0.8,4.2,3.5,4.3c0.5,0,0.3,0.6,0.5,0.8
		c0.1,0.1,0.2,0.4,0.3,0.5c3.3,0.3,1.9,3.4,2.8,5.1c1.3,2.4,2.8,4.4,4.7,6.2c1,1,2.5,1.1,3.8,0c-0.3-1.9-1.8-3-2.8-4.6
		C366.3,261.2,365.4,260.6,365.5,259.4z"/>
	<path d="M321.7,433.9c0.3,0.1,0.6,0.3,1.4,0.6c-2.4-2.5-4.8-4-7.4-5.3c-6.6-3.1-13.7-4.2-20.8-5.6c-10-2-20.1-1.6-30.3-1.9
		c-10.8-0.3-21.1-3-30.5-8.4c-9.9-5.7-16.8-14.2-22.3-23.9c-5.2-9.1-7.6-18.7-8.1-29.1c-0.4-7.4,0.3-14.6,1.5-21.9
		c2-12.8,6.9-24.4,13.6-35.4c1.1-1.9,2.2-3.8,3.5-5.5c1-1.4,2.9-2,3.8-3.5c0.1-0.3,0.2-0.5,0.4-1c-2.1,0.7-3.3,2.3-4.6,3.7
		c-6.1,7.1-10.2,15.2-13.3,23.9c-1.8,5.3-3.8,10.5-4.6,16.1c-1.4,9.1-2.1,18.3-1.4,27.5c1.1,14,7,25.9,15.3,36.7
		c8.9,11.6,21,17.9,35.1,20.7c6.5,1.3,13,1.8,19.7,1.5c8.3-0.4,16.5,0.8,24.7,2.2c5.9,1,11.7,2.3,17.3,4.4
		C317.3,430.9,319.5,432.4,321.7,433.9z"/>
	<path d="M248,33.4c3,1.7,5.5,4.1,8.4,6c-4.2-4.5-9.9-7.8-11.9-14c1.1,0.5,2.7,1.8,3.8,3.6c1.7,2.6,4,4.4,6.6,5.9
		c3,1.8,5.3,4.7,8.5,6.2c6.3,2.8,11.5,7.4,17,11.4c2.7,1.9,4.2,4.9,6.5,7.1c3.4,3.4,5.5,7.7,8.4,11.4c6.3,8.4,13.3,16.1,20.6,23.5
		c5,5.1,10.8,9.4,16.2,14.1c4.1,3.6,8.6,6.7,12.7,10.4c2.9,2.7,5.6,5.1,6.6,9c0.1,0.2,0.2,0.4,0.4,0.6c0.1,0.1,0.2,0.1,0.4,0.3
		c-0.2-1.5-1-2.8-1-4.2c-0.5-1.7-1.6-3-2.9-4.1c-8.6-7.9-18.1-14.7-26.7-22.6c-7.9-7.3-15.6-15-22-23.7c-5.2-7-10-14.4-16.1-20.6
		c-4-4.1-8.6-7.4-13.5-10.3c-4.5-2.7-9.1-5.3-13.2-8.5c-3.3-2.5-6.2-5.3-9-8.3c-3.1-3.3-6.2-6.5-8.3-10.5c-0.3-0.5-0.7-1.2-1.4-0.8
		c-0.7,0.5-0.1,1.1,0.1,1.6c1.8,5.2,5.1,9.6,7.8,14.2C246.6,32,247.5,32.5,248,33.4z"/>
	<path class="st1" d="M313.4,301.3c-1-2.3-2.7-4.2-4.5-5.9c-3.6-3.4-7.1-7.1-11.4-9.8c-4-2.5-8.3-4.1-13-4.7
		c-2.3-0.3-3.1,0.4-2.5,2.2c3.1,0,5.1,1.8,7,4c0.8,1,1.6,2,2.6,2.7c4.6,3.3,7.4,7.9,9.5,13c0.2,0.5,0.2,1.2,1,1.4
		c1.6-0.6,3.4-0.6,5.1-0.7c1.5-0.1,3-0.1,4.5,0c2.6,0.1,4.8-0.9,6.9-2.2c-0.9-0.7-1.7-0.2-2.6,0c-3.2,0.9-6.5,1-9.8,1.4
		c-0.3,0-0.6,0.1-0.8-0.2c-0.2-0.1,0-0.4-0.1-0.2c0,0.1,0,0.1,0.1,0.1c1,0.6,2.1,0.1,3,0C309.9,302.2,311.9,302.8,313.4,301.3z"/>
	<path class="st1" d="M292.9,380.6c0.4,1.1,0.2,2.3,0.7,3.3c0.4-0.5,0.8-0.4,1.2-0.1c0.9,0.6,2,0.9,3.1,1.1c2.7,0.5,3.4,0.1,4.4-2.8
		c0.1,0.6,0,1.1-0.1,1.6c0,0.5-0.2,1.2,0.5,1.4c0.7,0.3,1.3,0,1.8-0.5c2.6-2.3,2.9-4.9,0.9-7.7c-4.3-6-9.5-11.2-14.8-16.3
		c-0.6-0.6-1.5-1.6-2.3-1.1c-1,0.6-0.2,1.8,0,2.7c1,3.8,2.2,7.6,2.3,11.6c0,1.1,1.4,1.7,0.9,2.8c0.2,0.8,0.7,1.6,0.7,2.5
		c0.8,0.8,1.8,1.1,2.9,1.5c0.5,0.2,1.1,0.5,1.5,0c0.4-0.6-0.3-0.9-0.5-1.4c0.4,0.2,0.7,0.4,1,0.6c0.4,0.4,0.7,0.9,0.3,1.5
		c-0.3,0.6-0.9,0.5-1.4,0.5C294.7,381.7,294.1,380.4,292.9,380.6z"/>
	<path class="st1" d="M324,271.1c1.3,0.8,1.9,0.5,2.5-1c1.9-4.7,1.7-9.6,1.1-14.5c-0.6-6.1-2-11.9-5.2-17.2c-0.6-1,0.5-1.5,0.4-2.4
		c-0.3-0.1-0.6,0-1,0.4c0.8-0.9,1.3-1.7,1.8-2.5c0.2-0.4,0.7-0.9,0.3-1.3c-0.5-0.5-1,0.1-1.4,0.3c-0.3,0.1-0.5,0.4-0.7,0.6
		c-1,1.3-2.1,2.3-3.4,3.3c-0.6,0.4-1.7,1.2,0,1.7c0.4,0.1,0.4,0.4,0.2,0.7c-1.1,1.4-1.9,3-2.8,4.5c-0.2,0.2-0.4,0.2-0.7,0.1
		c-0.9,0.5-0.3,1.9-1.4,2.2c0.5,1.4,1,1.6,1.9,0.6c1.1-1.2,1.9-2.6,3-3.9c-0.6,1.4-1.4,2.6-2.4,3.7c-1.4,1.5-1.5,1.9-0.1,3.4
		c2.5,2.9,4.4,6.1,6.3,9.3c0.9,1.7,1.5,3.4,1.9,5.3c0.1,0.5,0.1,1.2,0.8,1.2c0.6,0,0.8-0.6,1-1.2c0.4-1.3,0.3-2.5-0.2-3.7
		c-0.6-1.5-1.4-2.8-2.3-4.6c1.8,2.5,3.1,4.7,2.9,7.5c-0.1,0.8-0.2,1.6-0.8,2.1C323.8,267.1,324.1,269.2,324,271.1z"/>
	<path d="M291.4,376.6c0.5-0.1,1-0.1,1.3-0.8c-2.3-0.5-1.4-2.4-1.7-3.8c-0.7-3.6-1.4-7.2-2.5-10.7c-0.2-0.5-0.5-1-0.2-1.7
		c0.5,0.4,1.1,0.7,1.6,1.1c5.7,5.4,11.3,11,15.8,17.6c0.9,1.4,0.7,2.5,0.1,3.7c-0.2,0.3-0.3,0.7-0.6,0.9c-0.7,0.7-1,2.4-2.3,1.9
		c-1.1-0.4,0.1-1.7-0.1-2.6c-0.1-0.5,0.2-1.1-0.4-1.5c-0.6,0.6-0.6,1.4-0.8,2.1c-0.3,1.5-1.2,2-2.6,1.8c-1.9-0.2-3.7-0.7-5.3-2
		c-0.1,0.5-0.1,0.9-0.1,1.3c1,1.8,2.9,1.8,4.5,2.1c1.6,0.3,3.3-0.6,4.9,0.3c0,0,0.1,0,0.2,0c2.4-0.1,5.4-5.8,4.1-7.8
		c-5.2-8-11.6-14.8-19-20.7c-1.3-1-2.1-2-2.5-3.5c-1-3-1.9-6.1-2.5-9.2c-0.2-0.9-0.1-1.7,0.1-2.5c0.1-0.6,0.2-1.3,0.3-2
		c-1.6,0.7-2.4,2.7-1.9,5.1c0.9,4.4,2.3,8.7,4,12.8c2.1,5,3.3,10.3,3.8,15.7c0.2,2.1-0.4,4.3-0.7,6.5c0,0.1,0,0.1-0.1,0.2
		c-2.8,2.1-3.9,6-7.7,7.1c-2.5,0.7-4.5-0.1-5.5-2.5c-0.4-1-1.2-1.8-1.3-3.1c1.9,0.8,3.6,2.1,5.6,1.2c2-1,4.1-2.1,5.4-4.4
		c-1.5-0.3-2.3,0.7-3,1.4c-2.4,2.2-4.9,1.8-7.6,0.7c-0.8-0.3-1-1.9-2.3-1c-0.1,3.1,1.3,5.5,3.1,7.7c0.8,1,1.9,1.3,3.1,1.3
		c2.7,0.2,5.1-0.4,6.8-2.8c1-1.4,2.1-2.8,3.6-3.8c1.3-0.9,1.4-2.5,1.8-3.9C290.9,378.1,290.7,377.2,291.4,376.6z"/>
	<path d="M255.3,77.2c0,1.4,1.3,1.8,2.2,2.2c3.2,1.2,5.6,3.2,8.1,5.4c3.8,3.3,8.4,3.3,12.2,0.3c0.4-0.3,0.8-0.7,0.6-1.2
		c-0.1-0.5-0.6-0.4-0.9-0.4c-2.4,0.1-4.1-1.3-5.8-2.7c-5.2-4.4-10.9-7.8-16.7-11.3c-1.5-0.9-3.2-1.2-4.8-1.5
		c-2.2-0.4-3.7-1.6-4.4-3.7c-1-3.1-3.2-5-5.8-6.7c-4.2-2.7-7.7-6.2-11.5-9.5c-1.6-1.4-1.3-2.8,0.7-3.4c3.4-1,6.6-2.3,10.1-3
		c3.9-0.8,6.5-3.7,9.1-6.3c0.1-0.1,0.1-0.4,0.1-0.8c-1.4,0.4-2,1.8-3.2,2.1c-2.1,2.7-5.1,3.8-8.3,4.3c-3.1,0.5-5.9,2-8.9,2.9
		c-1.9,0.6-2.4,2.6-1.3,4.3c0.3,0.4,0.6,0.8,1,1.1c4.7,3.8,8.9,8.1,14,11.3c0.9,0.6,1.7,1.4,2,2.3c1.3,5,5.3,6.8,9.7,7.8
		c2.1,0.5,3.9,1.4,5.5,2.6c4.3,3.3,9.2,5.7,13,9.6c0.8,0.8,2,1.3,3.2,1.9c-1.3,0.7-2.7,0.8-3.8,0.4c-2.5-0.9-5.1-1.5-7.1-3.5
		C261.9,79.1,258.6,78.2,255.3,77.2z"/>
	<path class="st2" d="M378.4,258.4c-0.2-1.2-0.2-2.4,0-3.6c0.6-0.3,0.2,0.7,0.6,0.5c2.1-1.2,4.6-2,4.8-5c0-0.6,0.3-1.1,0.9-1.1
		c1.7,0.2,1.5-0.9,1.4-1.9c0-0.6,0-1.2-0.1-1.8c-0.2-1.2,0.5-0.8,1.1-0.7c-0.4-1.7-0.9-3.3-2.1-4.7c-1.1-1.3-1.7-2.8-1.9-4.5
		c-0.1-0.6-0.3-1.3-1-1.4c-0.6-0.1-1,0.4-1.3,0.9c-1.1,1.7-2.2,3.3-1.3,5.5c0.8,1.7,0.3,3.5-1,4.9c-1.7,1.8-1,4.2-1.3,6.3
		c-0.2,1.1,0,2.3,0.1,3.5c0.1,1.7-0.3,3.3-1.7,4.6c-1.4,1.3-2.8,2.5-3.9,4.1c-0.4,0.6-0.9,1.3-0.4,2c0.4,0.6,1.1,0.1,1.7,0
		c3.8-0.9,3.8-0.9,4.5-4.8C377.7,260.1,377.7,259.2,378.4,258.4z"/>
	<path d="M378.4,258.4c-0.8,0.6-1.3,1.7-1.5,3.6c-0.4,2.9-0.4,2.9-3.2,3.3c-0.7,0.1-1.4,0.4-2.2,0.6c0.2-1.2,0.7-2,1.5-2.7
		c1.1-1.1,2.1-2.2,3.2-3.2c1.6-1.4,1.8-3.2,1.6-4.9c-0.4-2.6,0.5-5.2,0.3-7.8c0-0.5,0.4-0.9,0.8-1.2c2-1.8,1.9-3.9,1.2-6.2
		c-0.4-1.3,0.6-4.5,1.8-5.2c0.7-0.4,0.8,0.2,0.8,0.5c0.1,2.8,1.6,4.9,3.3,6.9c0.1,0.1,0.3,0.4,0.3,0.4c-1.3,1.4,0.6,1.6,0.9,2.3
		c1.2-0.4,0.7-1.2,0.4-2c-0.4-1.2-1.4-2-1.9-3.1c-0.5-2.2-1.7-4.1-2-5.3c0.5,1,2.2,1.6,3.9,2.1c2,0.6,3.5,1.8,4.7,3.5
		c0.8,0.7,1.4,2.5,2.5,1.7c0.7-0.4-0.8-1.7-1.3-2.6c-1.1-2-2.6-3.3-4.8-3.9c-0.5-0.8-1.4-1-2.2-1.4c-2-1-2.1-1.3-1.1-3.2
		c0.2-0.4,0.1-0.8,0.3-1.2c0-0.1,0.1-0.2,0.1-0.3c-0.9,0.3-1.9,1.3-3.3,2.7c-5.6,5.8-6.5,12.9-5.6,20.4c0.2,1.4,0.3,2.9,0.1,4.4
		c-0.1,0.8,0.2,3.1-2,1.4c-0.6-0.5-1.3,0.2-1.7,0.7c-0.4,0.5-1,1-0.7,1.7c0.2,0.6,0.9,0.1,1.4,0.3c-1.2,1.6-2.9,2.8-3.4,5.2
		c-1.8-2.4-3.3-4.4-4.8-6.4c-0.7,0.7-0.2,1.3,0.2,1.9c1.3,1.8,2.6,3.6,3.8,5.4c1.5,0,2.9,0,4.4,0c1.9,0,3.2-1,3.6-3
		C377.9,261.9,378.1,260.1,378.4,258.4z"/>
	<path d="M324,271.1c0.4-1.1,0.8-2.2,0.7-3.3c0-0.4,0-0.8,0.4-1.1c2-1.2,2-3.2,1.7-5c-0.4-2.6-1.7-4.7-4-6.8
		c0.7,3.8,4.5,6.5,2.1,10.7c-1.2-6.6-4.7-11.6-8.7-16.3c-0.7-0.9-1.1-1.6,0.1-2.5c1.3-1,2-2.5,2.9-3.9c0.2-0.3,0.5-0.8,0.1-1.1
		c-0.5-0.4-0.9,0-1.2,0.4c-0.9,1.3-1.8,2.6-2.6,3.9c-0.7,1.1-1.3,0.9-1.7-0.2c-0.1-0.4-0.2-0.9-0.5-1.1c-4-3.4-4.3-8.4-5.8-13
		c-1.4-4.2-1.4-8.6-2.5-12.8c-0.5-1.9-1-3.7-1.4-5.6c-0.2,0.1-0.9-1-0.7,0.2c0.2,1.1,0.5,2.1,0.7,3.2c0.7,4.2,1.3,8.5,2,12.7
		c1.6,9.2,6,16.9,12.3,23.6c3.9,4.2,5.5,9.3,5.3,15c0,0.9-0.2,1.8-0.3,2.7C322.8,272.3,323.4,271.7,324,271.1z"/>
	<path d="M313.4,301.3c-2.9,0.4-5.9,0.9-8.9,1.3c0.5,0.8,1.1,0.5,1.7,0.5c3.8-0.1,7.6-0.5,11.3-1.6c0.3-0.1,0.7-0.1,1.1-0.1
		c9.7-3.1,16.6-9.5,21.4-18.3c3.4-6.3,5.1-13.1,5.3-20.3c0.1-5,0.3-10.1,2.5-14.8c0.2-1.4,1-2.5,1.6-3.8c-1.1,0.1-1.5,0.9-1.8,1.7
		c-1.3,2.9-2.1,5.8-2.6,9c-1,6.6-0.5,13.3-2.5,19.7c-4.1,12.7-11.9,21.6-24.8,25.7C316.1,300.8,314.7,301,313.4,301.3z"/>
	<path d="M302,304.3c-1.4-4.5-3.6-8.4-6.7-11.9c-0.5-0.6-1.1-1.1-1.7-1.6c-1.6-1.2-3.1-2.5-4.3-4.1c-1.2-1.7-3-2.8-4.9-3.6
		c-0.8-0.3-1.6-0.6-2.4,0.1c2.8,1.1,5.2,2.8,7,5.3c0.6,0.8,1.4,1.6,2.2,2.2c4.2,3.3,6.7,7.6,8.7,12.5c3.1,7.5,1.2,13.8-3.7,19.8
		c-2.8,3.4-6.2,6.1-9.2,9.3c-1.2,1.3-2.2,2.7-2.4,4.8c1.9-1.3,2.5-3.6,4.3-4.6c1.2-1.7,2.9-2.9,4.3-4.4c3.9-3.8,7.4-7.9,9-13.4
		C303.2,311.2,302.5,307.8,302,304.3z"/>
	<path class="st1" d="M259.6,318.3c1.4-1,2.3,0.2,3,0.9c2.6,2.7,4.9,5.5,4.9,9.6c1.1-2.9,2.1-5.9,2.3-9c0.1-1.2-0.5-2.5-1.5-3.2
		c-1.9-1.5-3.3-3.5-5.7-4.5c-0.7-0.3-1.1-0.4-1.8-0.1c-1.7,0.8-3.5,1.6-5.2,2.4C257.5,315.2,258.1,317.2,259.6,318.3z"/>
	<path class="st3" d="M315.1,243.6c0,0.3-0.1,0.8,0.3,1c0.5,0.2,0.7-0.3,0.8-0.7c0.6-1.5,1.6-2.8,2.4-4.2c0.3-0.5,1.2-0.7,0.9-1.4
		c-0.3-0.7-1.1-0.2-1.8-0.4c2.5-1.3,3.7-3.8,6.2-5.5c-0.8,2-2.2,3.2-2.8,5c0.5-0.4,1.1-0.8,1.6-1.3c2.5-4.4,5.5-8.5,8.8-12.4
		c-0.6-1.2-1.1,0.5-1.8,0c-0.1-1.1,0.9-1.5,1.6-2c0.7-0.5,1.7-0.7,2.5-1.1c0.9-0.4,1.6-0.9,1.7-1.9c0-1-0.8-1.4-1.5-1.9
		c-0.3-0.1-0.6-0.2-0.8-0.6c1.7-0.5,3.5-0.4,5.1-0.9c0.6-0.2,1.8-0.1,0.9-1.4c-2.1,0.3-4.2,0.7-6.3,0.6c-0.8,0-1.9-0.4-2,0.7
		c-0.1,1,0.3,2.1,1.5,2.6c0.3,0.1,0.6,0,0.7,0.4c0.2,1.3-1.1,0.9-1.5,1.5c-1.8,1.1-3.1,2.9-5,3.8c-0.4,0.2-0.7,0.5-0.4,1
		c0.6,0.9,0.5,1.3-0.5,2c-1.4,1-2.8,1.9-4.2,2.9c-0.6,0.4-1.7,0.9-1.4,1.7c0.3,1.1,1.4,0.1,2.1,0.2c0.2,0,0.4,0,0.9,0
		c-2.2,2.2-4.2,4.2-6.3,6.3c-1,1-1.4,1.7,0.6,1.8C316.8,240.9,315.5,242.1,315.1,243.6z"/>
	<path class="st4" d="M351.6,235.3c0.2,0,0.6,0,0.7-0.1c0.4-0.4-0.1-0.7-0.4-0.8c-1.4-0.6-2.9-1.2-4.4-1.7c-2.9-1-5.7-1.8-8.1-3.9
		c-1.4-1.2-2.3-2.7-3.5-4.1c3.7,2.2,8.2,2.1,11.8,4.4c2.4,1.6,4.6,3.4,7.2,4.9c1.8,1.1,3.7,2.1,5.4,3.3c0.8,0.6,1.5,1.2,1.8,2.2
		c0.1,0.9,0.7,1.4,1.5,1.7c0.6-0.7,0.1-1.2-0.3-1.8c-0.9-1.6-2.4-2.7-4-3.6c-3.2-1.9-6.3-3.9-9.2-6.1c-3.1-2.4-5.2-5.4-6.2-9.1
		c-1.2-4.5-2.9-8.7-6.7-12c1.1,0,1.6,0.8,2.3,1.2c0.5,0.3,0.9,1.2,1.7,0.7c-1.8-1.6-3.5-3.3-6.1-3.4c1.4,2.4,3.3,4.3,5,6.4
		c0.2,0.6,0.2,1.2,0.5,1.7c1.2,2.5,1.6,5.3,2.7,7.9c0.5,1.2,1.1,2.3,1.8,3.4c-0.8-0.4-1.4-0.7-2.1-0.9c-2.8-0.6-5.2-1.8-7.6-3.3
		c-0.5-0.3-1-0.7-1.7-0.6c-0.1,0-0.1,0.1-0.2,0.1c0.6,3.5,3.2,5.7,5.6,7.9c2,1.8,4.3,2.8,6.9,3.5C348.1,233.7,350,234.3,351.6,235.3
		z"/>
	<path d="M333.8,171.1c-0.4-0.6-0.7-0.3-1,0c-6.6,6.7-14.6,12-20.8,19c-4.3,4.9-8.5,9.9-10.1,16.4c-0.2,0.9-0.4,1.7,0.1,2.6
		c0.7-0.2,0.6-1,1-1.3c0.2-1.6,1.1-3,1.9-4.4c2.5-4.2,5.4-8.2,8.7-11.8c2.5-2.7,5-5.4,7.7-7.9c3.8-4,8.2-7.3,11.8-11.5
		C333.4,171.9,333.8,171.7,333.8,171.1z"/>
	<path d="M279,368.9c0.9-1.1,0.7-3.6-0.2-4.4c-0.6-0.5-1.2-0.4-1.8,0c-0.8,0.6-1.4,1.4-2,2.4c-0.5-0.5-0.4-0.9-0.2-1.2
		c2-3.7,1.1-7.1-0.7-10.5c-0.8-1.6-1.7-3.2-2.5-4.8c-1.3,0.1-1,1.1-0.9,1.8c0.3,1.4,1.1,2.7,1.8,4c0.4,0.7,0.8,1.5,1.1,2.3
		c-2.2-2.7-4.5-5.3-6.3-8.4c-0.9-1.6-1.9-3.1-1.8-5c0-0.4,0-1-0.7-1c-1.6,1.1-1.7,2.4-0.8,4.1c2,3.9,4.7,7.3,7.7,10.5
		c0.6,0.6,1.1,1.3,1.7,1.9c1.2,1.2,1.4,2.4,0.4,3.8c-1.1,1.6-0.5,3.1,0.4,4.5c0.3,0.5,0.7,0.9,1.3,0.7c0.6-0.1,0.6-0.7,0.7-1.2
		c0.2-1.1,0.5-2.2,1.6-3C278.6,366.6,278.2,368,279,368.9z"/>
	<path d="M349.5,212.7c0.2,0.3,0.2,0.9,0.8,0.9c3.4,0,6.4,1.2,9.4,2.3c0.8,0.3,0.9-0.1,0.6-0.6c-0.3-0.7-0.9-1.1-1.6-1.4
		c-1.5-0.8-3.2-1.1-4.8-1.5c-0.2,0.2-0.2-0.3-0.1,0c0,0.1,0.1,0.1,0.2,0c1-1.2-0.1-1.6-0.7-2.3c2.1,0.5,4.2,1.2,6.3,2
		c0.9,0.3,1.7,0.7,2.3,1.4c0.6,0.7,1.3,1.6,2.3,1.2c1.1-0.4,0.5-1.6,0.7-2.4c2.1,2,4.1,4.1,5.5,6.8c0.2,0.5,0.6,0.8,1,1
		c1-0.1,0.6-0.9,0.7-1.5c-1.8-3.7-5.3-6.1-7.2-9.7c-0.3-0.5-1-0.9-1.1,0c-0.2,1.1-1.2,1.9-1.2,3.2c-3-2.2-6.5-3-10-3.9
		c-1-0.3-2.5-0.7-2.2,1.6C350.5,210.3,350.7,212,349.5,212.7z"/>
	<path d="M221,66.3c1.9-0.6,2.9-2.2,4.1-3.6c0.6-0.6,1.2-1.2,1.9-1.7c2-1.4,2.8-1.1,3.8,1.1c1.5,3.2,3,6.3,6.3,8.2
		c1.6,1,2.9,2.5,4.3,3.9c1.7,1.6,3.7,2.2,5.9,2.5c0.6,0.1,1.1,0,1.4-0.5c-3.9-0.6-6.5-3.2-9.4-5.6c-3.5-2.9-6-6.2-7.6-10.3
		c-0.6-1.5-2.2-2.1-4-1.4c-1.5,0.6-2.9,1.4-3.9,2.8c-1.1,1.3-1.9,3-3.5,3.8c-0.4,0.2-0.8,1-0.4,1.4C220.3,67.3,220.5,66.3,221,66.3z
		"/>
	<path class="st0" d="M385.6,229.4c-2.4,3.1-2.2,3.7,1.3,5.1c0.6,0.2,1.1,0.5,1.7,0.7c0-1.1,1.1-1.6,1.5-2.4
		c3.8-3.4,5.9-8.3,9.9-11.5c0.4-0.3,0.9-0.8,0.5-1.4c-0.4-0.4-0.9-0.1-1.3,0.1c-3.2,1.3-5.9,3.3-8.1,6c-1.3,1.6-2.6,3-4.4,4
		c-0.3,0.2-0.6,0.4-1,0.1C385.6,229.9,385.6,229.7,385.6,229.4z"/>
	<path d="M353.8,129.5c-0.7,1-0.1,1.9,0.2,2.8c2.4,7,0.4,13-3.9,18.7c-3.9,5.2-8.3,10-12.5,15c-0.5,0.6-1.5,1.2-1,2.2
		c0.6-0.2,1-0.6,1.5-1.1c5.1-5.1,9.7-10.6,13.8-16.4C356.8,144,357.2,136.9,353.8,129.5z"/>
	<path d="M385.6,230.1c-0.1,0.3-0.3,0.7-0.2,0.8c0.2,0.3,0.5,0,0.8-0.1c2.1-1.1,3.8-2.7,5.2-4.5c2.4-3,5.5-4.9,9.1-6.3
		c-1.2,1.6-2.9,2.7-4.1,4.3c-2,2.7-3.8,5.6-6.3,7.9c-0.2,0.2-0.2,0.4,0.1,0.6c2.5-1.2,4-3.3,5.4-5.5c1.9-2.9,4.3-5.4,7.1-7.4
		c0.7-0.5,2-1.1,1.4-2c-0.4-0.7-1.6-0.1-2.5,0.2c-4.7,1.5-8.8,3.8-11.9,7.8C388.5,227.5,387,228.7,385.6,230.1z"/>
	<path d="M327.6,467.5c0-1.1,1.3-1.8,0.9-3.2c-2.4,4.8-6.7,7.9-9.9,11.9c-1.5,1.8-2.5,3.8-3.1,6.1c-0.2,0.8-0.4,1.7-1.5,2.7
		c0.6-6.3,4.7-10.5,6.4-15.8c-2.3,2.1-3.5,4.9-5.3,7.4c-0.7,1.9-1.4,3.7-2,5.6c-0.4,1-0.5,2.1,0.3,3.1c0.8,1,1.7,1.2,2.2-0.2
		C317.6,477.9,322.5,472.6,327.6,467.5z"/>
	<path class="st1" d="M264.8,344.1c0.7,6.5,5.4,10.6,9,15.3c0.1,0.1,0.2,0.1,0.4,0.1c0.1-1.2-0.4-2.2-1-3.2c-0.8-1.3-1.6-2.7-2-4.2
		c-0.2-0.7-0.4-1.3,0.5-1.7c-0.3-1.4-1.1-2.5-1.7-3.8c-0.3,1.2-0.9,0.8-1.3,0.2c-0.6-0.9-1.1-1.8-1.6-2.8c-0.6,0.2-1-0.3-1.5-0.5
		C264.9,343.4,264.9,343.8,264.8,344.1z"/>
	<path class="st5" d="M341.1,214.8c-0.1-0.5-0.3-1.1-0.7-1.4c-0.1,0.7-0.8,0.2-1.1,0.4c0.3,1.2-0.7,0.9-1.2,1
		c-1.9,0.3-3.9,0.6-5.9,0.8c0.4,1.1,1.3,1.2,2,1.6c0.5,0.3,1.1,0.6,1,1.3c-0.1,0.8-0.6,1.1-1.2,1.4c-1.6,0.6-3.4,1.1-4.5,2.6
		c-0.2,0.3-1.1,0.5-0.3,1.2c0.6,0.5,0.9,0.9,1.5,0.1c0.2-0.2,0.4-0.7,0.8-0.3c0.7-0.6,1.4-1.2,2.2-1.9c0,0,0,0,0,0
		c2.2-1.5,4.5-2.8,6.3-4.8C340.7,216.4,341.2,215.7,341.1,214.8z"/>
	<path d="M313.7,469.2c0,0.5,0.1,1,0.1,1.5c0.2,0.1,0.4,0.2,0.5,0.2c2-7.6,8.6-12.7,10.9-20.1c-0.2-0.1-0.3-0.2-0.5-0.3
		c-0.6,0.9-1.2,1.8-1.8,2.6c-2.3,3.2-4.8,6.3-6.8,9.8C315,465,314.1,467,313.7,469.2z"/>
	<path d="M321.7,452.6c0.3-0.2,1.4,0.3,0.9-0.8c-0.9-2-0.3-3.8,0.6-5.5c2.1-4,2.3-8.3,0.5-11.7c-0.2,1.2,0.3,2.4-0.3,3.4
		c-0.2,2.5-0.7,5-2,7.2c-1,1.8-1.4,3.8-0.7,5.9C320.7,451.7,320.9,452.3,321.7,452.6z"/>
	<path class="st6" d="M321.3,183.8c-2.8,1.9-5,4.4-7.2,6.8c-3.1,3.4-5.9,7-8.4,11c-0.4,0.6-0.8,1.2-0.8,2c0.4-0.5,0.9-0.9,1.3-1.5
		c4.4-6.2,9.8-11.6,14.5-17.5C321,184.3,321.1,184,321.3,183.8z"/>
	<path d="M400.6,205.4c-0.4-0.7-1-0.3-1.4-0.1c-5.8,3.6-9.5,8.7-10.6,15.6c0,0.1,0.1,0.3,0.2,0.5C391,214.7,394.9,209.4,400.6,205.4
		z"/>
	<path class="st7" d="M392.2,240c-0.1-1.8-1.5-2.5-2.8-3.2c-1.2-0.6-2.6-1-3.9-1.6c-1-0.4-1.7-1.1-2.4-1.9c0.5,2.3,1.1,4.5,2.5,6.3
		c1.2-1.8,2.7-1.8,4.4-0.7C390.7,239.5,391.5,239.7,392.2,240z"/>
	<path class="st4" d="M273.6,373.6c-0.5,0.9,0.5,2.9,1.6,3.5c1.2,0.6,4-0.1,4.7-1.2c0.7-1.1,0.3-4.6-0.6-5.4c-0.4-0.4-0.6,0-0.9,0.2
		c-0.3,1,0.2,1.9,0.5,2.8c0.3,1.1,0.2,2.1-1,2.7c-1.2,0.6-1.9-0.3-2.6-1C274.6,374.8,274.7,373.6,273.6,373.6z"/>
	<path class="st8" d="M380.2,223.7c1.7,0.5,2.9-0.3,3.6-1.7c1-2,2.4-3.8,3-5.9c0.4-1.5,1.6-2.4,2.6-3.4c0.5-0.5,1.3-0.9,0.9-1.9
		c-2.1,1.6-3.4,3.9-4.7,6.2C384.2,219.5,383.2,222.4,380.2,223.7z"/>
	<path d="M292.9,380.6c0.9,0.6,1.7,1.3,2.8,1.6c1,0.3,1.8,0,2.2-0.8c0.4-0.9,0.1-1.7-0.7-2.2c-0.7-0.4-1.4-0.7-2.2-1.1
		c0.1,1.2,1.3,1.4,1.4,2.4c-1.6,0-2.7-1.3-4.2-1.4C291.8,379.9,292.7,380,292.9,380.6z"/>
	<path class="st9" d="M376.1,221.1c0,0.7,0.4,0.6,0.9,0.4c0.7-0.2,0.9-1,1.4-1.3c1.2,1-0.3,2.5,0.7,3.5c1-1.2,1.1-3.7,0.3-4.9
		c-0.4-0.6-0.7-0.8-1.2-0.1C377.6,219.5,376.8,220.3,376.1,221.1z"/>
	<path d="M272.1,380.2c0.2-1.7-0.3-3.4,0.3-5c0.1-0.4,0.1-0.8-0.3-0.9c-0.5-0.2-0.7,0.3-1.1,0.5
		C270.1,377.3,270.5,379.3,272.1,380.2z"/>
	<path class="st10" d="M373.2,219.3c-1,1-1,1-1.4,2.4c0.6-0.1,1.2-0.5,1.6,0.6c0.4,1.1,0.7-0.5,1.2-0.5c0-0.6,0-1.2,0-1.8
		C374.7,218.6,374.2,218.5,373.2,219.3z"/>
	<path class="st11" d="M212.7,80.4c0.5,2.3,1.8,3.7,3.9,4.1C215.3,83.2,214,81.8,212.7,80.4z"/>
	<path class="st5" d="M331.6,219.6c0.5-0.1,1-0.2,1.5-0.3c0.3-0.1,0.8-0.1,0.8-0.5c0-0.2-0.5-0.4-0.8-0.6
		C332.9,218.9,331.8,218.8,331.6,219.6z"/>
	<path class="st1" d="M246.1,286c2.3-3.8,5-7.2,8.3-10.3c3-2.9,5-6.7,6.2-10.7c0.7-2.5,0.3-3-2.1-3.5c-2.3-0.4-4.6-0.6-6.8-1.1
		c-3.5-0.8-4.7-2.4-4.7-6.1c0-5.4-2-8.4-7-10.2c-3.1-1.1-5.9-2.6-7.5-5.6c-0.5-1-1.5-1.5-2.8-1.4c-1.8,0.1-3.6,0.1-5.5-0.3
		c3-2.5,6-4.9,9-7.4c2-1.7,4.2-3.4,4.9-6.1c0.6-2.3-0.1-4.6-2-5.9c-1.1-0.8-1.3-1.7-0.7-2.8c0.8-1.6,1.7-3.1,2.5-4.7
		c0.3-0.5,0.6-1.1,0.7-1.7c0.5-2,0.1-2.7-1.9-3.1c-8.5-1.9-16.2-0.4-22.9,5.5c-1.2,1.1-2.7,1.6-4.4,1.1c-1.2-0.3-2.4-0.2-3.6-0.2
		c-1.4,0.1-2.7-0.1-3.8-0.9c-1.6-1.1-2.8-0.4-3.9,0.8c-1.3,1.4-2.5,2.9-3.4,4.7c-0.3,0.6-0.5,1.4-1.4,1.1c-0.8-0.2-1-0.9-1.1-1.7
		c-0.2-3.5,0.4-6.9,1.6-10.2c1.4-4,3.1-7.9,5.4-11.5c1.7-2.6,4.1-4.6,6.2-6.9c2.7-3,4.6-6.7,8.1-9c-0.1-0.1-0.2-0.3-0.3-0.4
		c-2.1,0.5-4.2,0.9-6.3,1.4c-2.3,0.5-2.8,0.1-2.9-2.2c0-1.5,0.1-3.1,0.7-4.5c1.6-3.5,1.3-6.9,0.3-10.6c-1.1-3.9-0.9-8,0.7-11.8
		c1.9-4.6-0.1-7.9-2.9-10.9c-3-3.3-2.2-5.1,1.9-6.9c4.3-1.9,7.5,0.1,11,1.4c3.4,1.3,6.8,1.9,10.5,1.5c1.2-0.1,2.1-0.8,2.8-1.5
		c0.8-0.8,1-1.9,0.3-2.8c-0.7-0.9-1.6-0.6-2.4,0c-0.6,0.5-1.2,0.9-1.9,0.4c-0.5-0.3-0.8-0.8-0.7-1.4c0.2-1,1-1.5,1.8-1.6
		c2.9-0.5,5.7-0.8,8.6-1.2c4.1-0.5,8-2.1,11.8-3.5c0.7-0.3,1.4-1,1.2-1.8c-0.2-0.8-1.1-0.5-1.8-0.5c-3.1-0.2-6.4-0.2-8.7-2.9
		c-0.6-0.7-1.1-1.6-1.7-2.4c-1.7-2.5-3.6-3.2-6.6-2.6c-4.5,0.9-8.6,2.5-12.6,4.7c-3,1.6-6.1,1.7-9.4,1c-2.2-0.4-3.5-2.2-5-3.5
		c-1.2-1-2.5-1.4-3.9-1.7c-3-0.5-6-0.9-8.9-1.4c-3.2-0.5-6.1-1.7-8.6-3.7c-0.3-0.2-0.5-0.8-1-0.4c-2.3,1.8-5.4,2.3-7.1,4.6
		c-3.4,4.8-8.3,7.2-13.6,8.9c-4,1.3-7.5,3.8-11.5,5c-5.5,1.7-11.1,3-16.8,3.7c-3.3,0.4-6.4,1.5-9.4,2.8c-3,1.3-5.9,2.8-8.9,4.2
		c-2.1,1-3.7,2.7-5.1,4.6c-0.7,0.9-0.3,1.2,0.6,1.2c4.7,0.4,9.4,0.3,14.1-0.6c5.7-1.1,13.1,2.8,14.7,8.3c1.1,3.9,4.1,5.3,7.2,6.5
		c2.9,1.2,5.5,3,8.5,4c0.6,0.2,1.1,0.5,1.7,0.4c3.6-0.6,7.3-0.9,10.6-2.9c1.1-0.7,2.3-1.9,3.6-0.7c1.2,1.1,1.7,2.8,1.2,4.5
		c-0.5,1.6-0.9,3.1-1.2,4.7c-0.5,2.6,0.6,4,3.2,4.2c1.2,0.1,1.7,0.8,1.8,1.9c0.1,1.1-0.2,2.1-0.4,3c-0.3,1.4,0.4,1.3,1.2,1.1
		c2.2-0.6,4-1.8,5.2-3.8c1.2-1.9,2.5-3.5,4.5-4.7c1.3-0.8,2-0.4,2.7,0.7c1.4,2.4,0.7,7.8-2.3,9c-5.4,2.3-7.3,6.9-8.6,12.1
		c-0.6,2.5-0.7,5.1,0,7.6c1.4,4.9,1,9.8-0.6,14.5c-1.6,4.7-2.9,9.6-5.3,14.1c-2.2,4-5,7.6-7.4,11.4c-0.3,0.5-0.6,0.9-0.8,1.4
		c-0.3,0.8-0.1,1.3,1,1.1c6.2-1.3,12.4-2.6,18.5-4.4c1.2-0.3,2.1-1.2,2.9-2.1c3.7-4,7.8-7.2,12.8-9.6c5.5-2.6,11.4-4,16.9-6.7
		c1.4-0.7,3-1.1,4.6-0.6c1.5,0.5,2.3,1.8,1.5,3.1c-4.1,6.7-6.5,14.3-11.3,20.5c-1,1.4-2,2.8-2.5,4.4c-1.1,3.8-3.4,7.1-5.2,10.6
		c-1.1,2.2-2.3,4.4-3.1,7.1c1.2-0.5,1.5-1.5,2.1-2.2c6.1-7.6,13.1-14,22.2-17.8c3.8-1.6,7.5-0.9,10.8,1.6c5.7,4.5,7.4,10.4,6.4,17.5
		c-0.6,4.1-1.7,7.9-3.5,11.6c-2.6,5.2-3.8,10.8-5,16.5c0.7,0.5,1.6,1,2.1,1.7c1.6,2,3.2,1.5,5.1,0.4c2.7-1.5,4.8-3.6,7.1-5.6
		C244.9,286.8,245.3,286.1,246.1,286z"/>
	<path class="st1" d="M329.7,145.4c-0.7,3.3-2.1,6.2-5,8.2c-1.2,0.8-2.4,1.6-3.4,2.7c-4,4.2-8.5,7.7-12.9,11.4
		c-5.6,4.6-11.6,8.8-16.8,13.8c-5.5,5.1-9.1,11.4-10.4,18.9c-0.7,4.4-1.3,8.8-1,13.2c0.3,4.8,1,9.6,1.3,14.4
		c0.5,6.8,2.9,13.2,4.9,19.7c0.6,2,0.9,4,0.7,6.1c-0.1,1.2-0.3,2.3-1.7,3.1c-1.2,0.6-1.6,2.3-1.8,3.8c0,0.2,0.2,0.6,0.4,0.8
		c1,0.9,4.7,0.8,5.8-0.2c0.6-1.3,1.5-2.4,2.3-3.5c1.1-1.4,1.4-3,1.1-4.8c-1.4-8.7-3.1-17.4-3.9-26.1c-0.6-6.9-0.7-13.8-0.2-20.7
		c0.2-2.7,0.3-5.3,0.8-8c0.5-2.6,1.6-5,3.3-7c3.2-3.9,6.2-8.1,10-11.6c2.5-2.3,5-4.6,7.8-6.6c1.8-1.2,3.3-2.7,4.6-4.4
		c0.7-1,1.6-1.9,2.6-2.5c2.4-1.5,4-3.7,5.5-6c0.9-1.5,2-2.9,3.3-4.1c2.4-2,3.8-4.7,5.2-7.4c0.5-1,0.6-2-0.1-2.9
		C331.3,144.8,330.5,144.2,329.7,145.4z"/>
	<path class="st1" d="M275.4,53.9c-0.6-0.7-1.4-1.2-2.5-1.2c0.5,2,2.1,3.3,3.3,4.7c2.3,2.7,4.2,5.6,6,8.6c1.5,2.4,3.4,4.5,4.8,7
		c2.4,4.3,4.5,8.7,7.1,12.9c3,4.8,5.8,9.8,9.8,14c0.7,0.7,1.2,1.7,1.8,2.5c3.8,5.2,9.1,8.6,13.9,12.7c2.6,2.2,4.9,4.6,7.2,7
		c3.4,3.5,7.2,6.5,10,10.6c0.6,0.9,0.7,1.5-0.1,2.1c-1.2,0.9-1.6,2.4-2.6,3.5c0.3,1.3,2,1.4,2.3,2.6c-0.3-0.2-0.7-0.5-1.1-0.2
		c0.4,1.5,1.3,1.8,2.7,1.3c1.1-0.4,2-0.9,2.7-1.9c-0.3-0.4-0.8-0.4-1.5-0.5c2-0.7,3.5-1.7,5-2.8c1.6-1.2,1.9-2.5,0.7-4.1
		c-2.8-3.5-5.3-7.2-8.3-10.6c-3.4-3.7-6.8-7.4-10.7-10.6c-0.2-0.2-0.3-0.3-0.2-0.6c-0.5-0.9-1.2-1.5-2.1-2c-2.8-1.6-4.9-4.1-7.2-6.4
		c-0.4-0.4-0.6-1-0.9-1.5c-2.2-1.9-4.6-3.7-6.6-5.8c-0.5-0.5-0.8-1-1.3-1.5c-5.2-4.5-9.2-10.1-13.5-15.5c-2-2.5-3.4-5.4-5.3-8.1
		c-2.8-3.9-6.1-7.4-9.2-11.1C278.1,57.4,276.3,56,275.4,53.9z"/>
	<path class="st1" d="M227.2,388.2c-1.7-4.1-3.4-8.2-4.4-12.5c-1.2-5.6-1.4-11.3-0.8-17c0.4-4.2,1.1-8.3,2.3-12.3
		c2.1-7.1,5.6-13.4,10.7-18.8c6.9-7.4,15.5-12.4,24.8-16.2c0.3-0.1,0.5-0.3,1-0.5c-2.8-2.8-6.3-5-6.9-9.3c-3.3,1.5-6,3.9-8.7,6.2
		c-4,3.4-7.5,7.2-11,11.1c-7,7.6-12,16.2-13.9,26.5c-0.9,4.9-2.3,9.7-1.8,14.7c0.9,8.7,2.1,17.3,6.8,25
		C225.9,386.2,226.1,387.5,227.2,388.2z"/>
	<path class="st1" d="M305.6,151.3c0.8-0.4,2.1-0.5,2-1.5c0-0.9-1.1-1.5-1.9-2.1c-0.9-0.6-1.9-0.6-2.8-0.4c-1.2,0.3-2.4,0.3-3.6,0.3
		c-6.8-0.4-13.2,1.3-19.6,2.9c-10.7,2.7-21.1,6-30.8,11.3c-4.4,2.4-8.5,5.2-12.3,8.6c-4.7,4.2-8.5,9.1-12.1,14.2
		c-0.5,0.7-1.1,1.3-1.5,2.1c1.7-1.1,3.4-2.2,5.1-3.3c4.5-3.2,9.1-6.5,13.6-9.7c0.2-0.1,0.3-0.4,0.4-0.6c-0.9-0.5-1.5,0.2-2.2,0.6
		c-3.9,2.4-7.7,4.8-11.3,7.5c8.3-6.3,17.3-11.6,26.7-16c6.8-3.2,13.9-5.4,21.2-7.3c8.5-2.2,17-4.2,25.5-6
		C303.3,151.8,304.4,151.4,305.6,151.3z"/>
	<path class="st1" d="M240.7,96.6c2.1,2,4.7,3.2,7.2,4.6c8.4,4.5,16.9,8.8,25.1,13.6c5,2.9,9.9,6,14.9,9.1
		c5.2,3.2,10.6,5.9,16.2,8.2c1.3,0.5,2.6,1.3,3.9,2c2.2,1.1,4.2,0.6,6.1-0.9c0.2-0.1,0.2-0.1-0.7-0.7c-1.9,0.2-3.5-0.8-5.1-1.6
		c-6.6-3.2-13-6.9-19.2-10.9c-7.9-5.1-15.8-10.3-24.1-14.7c-2.8-1.5-5.7-2.8-8.5-4.2c-4.4-2.3-9.2-3.4-14-4.5
		C241.8,96.4,241.2,96.1,240.7,96.6z"/>
	<path d="M335.3,140.7c0.7,0.1,1.1,0.9,2,0.9c-0.5-1.7-1.8-2.5-3.2-3.4c-7.1-3.3-13.8,2.2-17.1,7.3c-0.4,0.7-0.8,1.4-1.5,1.8
		c-0.8,0.6-1,1.4-0.4,2.2c0.6,0.9,1.4,1,1.7-0.1c0.3-1.2,1.1-1.4,2.1-1.7c3.6-0.9,7.1-1.9,10.8-2.4c0.6-0.5,1.3-0.5,1.7,0.2
		c0.5,0.7,0.7,1.5,0.3,2.4c-1.6,2.9-3,5.9-5.7,7.9c-2.2,1.7-3.1,4.5-4.9,6.5c-0.7,0.8-1.3,1.5-2.2,2.2c-1.7,1.3-3.3,2.7-4.6,4.4
		c-1.7,2.2-4.2,3.6-6.4,5.4c-5,4.2-9.4,8.9-13.4,14.1c-2.6,3.3-4.9,6.6-5.7,10.8c-0.5,3.2-0.6,6.4-0.8,9.6
		c-0.2,3.6-0.1,7.3-0.1,10.9c0.1,5.5,1,10.9,1.7,16.4c0.8,6.1,2.1,12,2.9,18.1c0.2,1.7-1,2.8-1.8,4c-0.6,0.9-1.7,1.5-1.3,2.9
		c0,0,0,0,0,0c1-0.7,1.8-1.6,2.6-2.5c2-2,2-4.4,1.7-6.9c-1-8.5-2.8-16.8-3.6-25.3c-0.7-8.1-0.6-16.3-0.6-24.4c0-4.7,2-8.6,4.9-12.4
		c4-5.1,8.2-9.9,13.4-13.8c3.1-2.3,6.3-4.6,8.9-7.5c2-2.2,4.9-3.5,6.5-6.1c1.7-2.7,3.8-5,6.1-7.2c2-1.9,2.9-4.6,4.1-7
		c0.7-1.3-0.1-2.8-0.9-3.9c-0.7-0.9-1.9-0.7-3-0.5c-3.7,0.7-7.3,1.7-10.9,2.8c-0.2,0.1-0.4,0-1,0.1c3.3-4.4,6.7-8,12.4-7.9
		C332.1,138.6,333.9,139.2,335.3,140.7z"/>
	<path class="st1" d="M315.5,128c0.3,0.3,0.6,0.5,0.9,0.1c0.4-0.5,0-0.9-0.4-1.2c-2.1-2.3-4.5-4.2-7-6.1
		c-8.4-6.6-17.7-11.8-27.3-16.6c-5.5-2.8-10.9-5.8-16.5-8.4c-2-1-4-1.6-6.1-2.3c-0.5-0.2-1.3-0.4-1.5,0.1c-0.2,0.8,0.5,1.1,1.2,1.2
		c0.4-0.3,0.7-0.1,1,0.1c11,7.3,22.6,13.7,34.1,20.3c6.8,3.8,13.4,7.8,20.1,11.8C314.7,127.1,315.3,127.4,315.5,128z"/>
	<path d="M240.7,96.6c9.1,1.4,17.3,5.3,25.3,9.7c7.5,4.1,14.7,8.8,21.9,13.4c6.1,3.9,12.4,7.5,18.8,11c1.6,0.8,3.3,1.3,4.9,1.9
		c0.6,0.2,1.2,0.4,1.7-0.2c-1.2-0.3-2.3-0.8-3.3-1.5c-8-4.6-16-9.2-23.7-14.3c-9.7-6.4-19.8-12.3-30.3-17.3
		c-5.1-2.5-10.7-3.7-16.2-4.7c-0.6-0.1-1.3-0.3-2,0c-1,0.3-1.9-0.5-3-0.2C236.8,95.3,238.7,96,240.7,96.6z"/>
	<path class="st1" d="M237.8,94.7c2.7,0.7,5.5,1.2,8.3,1.8c5.6,1.2,10.7,3.6,15.7,6.1c9.3,4.6,17.9,10.3,26.5,15.9
		c6.3,4,12.8,7.7,19.2,11.5c0.8,0.5,1.6,1,2.5,1c-1.5-1.9-3.7-2.9-5.8-4c-8.9-4.7-17.1-10.6-25.7-15.7c-4.6-2.7-9.3-5.5-14.1-7.9
		c-4.9-2.5-9.6-5.5-14.7-7.5c-4.2-1.6-8.6-2.3-13-2.8c-0.2,0-0.3,0.1-0.6,0.2C236.4,94,237.3,94.1,237.8,94.7z"/>
	<path d="M275.4,53.9c-0.5,0.5-0.1,0.7,0.2,1c3.4,4,6.8,8,10.2,12c2.2,2.7,4.1,5.6,6,8.4c3.5,5.3,7.3,10.3,11.8,14.9
		c3.6,3.6,7.2,7.4,11.1,10.7c0.2,0.2,0.6,1.1,0.9,0c-0.7-1.5-1.9-2.5-3.1-3.5c-1.6-1.3-2.9-3-4.4-4.4c-4.8-4.5-8.6-9.8-12.8-14.8
		c-2.5-3-4.1-6.7-6.5-9.8c-3.6-4.5-7.2-9.2-11.8-12.8C276.4,55.1,275.9,54.5,275.4,53.9z"/>
	<path d="M305.6,151.3c-3.6,0.2-7.2,1-10.7,1.8c-10.2,2.4-20.5,4.5-30.4,8.1c-11.6,4.1-22.4,9.9-32.3,17.1c-1.5,1.1-3,2.3-4.5,3.4
		c-0.1,0.1-0.1,0.3-0.3,0.6c4.5-2.9,8.9-5.7,13.2-8.4c0.5-0.3,1-0.7,1.6-0.8c10.6-6.9,22.2-11.4,34.3-14.5c8.5-2.2,17-4.2,25.5-6.2
		C303.2,152.1,304.4,151.7,305.6,151.3z"/>
	<path d="M315.5,128c0.2-1-0.6-1.2-1.2-1.5c-6.1-3.8-12.2-7.4-18.4-10.9c-6.9-3.9-13.8-7.8-20.7-11.9c-5.1-3-10-6.2-15.1-9
		c-0.2-0.1-0.8-1.2-1.1,0c2.8,1.9,5.4,4,8.3,5.8c7.3,4.5,14.8,8.9,22.3,13C298.3,118.3,306.7,123.4,315.5,128z"/>
	<path class="st1" d="M248.4,292.2c-0.1,0.4-0.3,0.9-0.5,1.5c3.8-1.7,7.2-3.6,10-6.4c4.5-4.5,8.9-9.1,14.3-12.5
		c0.7-0.4,1.4-0.6,2-1.3c1.2-1.6,1.1-2.3-0.6-3.1c-2.2,0.6-3.7,2.3-5.3,3.6c-4.8,3.7-9.3,7.6-12.7,12.7c-1.2,1.8-3.1,2.7-4.8,3.8
		C249.9,290.9,248.8,291.1,248.4,292.2z"/>
	<path class="st1" d="M297.3,170c2.2-0.6,3.6-2.4,5.4-3.5c0.5-0.3,0.3-0.7-0.2-1c-0.7-0.4-1.4-0.2-2.1,0c-4.9,1.5-9,4.5-12.9,7.6
		c-5.9,4.7-11,10.1-15.2,16.2c-0.4,0.6-0.8,1.1-0.9,1.8c0.8,0.3,1-0.4,1.4-0.8c6.2-6.4,12.6-12.6,19.7-18c2.3-1.7,5.1-2.9,7.1-4.8
		C299.1,168.4,297.4,168.4,297.3,170z"/>
	<path d="M248.4,292.2c3.8-1.9,6.9-4.3,9.5-7.9c2.9-4.1,7-7.2,11-10.3c1.6-1.2,3.2-2.4,4.7-3.6c-0.1-0.7-0.5-0.2-0.7-0.2
		c-3.5,1.1-6.6,3-9.4,5.4c-3.4,3-6.7,5.9-9,9.8c-1.3,2.2-3.7,3.5-5.4,5.3C248.7,291.1,247.7,291.3,248.4,292.2z"/>
	<path d="M325.7,110.8c-0.6,0.5-0.1,0.8,0.2,1c1.1,1.1,2.1,2.2,3.3,3.1c1.6,1.1,3,2.3,4,3.9c2.1,3.6,5.9,5.8,8,9.4
		c0.9,1.6,1.9,3.1,3.2,4.4c1.3,1.4,1,2.6-0.6,3.8c-1.7,1.2-3.4,2.3-5.6,3c0.8,0.8,1.7,0.4,2.5,0.6c1.6-0.6,2.9-1.5,4.3-2.4
		c2.4-1.6,2.2-3.7,0.4-6.4c-2.9-4.1-6.3-7.8-9.5-11.7C333,116,329.1,113.8,325.7,110.8z"/>
	<path d="M297.3,170c1.1-1,2.2-2,3.4-3c-0.4-0.3-0.8,0.1-1.1,0.3c-6.3,3.8-12.1,8.1-17.5,13.2c-3.7,3.5-7.2,7.1-10.8,10.7
		c-1,1.1-1.9,2.2-2.9,3.3c0.6,1.1,1.2,0.3,1.6-0.1c1.6-1.6,3.4-2.9,5-4.5c4-4,7.9-8.1,12.1-11.9C290.2,174.9,293.7,172.4,297.3,170z
		"/>
	<path class="st4" d="M246.2,51c-1.7-1.5-5.5-1.2-6.6,0.6c-0.6,0.9-0.6,1.9,0.2,2.7c2.9,2.5,6.1,4.8,9.8,6.1c1.2,0.4,2.5,0.2,3.3-1
		c0.7-1,0.3-2.1-0.4-3c-0.6-0.8-1.3-1.6-2-2.3c-0.4-0.4-0.9-1-1.7-0.5c0.3,1.3,1.4,2.1,2.1,3.1c0.3,0.5,0.9,1,0.3,1.6
		c-0.5,0.5-1.2,0.4-1.7,0c-2.1-1.8-4.3-3.3-6.6-4.9c-0.8-0.6-0.4-1,0.4-1.2C244.3,51.9,245.5,52.1,246.2,51z"/>
	<path class="st1" d="M287,178c-2.4,1.3-4,3.4-6,5.2c-3.8,3.5-7.3,7.3-11.2,10.7c-0.4,0.3-0.6,1.2-1.4,0.5c-1.7,1.8-3.4,3.6-5,5.3
		c1.8-1.1,3-3.3,5.1-4.4c0.5,1.7,1,1.9,2.2,0.6c2.6-2.8,5.3-5.5,7.7-8.4c2.6-3.1,5.3-6,8.1-8.8C286.7,178.5,286.9,178.2,287,178z"/>
	<path class="st3" d="M350.9,241.5c0.9-0.9,0.2-1-0.5-1.1c-1.9,0-3.6,0.9-5.4,1.5c-1,0.3-1.8,0.9-3.2,0.6c3.6-2.5,7.1-4.7,11.3-6.4
		c-0.6-0.1-0.9-0.1-1.2-0.2c-2,0.6-3.9,1.4-5.6,2.5c-1.8,1.1-3.5,2.6-5.5,3.5c-0.4,0.2-1.1,0.6-1,1.2c0.1,0.7,0.9,0.5,1.4,0.5
		c1.5,0.2,2.7-0.3,4-0.9C347.1,242.1,349,241.6,350.9,241.5z"/>
	<path class="st1" d="M292.2,258.7c-1,0.7-1.8,1.6-2.6,2.5C290.9,260.8,291.7,259.9,292.2,258.7z"/>
	<path class="st1" d="M371.4,219.9c-1.5-3.5-4.1-6.2-6.8-8.8c-0.3,0.7-0.1,1.3-0.2,2c0,0.4,0.2,0.9-0.2,1.2c-0.5,0.3-1-0.1-1.3-0.5
		c-1.5-2.4-4.2-2.4-6.4-3.3c-1.3-0.5-2.8-0.8-4.2-1.2c-0.3,1.3,3.2,1.5,0.8,3.2c1.8,0.7,4,0.9,5.8,2c0.4,0.3,1.6,0.4,0.7,1.4
		c2,1.3,4.3,1.9,6.4,2.9c1.4,0.6,2.8,1.1,2.2,3.7c1.8-2.6,1.9,0,2.9,0.1c0.3-1.1-0.7-1.6-1.1-2.6C370.6,220,371,220,371.4,219.9z"/>
	<path d="M361.5,239.3c-0.4-0.6-0.8-1.2-1.8-1.2c0.7,1.3,1,2.6,1.1,4c0.2,1.6,1,3,2.5,3.7c1.1,0.5,1.5,1.4,1.4,2.6
		c-0.2,2.6,0.2,5.3-0.3,7.9c-0.2,0.8-0.3,1.7,0.7,2.3c1.3-4.2,1.5-8.4,0.7-12.7c-0.2-1-0.5-2.1-1.5-2.8c-0.4,1.1-0.9,1.2-1.5,0.1
		c-0.3-0.6-0.5-1.2-0.5-1.9C362.3,240.6,362.2,239.9,361.5,239.3z"/>
	<path class="st4" d="M363.5,223.4c-0.3-1.2-1.2-1.9-2.1-2.5c-1.9-1.4-3.8-2.7-5.8-4c-0.4-0.3-1.1-0.5-1.5,0
		c-0.4,0.4,0.1,0.9,0.3,1.3c0.5,0.8,0.9,1.6,1.6,2.2c1.9,1.9,3.6,3.9,4.9,6.2c-0.1-3.7-3.1-5.6-5-8.3
		C358.6,219.8,361.1,221.5,363.5,223.4z"/>
	<path class="st12" d="M360.3,226.9c-6-3.3-12.2-6.3-15.1-13.1C346.5,219.2,351.5,223.6,360.3,226.9z"/>
	<path class="st13" d="M361.5,239.3c0.1,0.9,0.2,1.8,0.3,2.6c0.2,1.5,0.8,2.3,2.4,3c0.4-0.6,0.1-1.3,0.1-1.9c-0.2-0.7-0.4-1.4-0.6-2
		c-0.3-0.7-1-1.1-1.5-1.7C362,239.4,361.8,239.4,361.5,239.3z"/>
	<path class="st10" d="M370.7,242.7c-0.2,1.7,1.4,1.2,1.8,2c0.1,0.2,0.8-0.6,0.6-1.2c-0.2-0.9-0.3-2.1-1.5-2.2
		C370.6,241.2,370.8,242.3,370.7,242.7z"/>
	<path class="st3" d="M365.6,223.5c0.3-1-0.3-1.9-0.3-2.8c0-0.6-0.8-0.8-1.4-1c-0.4-0.1-0.7,0.1-0.9,0.4c-0.4,0.7,0.3,1,0.6,1.3
		C364.3,222.1,364.5,223.2,365.6,223.5z"/>
	<path class="st14" d="M367.7,258.6c0.2,1.1,0.9,2,1.7,2.6c0.6,0.4,0.8-0.1,0.7-0.5c-0.2-1-0.8-1.9-1.5-2.7
		c-0.1-0.1-0.4-0.3-0.6-0.2C367.6,257.9,367.7,258.2,367.7,258.6z"/>
	<path class="st13" d="M378.8,240.8c-0.3,1.4-0.5,2.8-0.9,4.4C379.5,243.8,379,242.3,378.8,240.8z"/>
	<path class="st0" d="M341.1,214.8c-1.3,2.5-3.6,4-5.8,5.5c-0.6,0.4-1.2,0.9-1.5,1.5c0.9,0,1.6,0.7,2.2,1.1c3.1,2.3,7,2.5,10.4,4.1
		c-2.8-3.4-3.2-7.7-4.8-11.5C341.4,215.3,341.2,215.1,341.1,214.8z"/>
	<path d="M157.9,128.1c4.8,0.5,9.5,0,14.1-0.8c1.4-0.2,2.8-0.2,4.2-0.3c5.4-0.3,10.7-1,16.1,0c1.8,0.3,3.8,0.7,5.7,0.2
		C184.6,123.4,171.2,126.2,157.9,128.1z"/>
	<path d="M170.6,123.8c7.5-1.5,15-3.1,22.6-4C185.3,119.2,177.8,120.7,170.6,123.8z"/>
	<path d="M185.9,214.5c2.7-3.3,9.6-15.2,9.5-16.4C191.3,202.9,187.6,207.9,185.9,214.5z"/>
</g>
</svg>
