<?xml version="1.0" standalone="no"?>
<!DOCTYPE svg PUBLIC "-//W3C//DTD SVG 20010904//EN"
 "http://www.w3.org/TR/2001/REC-SVG-20010904/DTD/svg10.dtd">
<svg version="1.0" xmlns="http://www.w3.org/2000/svg"
 width="500.000000pt" height="500.000000pt" viewBox="0 0 500.000000 500.000000"
 preserveAspectRatio="xMidYMid meet">
<metadata>
Created by potrace 1.11, written by Peter Selinger 2001-2013
</metadata>
<g transform="translate(0.000000,500.000000) scale(0.100000,-0.100000)"
fill="#000000" stroke="none">
<path d="M2401 4709 c-29 -5 -79 -19 -110 -32 -54 -22 -1463 -831 -1547 -888
-107 -73 -200 -218 -229 -354 -22 -106 -22 -1803 0 -1890 27 -105 81 -202 154
-274 61 -60 136 -106 821 -500 414 -239 783 -446 819 -460 57 -21 83 -25 186
-25 93 -1 132 3 175 18 l54 19 -109 28 c-264 66 -454 170 -630 344 -225 222
-369 527 -420 891 -21 143 -21 423 0 579 61 463 249 914 514 1239 71 86 224
233 306 294 82 60 243 136 345 163 118 31 309 31 425 0 569 -152 1110 -918
1256 -1777 28 -163 32 -500 7 -629 -9 -44 -14 -82 -12 -84 9 -9 66 131 79 195
22 103 22 1765 0 1869 -29 136 -122 281 -229 354 -83 57 -1493 866 -1546 887
-97 40 -201 51 -309 33z"/>
</g>
</svg>
